<svg xmlns="http://www.w3.org/2000/svg" viewBox="0 0 679 225">
  <path d="M195.965 2.88089C203.576 -0.496701 213.486 1.08973 221.674 1.08973H273.69H459.035C454.181 -0.944192 446.358 0.492678 441.098 0.492678H399.844H256.949H211.51C207.257 0.492678 198.393 -1.27084 195.965 2.88089Z" fill="#F78214" />
  <path d="M183.409 11.2396H90.7368H66.2235C58.9657 11.2396 52.2794 10.9682 45.399 13.6357C43.8738 14.2269 42.6324 15.3366 41.1035 15.9308C38.4145 16.9758 35.4774 17.289 32.8969 18.6973C31.0013 19.7318 29.5189 21.6969 27.7899 23.0103C23.7644 26.0683 19.2315 29.0541 15.9415 32.9575C9.1401 41.0269 6.01788 50.3318 3.33283 60.1957C2.85984 61.9337 1.60655 63.3296 1.21996 65.076C0.527428 68.204 1.05387 71.9308 1.05387 75.1244C1.05387 88.8411 4.83795 101.87 12.6282 113.336C16.2619 118.684 21.1526 122.632 26.1148 126.666C27.8201 128.053 29.3014 129.909 31.1424 131.093C33.6366 132.697 36.657 132.984 39.2651 134.282C42.3266 135.804 45.4496 138.397 48.8848 138.926C55.6092 139.958 62.4203 141.397 69.2129 141.397C72.0337 141.397 77.3513 140.388 79.7847 142.011C83.2142 144.297 78.904 149.26 78.7904 152.153C78.4473 160.852 79.0732 167.861 83.7553 175.429C87.1298 180.883 91.4238 186.499 97.3136 189.41C98.8131 190.151 100.451 191.027 102.097 191.371C104.243 191.821 106.678 191.109 108.337 192.934C110.526 195.341 111.239 199.804 112.337 202.792C113.66 206.393 116.076 210.901 118.863 213.537C121.542 216.071 124.843 219.007 128.152 220.68C130.691 221.964 133.389 221.763 134.98 224.388H408.214H488.331H511.649C515.466 224.388 519.98 225.041 523.606 223.665C526.65 222.511 528.836 220.767 531.504 219.075C537.348 215.371 542.689 212.077 546.291 205.847C547.387 203.952 547.262 201.862 548.103 199.909C548.814 198.259 549.939 196.937 550.306 195.132C550.923 192.097 550.511 188.665 550.511 185.579V168.265V149.159C550.511 146.669 549.855 143.149 551.897 141.28C554.579 138.827 559.139 139.606 562.469 139.606H588.776C598.916 139.606 609.176 140.07 619.268 139.111C622.258 138.826 625.277 139.267 628.237 138.603C639.614 136.051 650.819 128.678 659.207 120.835C673.365 107.601 679.888 87.0046 677.759 67.9598C677.478 65.4766 676.337 63.2317 675.846 60.7951C675.464 58.8857 675.786 56.8104 675.284 54.9494C674.196 50.9252 671.332 46.9429 669.192 43.3797C668.367 42.0142 668.277 40.402 667.44 39.0478C663.255 32.2879 656.863 27.6153 650.609 22.9872C647.327 20.5556 644.015 18.1042 640.194 16.5164C621.486 8.74098 600.273 11.2396 580.406 11.2396H475.776C474.316 6.99083 468.089 5.36231 464.469 3.42362C458.865 0.422465 453.396 1.08973 447.077 1.08973H420.172H245.589H213.303C207.592 1.08973 201.262 0.201913 195.965 2.67264C191.839 4.59718 184.897 6.46441 183.409 11.2396Z" fill="white" />
  <path d="M462.622 2.28384C464.321 3.89547 466.422 4.45616 468.601 5.26911C467.208 3.17035 465 2.78071 462.622 2.28384ZM187.594 5.86617C190.168 6.36793 192.884 4.24666 195.367 3.47795C192.522 2.38343 190.039 4.51838 187.594 5.86617ZM468.601 5.26911C470.649 7.04207 473.144 8.73388 475.776 9.44849C473.727 7.00493 471.703 5.92086 468.601 5.26911ZM48.8848 13.0308C54.5408 10.7297 60.195 11.2397 66.2235 11.2397H91.3347H183.409C183.969 10.0763 184.241 9.71705 185.203 8.85144C182.726 8.17271 180.054 9.95849 177.43 10.0363C170.269 10.2488 163.071 10.0455 155.906 10.0455H81.1706C73.3557 10.0455 65.634 10.2788 57.8531 10.6191C54.6161 10.7606 50.9051 9.98954 48.8848 13.0308ZM475.776 10.0455C477.687 12.2297 482.605 11.2397 485.342 11.2397H512.247H622.258C618.557 9.68785 613.104 10.6426 609.104 10.6426H581.004H514.04C501.409 10.6426 488.305 11.6269 475.776 10.0455ZM197.758 11.8367V13.0308C200.253 12.9573 202.457 11.9389 204.935 11.8478C220.632 11.2704 236.458 11.8367 252.166 11.8367H346.632H418.378C430.266 11.8367 442.388 11.1426 454.251 11.863C456.808 12.0182 458.871 13.451 461.426 13.6279C456.671 9.56217 448.189 11.2397 442.294 11.2397H393.267H273.69C248.39 11.2397 223.004 10.7541 197.758 11.8367ZM622.258 11.2397C623.483 11.7616 624.5 11.8085 625.845 11.8367C624.619 11.3148 623.603 11.2678 622.258 11.2397Z" fill="#F78214" />
  <path d="M625.845 11.8367C627.364 13.1463 628.631 13.4957 630.628 13.6279C629.097 12.7227 627.585 12.1987 625.845 11.8367Z" fill="#F78214" />
  <path d="M14.2073 93.036C16.5501 94.3251 16.3915 96.0715 17.282 98.4095C18.1567 100.706 19.5889 103.132 21.1 105.07C23.7435 108.459 26.3195 112.403 29.4405 115.369C33.6445 119.366 40.6421 123.307 45.9968 125.549C56.9878 130.149 68.8989 128.859 80.5727 128.859C84.261 128.859 91.6784 127.394 94.1339 130.856C96.3778 134.02 93.4254 140.449 92.6326 143.786C90.5843 152.401 88.2866 161.135 92.9788 169.436C96.1213 174.995 101.942 179.332 108.075 180.861C111.266 181.656 116.449 180.263 118.818 182.936C120.901 185.285 120.033 189.836 120.033 192.744H121.827C122.041 203.058 130.584 211.087 140.463 212.889C147.748 214.218 156.271 213.044 163.679 213.044H211.51H427.945H490.723C500.819 213.044 512.864 214.888 522.411 211.2C529.924 208.297 536.291 203.161 538.703 195.132C540.054 190.635 539.151 184.872 539.151 180.206V150.353V136.024C539.153 133.857 538.86 131.321 540.537 129.646C542.334 127.852 545.207 128.262 547.522 128.262H563.067C584.597 128.262 606.157 127.842 627.639 127.665V125.874C632.798 125.593 637.576 122.242 642.586 121.098C644.493 117.352 648.852 115.271 651.769 112.315C656.69 107.332 661.431 99.7636 664.205 93.38C664.965 91.6246 664.821 89.514 665.317 87.6626C667.811 78.2614 668.08 68.2846 664.69 59.004C662.866 54.0168 659.249 49.8971 658.131 44.6747C654.448 43.5689 651.739 38.2642 648.714 35.7009C645.282 32.7968 641.928 29.3639 637.803 27.4325C634.993 26.1172 631.268 25.5894 628.237 24.8779C608.692 20.289 587.23 22.5837 567.252 22.5837H506.268C496.189 22.5837 485.835 23.2752 475.785 22.5514C472.486 22.3139 470.163 19.8396 466.807 19.5984C466.244 16.1844 462.767 14.4287 459.633 13.5136C452.648 11.4742 444.73 12.4338 437.511 12.4338H342.447H250.97C235.718 12.4338 220.156 11.5292 204.935 12.46C200.559 12.7276 195.265 15.5108 191.824 18.1325C190.189 19.3792 189.062 21.1471 186.987 21.7277C183.399 22.7324 178.747 21.9866 175.039 21.9866H149.927H81.7684C69.0454 21.9866 54.6531 20.696 43.0074 26.9308C30.7492 33.4932 21.8657 42.6047 16.3834 55.4217C14.8249 59.0649 12.9431 62.7559 12.4907 66.7657C11.885 72.1344 11.856 78.7193 12.5244 84.0802C12.9124 87.1933 14.1785 89.8257 14.2073 93.036Z" fill="#146139" />
  <path d="M193.573 16.0161L197.161 14.2249C195.385 13.8081 194.517 14.5168 193.573 16.0161Z" fill="#F78214" />
  <path d="M462.622 13.6279C464.076 15.0871 465.448 15.9648 467.405 16.6131C466.334 14.7534 464.711 13.977 462.622 13.6279ZM35.7312 17.8072C38.4987 16.6286 41.423 16.2241 44.1016 14.822C41.6384 14.2176 37.1072 15.6633 35.7312 17.8072ZM634.215 14.2249C635.561 15.2991 636.703 15.7136 638.401 16.0161C637.055 14.9419 635.913 14.5274 634.215 14.2249ZM640.194 16.0161C642.072 18.096 644.057 19.0086 646.771 19.5984C644.888 17.9769 642.598 16.661 640.194 16.0161Z" fill="#F78214" />
  <path d="M202.542 18.4043C204.753 19.3309 207.335 19.0014 209.716 19.0014H222.87H270.103H395.659H435.717C443.172 19.0014 451.091 18.2365 458.437 19.5984C456.281 18.1277 453.804 18.4045 451.262 18.4043H439.304H389.68H202.542Z" fill="#F78214" />
  <path d="M103.89 123.486C103.757 129.876 100.921 135.327 99.4376 141.397C98.8164 143.94 99.2618 146.597 98.594 149.15C98.1539 150.834 97.0556 152.26 96.8015 153.989C95.7731 160.977 98.6179 168.144 104.084 172.735C108.051 176.067 114.639 175.429 119.435 175.429C121.433 175.429 124.696 174.87 125.995 176.813C126.842 178.08 126.607 179.958 126.61 181.4C126.616 184.572 126.452 187.786 126.635 190.953C126.995 197.177 132.96 203.236 138.314 205.754C141.039 207.035 144.597 206.476 147.536 206.476H165.472H231.24H436.913H495.506H511.051C514.514 206.476 517.983 206.772 521.215 205.305C526.071 203.101 530.559 198.526 532.163 193.341C533.638 188.576 532.575 182.182 532.575 177.221V143.189V127.665C532.578 125.906 532.266 123.437 533.96 122.308C535.851 121.049 539.38 121.695 541.543 121.695H560.077H604.919C617.181 121.695 629.605 121.888 639.931 114.196C647.171 108.802 654.328 101.557 657.664 93.036C663.254 78.782 661.234 60.1121 652.194 47.66C649.7 44.2269 646.639 42.2954 643.285 39.8683C639.004 36.7687 634.897 33.4664 629.928 31.4732C628.422 30.8678 626.807 31.0949 625.247 30.7646C623.591 30.413 622.162 29.4687 620.464 29.237C616.601 28.7094 612.404 29.1513 608.506 29.1513H578.612H468.003C465.078 18.461 452.116 19.0014 443.489 19.0014H368.754H259.34C241.099 19.0014 222.545 18.0075 204.335 19.0272C200.973 19.2154 197.776 20.6956 195.522 23.2047C194.2 24.6765 193.315 26.6108 191.598 27.6982C188.978 29.3571 184.589 28.5542 181.615 28.5542H94.9217C79.6924 28.5542 62.3154 26.3689 47.6887 31.3616C45.2142 32.2064 43.3325 34.1862 41.112 35.4885C25.3967 44.7051 16.5943 63.6228 19.076 81.692C19.7381 86.5126 22.0673 91.6121 23.9712 96.0213C26.7082 102.36 30.2456 107.819 35.731 112.166C54.6978 127.199 81.2331 122.514 103.89 123.486Z" fill="white" />
  <path d="M21.3818 27.9572C24.9295 25.8301 27.9713 22.9081 31.5459 20.7925C28.0505 20.1116 22.88 25.0361 21.3818 27.9572ZM60.2444 20.7925C63.5101 22.161 68.0845 21.3896 71.6043 21.3896H94.9218H158.298H177.43C180.982 21.3896 184.769 21.8029 188.192 20.7925C184.846 19.7647 179.829 20.7925 176.234 20.7925H149.329H60.2444ZM458.437 20.1955C459.483 20.9447 460.145 21.1589 461.426 21.3896C460.38 20.6403 459.718 20.4261 458.437 20.1955ZM50.6783 22.5837C52.884 23.4348 55.0004 22.3678 57.255 21.9866C55.0584 21.1308 52.884 21.9647 50.6783 22.5837ZM472.786 21.3896C476.634 23.002 482.381 21.9866 486.537 21.9866H515.834H618.072C614.222 20.3742 608.476 21.3896 604.321 21.3896H575.025H472.786ZM648.565 21.3896C650.723 23.7885 654.328 26.8267 657.533 27.3601C655.07 24.733 652.092 22.296 648.565 21.3896Z" fill="#F78214" />
  <path d="M619.866 21.9866C621.57 23.1493 623.208 23.1628 625.247 23.1807C623.519 22.2645 621.809 22.0711 619.866 21.9866ZM42.9059 26.166C45.4408 25.4387 47.3556 24.0246 50.0805 23.7778C47.2997 22.6239 44.4609 23.6366 42.9059 26.166ZM194.171 23.1807C192.993 24.7309 191.817 26.8542 189.924 27.5992C187.237 28.6564 183.269 27.9572 180.42 27.9572H160.689H66.2234C69.0455 29.1397 72.7523 28.5542 75.7896 28.5542H96.1177H165.473H183.409C185.886 28.5542 189.326 29.1522 191.598 27.994C193.482 27.0338 194.459 24.9697 195.367 23.1807H194.171ZM463.619 23.3797C463.353 23.645 463.984 23.6121 464.017 23.5788C464.283 23.3133 463.652 23.3467 463.619 23.3797ZM628.834 23.7778C629.893 24.2428 630.652 24.3225 631.824 24.3748C630.766 23.9098 630.006 23.8301 628.834 23.7778ZM26.7629 38.1071C28.8424 36.7404 30.1849 34.7053 32.155 33.1869C35.2105 30.832 38.6853 29.149 41.7101 26.7631C39.4395 26.3925 37.5498 27.9603 35.7312 29.2374C32.1688 31.7392 28.5259 33.9774 26.7629 38.1071Z" fill="#F78214" />
  <path d="M637.205 26.7631C638.687 28.2101 639.931 28.8528 641.988 29.1513C640.529 27.7934 639.154 27.1851 637.205 26.7631ZM657.533 27.3601C657.939 28.3034 658.011 28.4213 658.728 29.1513C658.322 28.2078 658.25 28.0904 657.533 27.3601Z" fill="#F78214" />
  <path d="M49.4824 30.3454C52.7593 31.6097 57.7793 29.1613 61.4401 29.1513C57.4062 27.461 53.4631 29.6613 49.4824 30.3454ZM468.003 28.5542C471.995 30.2272 478.038 29.1513 482.352 29.1513H513.442H622.257C618.264 27.4783 612.225 28.5542 607.908 28.5542H576.818H468.003Z" fill="#F78214" />
  <path d="M622.258 29.1513C623.89 30.8154 625.349 30.9159 627.639 30.9424C625.953 29.8844 624.225 29.4411 622.258 29.1513Z" fill="#F78214" />
  <path d="M380.712 44.6747V36.913H379.516C379.516 38.8416 379.768 40.9631 379.449 42.8668C379.075 45.1082 376.661 48.7126 380.114 49.4511C379.247 52.3212 377.675 54.9607 376.853 57.8099C375.552 62.317 375.042 68.0368 375.363 72.7362C375.67 77.2189 377.983 81.3481 378.241 85.869C378.369 88.1337 377.072 89.7355 376.705 91.8652C376.372 93.8039 376.971 95.8739 377.124 97.8125C377.985 95.7634 377.722 93.454 377.722 91.2449C383.068 93.6307 386.734 99.4347 391.474 102.893C402.991 111.298 418.757 114.336 432.13 109.157C429.068 108.096 424.653 110.529 421.368 110.846C413.96 111.562 406.935 109.213 400.419 106.148C397.523 104.785 394.818 103.763 393.267 100.798H390.278C394.734 98.5325 398.995 103.106 403.484 103.704C412.074 104.847 423.361 104.691 430.934 100.498C432.602 99.5756 434.677 98.8926 436.008 97.4799C437.344 96.0613 437.252 94.2296 437.828 92.4927C439.207 88.3313 439.76 84.9155 438.707 80.4979C436.885 81.1696 434.939 79.7134 436.688 77.8727C439.249 75.1746 444.557 79.0328 446.119 81.2048C447.329 82.8891 447.077 85.1042 447.077 87.0655C447.077 91.5369 445.884 95.73 445.881 100.201C447.682 95.9252 447.675 90.4741 447.675 85.8714C447.675 84.2928 448.004 82.2031 447.314 80.7308C445.839 77.5807 439.7 75.3209 436.509 76.6768C433.033 78.1533 431.526 82.7924 429.773 85.7699C425.789 92.5369 418.373 99.1302 410.009 97.0256C407.41 96.3718 406.153 93.8236 404.029 92.439C404.556 95.0995 405.441 96.8202 407.019 99.0066C398.58 98.5451 395.24 87.5682 394.433 80.4979C393.455 71.9272 392.342 60.7749 395.14 52.4597C397.994 43.9767 407.692 36.9373 416.585 38.2324C419.788 38.6988 422.164 40.8717 424.955 42.2865C421.495 43.5278 418.463 44.077 414.791 44.0776C418.762 45.7416 423.353 44.6884 427.176 47.4737C432.313 51.2172 434.277 57.9227 439.902 61.0853C443.57 63.1481 447.588 62.2502 447.672 57.8093C447.702 56.2187 447.675 54.6246 447.675 53.0335C446.757 55.2187 447.885 58.6762 446.119 60.4351C443.43 63.1105 436.972 58.9198 436.409 55.8336C436.018 53.6938 438.597 50.7408 438.681 48.257C438.773 45.501 438.246 41.2625 436.811 38.859C435.842 37.2369 434.262 36.2224 433.326 34.5248C436.178 34.7314 438.343 36.3676 441.098 36.913C437.119 32.1988 428.458 31.7038 422.564 31.5312C416.407 31.3509 410.22 30.2896 404.082 31.7178C399.566 32.7688 394.425 35.1754 390.332 37.4091C386.748 39.3648 384.43 42.8083 380.712 44.6747ZM631.226 31.5395C632.559 33.9764 634.771 34.0698 637.031 35.4167C640.278 37.3462 642.622 40.25 646.173 41.6894C642.514 36.6098 636.906 33.8039 631.226 31.5395ZM227.653 106.768C226.252 104.431 225.33 103.04 225.261 100.201C229.503 103.92 233.55 103.186 239.013 103.186H264.124C267.538 103.186 273.451 104.315 276.393 102.33C280.129 99.8096 279.365 93.8982 280.267 90.0508C280.615 88.5659 281.426 85.8714 279.502 85.0702C277.158 84.094 273.892 87.9432 271.896 88.8567C271.468 86.8512 269.648 86.2076 267.711 85.8714C268.442 86.5849 268.56 86.6571 269.505 87.0655C267.926 91.0288 264.879 92.9781 261.134 94.7556C259.411 95.5735 257.216 96.4596 255.807 94.635C253.182 91.2377 254.558 83.9471 254.558 79.9009C253.064 83.4551 253.961 88.6047 253.96 92.439C253.959 94.0331 254.283 96.2207 253.345 97.6226C250.97 101.176 247.586 97.4943 247.065 94.8266C246.066 89.714 246.785 83.9035 246.785 78.7068C246.785 76.7251 246.343 74.0091 247.4 72.2275C250.596 66.8367 256.542 72.9846 258.743 75.7215H254.558V79.3038C259.998 76.3066 261.564 82.6909 265.917 84.0802L262.928 79.3038C268.342 78.1766 266.515 70.4823 266.515 66.1686C266.515 64.439 266.932 61.991 266.155 60.388C265.52 59.0756 264.185 59.1019 262.928 59.004C264.549 56.0689 267.17 56.6695 270.103 57.2128C267.902 54.6013 264.234 55.5656 261.732 57.2128L262.33 55.4217C258.334 57.4325 254.941 61.1277 255.753 65.5716C253.633 66.0689 250.925 67.5598 248.836 66.1519C246.617 64.6569 246.797 60.736 246.786 58.4069C246.754 51.8399 246.785 45.2717 246.785 38.7042C251.275 38.7042 255.717 38.5928 259.837 40.7072C262.029 41.8321 263.644 43.6603 265.917 44.6747C262.788 46.1787 257.433 44.4938 254.918 46.4826C253.744 47.411 253.969 49.3263 253.96 50.6452L253.96 60.1981C255.505 56.5208 253.338 51.9605 254.918 48.3454C255.918 46.0581 259.068 46.365 261.134 46.5196C267.94 47.0289 270.003 54.3064 275.484 57.2128L273.092 53.0335H276.081C276.081 47.0611 276.362 40.8058 274.288 35.1218L274.886 34.5248C277.425 36.0074 279.712 38.2758 282.658 38.7042V49.4511H284.452C284.557 50.5724 284.714 51.3611 285.05 52.4364C285.459 51.6907 285.498 51.5122 285.648 50.6452C287.602 54.0484 289.004 60.4286 283.256 60.751C280.546 60.9026 278.472 59.3897 276.081 58.4069C278.565 61.6077 281.186 61.9863 285.05 61.9893C285.05 67.2135 285.108 72.329 284.452 77.5127C282.013 77.5192 279.691 77.8052 277.277 78.1097C276.744 79.2674 276.439 79.6137 275.484 80.4979C273.603 74.5722 274.288 68.1479 274.288 61.9893C272.598 66.0098 273.533 72.5625 273.701 76.9156C273.759 78.413 273.914 80.7093 275.666 81.246C278.555 82.1309 283.925 76.3997 286.827 80.2131C287.711 81.375 287.438 83.316 287.441 84.6773C287.45 88.7438 287.15 92.5924 286.592 96.6184C286.311 98.6466 285.909 101.76 288.206 102.826C290.825 104.042 295.36 103.186 298.203 103.186C300.303 103.186 303.284 103.707 305.242 102.826C307.737 101.702 307.299 97.6847 307.139 95.4476C306.794 90.6228 305.378 86.0631 305.378 81.095C305.378 79.3307 304.989 76.8965 305.993 75.3322C308.699 71.111 313.445 77.0655 314.078 79.8985C314.55 82.0127 313.163 83.3918 312.731 85.3281C312.239 87.5342 312.477 90.1911 312.576 92.439C312.817 97.8794 315.456 102.714 316.14 107.962C317.131 105.508 315.681 103.791 315.113 101.395C313.961 96.5318 313.15 92.0814 313.15 87.0655C316.22 88.9719 316.608 91.1398 318.106 94.2302C320.308 98.7702 322.662 104.291 326.755 107.442C330.593 110.397 335.512 109.754 340.055 109.754H366.362C369.905 109.754 375.549 110.823 378.829 109.394C381.176 108.37 380.71 105.278 380.712 103.186C379.933 105.017 380.182 107.39 378.232 108.543C375.467 110.177 370.081 109.157 366.96 109.157H339.457C334.178 109.157 327.435 109.388 325.706 103.186H359.786C362.398 103.186 369.31 104.399 371.129 102.146C372.044 101.012 371.708 99.0902 371.365 97.8125C370.498 94.5908 369.637 91.636 369.405 88.2596C368.878 80.5672 369.352 72.6855 369.352 64.9745C369.352 59.1043 368.772 52.8967 369.429 47.0629C369.773 44.0012 370.732 40.472 371.652 37.5216C371.982 36.4632 372.423 35.2842 373.625 34.973C375.349 34.5268 377.41 36.2598 378.918 36.913C374.168 29.7239 363.145 32.1366 355.6 32.1366C352.744 32.1366 348.557 31.4554 346.395 33.8107C344.693 35.6653 345.994 37.9498 346.713 39.8983C347.779 42.7898 347.854 45.0323 345.436 47.0629C343.482 42.7355 339.891 39.9638 335.87 37.6142C333.711 36.3525 331.693 34.7323 329.293 33.936C327.343 33.2888 325.354 33.5277 323.368 33.1759C315.467 31.7761 307.478 32.1366 299.399 32.1366C294.514 32.1366 283.198 29.8818 281.462 35.7189C278.405 35.0529 276.115 32.8176 273.083 32.3185C269.426 31.7165 265.431 32.1366 261.732 32.1366H240.208C236.442 32.1366 228.085 30.5785 225.198 33.4192C223.774 34.82 224.122 36.9356 224.433 38.7042C225.087 42.4178 226.951 45.6336 227.046 49.4511C227.265 58.1962 227.055 66.9735 227.055 75.7215C227.055 80.7732 227.629 86.2111 226.975 91.2216C226.292 96.4625 220.519 103.253 227.653 106.768ZM662.316 32.1366C662.723 33.0799 662.794 33.1977 663.512 33.9277C663.105 32.9843 663.034 32.8667 662.316 32.1366ZM41.1122 35.7189L44.1016 33.9277C42.418 33.5632 41.9045 34.2598 41.1122 35.7189ZM14.2073 33.9277C10.3252 39.1778 5.37832 45.7333 5.23901 52.4364C6.22571 50.9969 6.21004 49.401 7.01193 47.8839C9.54391 43.0931 12.8313 38.6933 15.4031 33.9277H14.2073Z" fill="#F78214" />
  <path d="M274.886 34.5247L274.288 35.1218C275.024 37.9025 275.228 40.7118 275.905 43.4806C276.496 45.901 277.564 48.0659 277.189 50.6362C276.898 52.625 275.442 54.1171 274.886 56.0187C277.664 58.0923 286.769 64.5422 287.406 57.2098C287.489 56.2575 287.479 55.2312 287.364 54.2819C287.21 53.0089 286.674 51.8417 286.246 50.6452L285.05 52.4364L284.452 49.4511H282.658V38.7041C279.776 37.9652 277.662 35.6491 274.886 34.5247ZM325.706 103.186C326.668 109.388 333.412 108.559 338.262 108.559C351.669 108.559 365.618 109.641 378.918 107.962C378.903 103.539 376.615 99.8813 376.535 95.4242C376.475 92.0175 378.813 89.1319 378.452 85.8481C377.751 79.4943 374.906 73.8999 375.363 67.3717C375.81 60.9975 378.795 55.5882 380.114 49.4511C373.808 46.5506 383.13 38.4346 375.918 35.1176C374.546 34.4867 372.889 34.4929 372.05 35.9087C370.18 39.0665 369.376 45.246 369.352 48.854C369.267 62.0758 368.501 75.6683 369.405 88.8567C369.637 92.2366 370.544 95.1777 371.362 98.4089C371.681 99.6687 371.794 101.151 370.784 102.146C368.454 104.442 361.62 103.186 358.59 103.186H325.706Z" fill="#146139" />
  <path d="M648.565 34.5247C649.366 35.2855 650 35.7432 650.956 36.3159C650.221 35.1011 649.94 34.9269 648.565 34.5247ZM40.3151 35.9179C40.0494 36.1831 40.6804 36.1501 40.7137 36.1169C40.9794 35.8515 40.3483 35.8847 40.3151 35.9179ZM650.956 36.3159C652.182 38.0065 653.246 39.0147 655.142 39.8982C653.916 38.2077 652.852 37.1994 650.956 36.3159Z" fill="#F78214" />
  <path d="M436.315 54.2275C438.405 59.5198 440.749 61.2596 446.479 60.1981C446.479 55.8312 445.622 51.9527 445.03 47.6599C444.77 45.772 444.956 43.5229 444.244 41.7431C443.632 40.2157 439.976 35.8248 438.125 37.903C434.229 42.2763 444.261 51.3103 436.315 54.2275Z" fill="#146139" />
  <path d="M404.029 96.6184C403.642 94.1215 402.277 92.0067 401.894 89.4537C400.501 80.1743 400.421 71.2657 401.715 61.9893C402.516 56.2546 404.193 49.395 409.466 46.0234C414.114 43.0513 419.635 43.3027 424.955 42.8835C415.601 32.2319 400.943 40.3278 395.589 50.8154C393.723 54.4718 393.865 59.1992 393.865 63.1834C393.865 68.7491 393.576 74.3763 394.294 79.9009C395.096 86.0595 396.843 95.1066 404.029 96.6184Z" fill="#146139" />
  <path d="M24.3712 38.7041C22.6717 41.1992 20.7842 43.4644 20.186 46.4658C22.464 44.2281 24.0716 41.5091 25.567 38.7041H24.3712ZM31.5459 42.8835L36.329 39.3012C34.0166 38.7983 32.5158 40.9928 31.5459 42.8835Z" fill="#F78214" />
  <path d="M246.785 38.7041V58.4069C246.789 60.6154 246.423 64.6031 248.416 66.1519C250.442 67.7263 253.699 66.3041 255.753 65.5716C255.401 63.3595 254.133 61.7015 253.61 59.5777C253.013 57.1513 253.345 54.3219 253.362 51.8393C253.378 49.5198 253.492 47.1375 255.789 45.8855C258.635 44.3332 262.74 46.018 265.917 45.2717C260.347 39.4135 254.505 38.7041 246.785 38.7041Z" fill="#146139" />
  <path d="M443.291 38.9031C443.025 39.1683 443.656 39.1354 443.689 39.1022C443.955 38.8367 443.323 38.87 443.291 38.9031Z" fill="#F78214" />
  <path d="M306.574 68.5568C309.026 68.555 311.335 68.407 313.748 67.9598C311.695 63.1529 311.952 58.1579 311.955 53.0334C311.956 50.8667 311.663 48.3304 313.341 46.6557C314.891 45.1069 317.113 45.2789 319.129 45.2717C318.283 43.5176 317.48 41.3198 315.822 40.1572C312.234 37.6417 306.858 39.3885 305.744 43.4811C303.612 51.324 305.932 60.7044 306.574 68.5568Z" fill="#146139" />
  <path d="M444.685 39.3012L445.283 48.257C446.387 45.6288 446.307 41.6715 444.685 39.3012ZM655.141 39.8982C655.47 41.0177 655.805 41.8417 656.337 42.8835C656.869 41.3401 656.439 40.8229 655.141 39.8982ZM668.295 40.4953C668.456 42.6238 668.791 43.634 670.686 44.6747C670.059 43.1188 669.323 41.8208 668.295 40.4953Z" fill="#F78214" />
  <path d="M338.262 42.2865C338.277 46.8205 340.158 50.8315 339.003 55.4216C338.263 58.3609 337.53 62.4764 335.565 64.8497C333.812 66.9675 330.68 67.9538 330.108 70.9456C329.385 74.7178 333.596 80.8723 335.364 84.0802C337.61 88.1551 339.54 93.3423 342.551 96.8602C343.595 98.0805 345.796 100.362 347.435 98.6352C348.273 97.7528 347.901 96.5801 347.306 95.6953C345.256 92.6491 343.281 89.6119 341.292 86.4684C339.486 83.6163 336.126 78.7336 337.418 75.1782C338.313 72.7159 341.044 70.8041 342.585 68.7037C344.126 66.6039 344.854 64.4234 347.23 63.1833C347.23 55.676 347.873 44.1964 338.262 42.2865Z" fill="#146139" />
  <path d="M30.3502 42.8835C28.2478 45.8562 25.7868 48.4343 24.3713 51.8393C27.3519 50.075 29.7424 45.8371 31.546 42.8835H30.3502ZM656.935 42.8835C657.605 45.3631 659.153 47.2372 661.12 48.8541C660.146 46.504 658.878 44.532 656.935 42.8835Z" fill="#F78214" />
  <path d="M671.482 46.267C671.452 46.2999 671.416 46.9303 671.685 46.6647C671.715 46.6318 671.751 46.0013 671.482 46.267ZM63.2339 46.4658C66.3531 47.7728 70.6363 47.0629 73.9958 47.0629H95.5197H171.451H197.758C200.786 47.0629 205.386 46.2246 207.479 48.9902C209.961 52.271 208.52 59.8512 208.52 63.7804V103.186C210.497 98.4818 209.118 90.9667 209.118 85.8714V47.0629C191.309 45.6592 173.19 46.4658 155.308 46.4658H63.2339Z" fill="#F78214" />
  <path d="M254.557 60.7951C258.295 60.1975 259.512 57.5376 262.33 55.4217C261.74 56.3047 261.732 56.1399 261.732 57.2128C264.743 55.71 266.833 55.8808 270.103 56.0187C270.917 58.924 273.605 60.7874 274.151 63.7804C275.17 69.3664 273.203 75.1017 275.484 80.4979C276.631 79.7235 276.868 79.4286 277.277 78.1097L284.452 77.5127C285.4 72.4132 285.05 67.1585 285.05 61.9893C275.293 61.9558 273.142 52.0292 265.885 47.6229C263.834 46.3775 256.916 45.224 255.172 47.4229C254.012 48.8851 254.557 51.8931 254.557 53.6305V60.7951ZM313.15 63.7804C321.189 63.5171 319.727 52.7331 319.727 47.0629C318.213 47.0319 315.413 46.242 314.109 47.1328C312.783 48.0379 313.153 50.4769 313.15 51.8393V63.7804Z" fill="white" />
  <path d="M619.268 103.783C616.004 102.415 611.43 103.186 607.908 103.186H583.395H497.897H471.59C468.545 103.186 463.624 104.107 460.894 102.572C457.312 100.559 458.437 94.6547 458.437 91.2449V59.004C458.437 55.19 457.111 48.5072 462.027 47.2528C466.861 46.0193 473.183 47.0629 478.167 47.0629H511.649H619.268C616.004 45.6945 611.43 46.4659 607.908 46.4659H583.993H500.289H472.786C469.18 46.4659 463.658 45.4324 460.296 46.8259C456.451 48.4194 457.839 55.7071 457.839 59.004V90.6478C457.839 93.8051 456.672 100.217 458.998 102.743C460.926 104.837 466.612 103.783 469.199 103.783H499.093H619.268Z" fill="#F78214" />
  <path d="M672.079 47.4611C672.05 47.494 672.014 48.1245 672.283 47.8588C672.313 47.8259 672.348 47.1954 672.079 47.4611Z" fill="#F78214" />
  <path d="M18.3925 47.6599C17.6048 49.0493 17.0409 50.3067 16.5989 51.8393C17.9476 50.5574 18.8275 49.5305 18.3925 47.6599Z" fill="#F78214" />
  <path d="M62.0382 48.0928C54.6173 50.1246 47.3917 54.2926 43.1319 60.8489C34.5713 74.0234 39.6863 94.5036 54.4361 101.151C65.485 106.129 79.9652 103.783 91.9325 103.783H168.462H194.769C197.88 103.783 203.114 104.778 205.939 103.34C208.682 101.943 207.325 93.8701 207.325 91.2449V58.4069C207.325 55.9799 208.489 49.3478 205.869 48.02C203.13 46.6318 197.797 47.6599 194.769 47.6599H168.462H96.1177H73.9959C70.1599 47.6599 65.7625 47.0724 62.0382 48.0928Z" fill="#146139" />
  <path d="M641.988 83.4832C642.167 79.3426 643.094 75.1328 642.502 70.9683C642.281 69.4243 641.36 68.1938 640.947 66.7119C638.52 57.9705 628.26 46.4449 618.072 49.4511C618.515 52.3396 618.031 53.9702 615.083 54.8246V56.0187C619.376 56.8892 624.631 61.874 625.665 66.2223C626.323 68.9801 625.845 72.3021 625.845 75.1244C625.845 77.8488 626.21 80.8818 625.253 83.4832C623.776 87.4828 621.134 90.4854 617.726 92.9566C612.494 96.7527 603.502 92.6282 602.527 86.4684C599.765 88.3903 597.517 96.1007 592.997 91.3416C592.286 90.5923 591.738 89.7086 591.167 88.8566C587.87 89.5415 585.857 92.2993 582.797 93.5817C575.002 96.8488 570.872 88.8107 566.654 84.0802C565.295 86.6661 564.012 89.5749 561.76 91.5237C554.818 97.5306 546.407 92.1906 541.543 86.4684C541.026 88.0978 540.932 90.2842 539.834 91.6515C535.416 97.1527 530.593 86.3872 529.585 83.4832H528.389C527.716 85.7579 528.221 88.6077 526.833 90.6126C523.261 95.7699 518.708 90.8705 517.03 87.0655C514.8 89.5045 512.433 92.5548 509.204 93.7202C502.642 96.0876 496.117 91.4073 494.31 85.2743C490.323 88.1103 488.271 93.2736 482.949 94.1024C472.692 95.7007 469.88 85.2922 468.854 77.5126C467.766 69.2613 469.898 59.5771 478.765 56.4527C481.14 55.6157 484.054 56.0187 486.537 56.0187C487.755 59.715 492.042 61.7874 493.712 65.5715C494.843 63.7356 495.28 61.5808 496.736 59.9169C501.236 54.7708 507.463 55.3094 512.742 59.0069C514.846 60.4805 515.493 63.0544 517.627 64.3774C518.492 59.9437 521.984 54.0944 527.106 58.5968C529.461 60.6673 530.731 64.9846 531.379 67.9598C532.953 65.0032 531.669 61.2781 533.363 58.4953C535.016 55.7793 538.912 56.4516 540.33 59.0392C541.764 61.6513 540.848 65.6396 541.543 68.5568C543.09 65.4492 544.299 61.7223 547.051 59.3825C554.679 52.8979 563.502 58.4081 566.056 66.7657H567.252C568.192 64.1738 569.015 61.2274 571.073 59.2535C576.448 54.098 584.606 55.2897 588.776 60.7951C590.853 59.9371 592.106 57.6134 594.187 57.0086C598.97 55.6204 600.094 62.0525 601.332 64.9745C602.653 63.4126 603.663 61.6495 605.146 60.2094C606.689 58.7126 609.75 57.7961 610.688 55.8826C611.268 54.7028 611.017 53.117 611.077 51.8417C611.119 50.9348 611.322 49.9449 610.826 49.1132C609.588 47.03 605.738 47.6599 603.723 47.6599H583.993H499.691H470.394C467.553 47.6599 462.048 46.6085 459.993 49.0439C457.872 51.5581 459.035 57.6982 459.035 60.7951V91.2449C459.035 94.3191 457.566 101.928 461.461 102.996C466.033 104.25 472.237 103.186 476.971 103.186H510.453H583.993C598.043 103.186 612.919 104.851 626.269 100.502C630.006 99.2872 635.632 95.2141 637.575 91.7882C639.118 89.0704 639.238 85.1633 641.988 83.4832Z" fill="#146139" />
  <path d="M622.258 48.257C624.117 49.2666 626.144 49.7407 628.236 50.0482C626.395 48.6797 624.53 48.3609 622.258 48.257ZM673.078 48.8541V53.0334H674.274C674.19 51.3557 674.029 50.2362 673.078 48.8541ZM406.421 49.4511C405.889 50.493 405.552 51.3169 405.225 52.4364C406.33 51.3736 406.759 50.9491 406.421 49.4511ZM606.713 59.004C610.467 57.9657 613.624 55.682 617.474 54.8246C616.321 54.335 613.965 54.4049 613.241 53.2818C612.476 52.0949 614.007 51.0428 615.065 51.022C616.452 50.9945 616.912 52.0172 617.474 53.0334C618.377 50.2846 614.999 49.26 612.883 50.6619C611.292 51.7133 611.645 53.8556 610.79 55.3566C609.827 57.0552 607.866 57.546 606.713 59.004Z" fill="#F78214" />
  <path d="M661.12 50.0482C662.627 54.7386 665.204 58.752 665.305 63.7804H666.501C666.298 59.1126 664.725 53.2113 661.12 50.0482Z" fill="#F78214" />
  <path d="M617.475 54.2275C617.421 53.5726 617.504 52.6023 617.116 52.0023C614.952 48.7006 609.929 53.5714 615.065 54.1923C615.848 54.2866 616.697 54.2245 617.475 54.2275Z" fill="white" />
  <path d="M629.432 50.6452C630.658 52.3361 631.722 53.3439 633.617 54.2275C632.601 52.3438 631.399 51.4841 629.432 50.6452Z" fill="#F78214" />
  <path d="M4.04316 52.4364C3.19308 55.873 1.16314 59.1932 0.590067 62.5863C-0.654152 69.9533 0.455842 78.3981 0.455842 85.8714C2.60961 80.7457 0.849251 72.9058 1.06479 67.3651C1.15848 64.9572 2.42211 63.5475 3.16433 61.3689C4.15616 58.4565 4.17141 55.3601 5.23893 52.4364H4.04316ZM404.627 52.4364C400.479 65.1674 399.291 78.8279 403.431 91.8419C404.37 88.7916 402.667 85.8732 402.313 82.8628C401.611 76.8959 401.739 69.7575 402.338 63.7804C402.692 60.2393 405.616 55.7864 404.627 52.4364ZM654.543 52.4364C654.95 53.3797 655.022 53.4973 655.739 54.2275C655.333 53.2842 655.261 53.1666 654.543 52.4364ZM15.403 54.2275C14.4145 55.845 13.8532 57.1256 13.6093 59.004C14.768 57.5054 15.8146 56.1232 15.403 54.2275ZM23.1755 54.2275C22.0789 56.4366 20.9569 58.3036 20.784 60.7951C22.3215 58.9592 23.961 56.639 23.1755 54.2275Z" fill="#F78214" />
  <path d="M655.739 54.2275L656.337 56.6158C656.57 55.467 656.427 55.2067 655.739 54.2275Z" fill="#F78214" />
  <path d="M611.747 56.5554C609.642 57.4283 606.467 58.7215 604.949 60.4476C602.994 62.6782 602.862 65.233 602.216 67.9598C601.164 72.3809 599.921 76.5173 601.272 81.0949C603.221 87.6948 608.763 95.4583 616.877 92.2336C627.274 88.0984 626.927 72.5278 623.519 63.7804C622.162 60.2972 615.735 54.9064 611.747 56.5554Z" fill="white" />
  <path d="M479.363 86.4684C484.48 88.6071 484.778 83.9005 487.966 81.5619C489.313 80.5737 490.98 80.9379 492.516 81.095C496.113 72.6192 492.418 62.4054 503.025 58.0475C504.523 57.4319 505.857 57.2594 507.463 57.2128C501.09 54.5673 496.668 60.5957 494.348 65.4701C492.475 69.404 494.303 73.6455 492.754 77.4774C491.726 80.0173 489.285 79.3563 487.371 80.6042C485.596 81.7607 485.39 84.1692 483.813 85.5114C482.563 86.5747 480.898 86.4505 479.363 86.4684Z" fill="#F78214" />
  <path d="M549.913 57.2128C552.135 57.746 554.763 57.2146 557.088 57.2128C554.813 56.2593 552.244 56.525 549.913 57.2128Z" fill="#F78214" />
  <path d="M566.056 67.9598C565.752 65.6778 564.759 63.9918 563.665 61.9892C563.054 64.5058 564.982 67.4618 566.056 69.7509H567.252C568.677 66.7615 569.862 62.7636 572.24 60.4035C576.619 56.0575 584.338 56.9991 588.178 61.3922C588.652 59.112 586.57 58.023 584.59 57.2779C581.104 55.9656 575.867 56.6086 572.696 58.5735C569.456 60.5802 568.635 65.2378 566.056 67.9598Z" fill="#F78214" />
  <path d="M675.469 56.6158C675.493 59.3168 675.798 61.8149 676.665 64.3775C677.508 62.0263 676.534 58.8272 675.469 56.6158Z" fill="#F78214" />
  <path d="M266.515 57.2128V71.5421C266.515 75.1364 266.768 77.9568 262.928 79.3038L264.722 83.4832C267.554 83.9286 270.448 86.4141 271.896 88.8567C274.92 87.9987 276.972 85.5221 273.69 83.4832C273.973 81.2466 273.168 79.1832 273.101 76.9156C272.971 72.4711 274.094 66.8702 272.785 62.5952C272.165 60.5688 270.418 59.1007 269.505 57.2128H266.515Z" fill="#146139" />
  <path d="M484.744 93.036V91.2449C490.203 90.7487 490.083 85.8284 494.31 83.4832C495.276 89.803 503.473 95.2421 509.684 92.4993C513.292 90.9063 515.992 85.6612 517.292 82.1189C519.701 75.5453 517.838 68.1843 514.197 62.5952C512.817 60.4781 510.49 59.4052 509.257 57.2128C507.351 57.2128 505.37 57.0534 503.532 57.6457C492.683 61.142 495.24 72.3792 492.516 81.0949C490.823 80.7958 488.972 80.3122 487.516 81.5403C485.223 83.476 484.117 88.6083 479.995 86.4493C474.933 83.7966 476.098 73.5721 477.316 69.1539C477.839 67.2576 478.168 64.9536 480.046 63.8902C483.803 61.7629 486.018 67.386 489.527 67.9598C490.097 66.1364 491.052 64.0992 490.413 62.1683C488.502 56.399 479.465 56.0396 475.306 59.1168C471.001 62.3015 470.395 68.478 470.395 73.3332C470.394 80.7904 470.316 89.7904 478.936 92.7082C480.727 93.3143 482.879 93.036 484.744 93.036Z" fill="white" />
  <path d="M532.575 64.3774C534.351 60.1915 533.787 58.426 539.151 58.4069C533.702 55.1476 532.575 59.9186 532.575 64.3774Z" fill="#F78214" />
  <path d="M566.654 80.4979C568.628 85.6368 571.202 92.0079 577.416 92.9107C582.694 93.6773 587.075 91.0455 589.571 86.4679C590.286 85.1585 591.286 83.3715 590.75 81.8281C590.011 79.6943 586.948 79.7002 585.446 80.9415C583.991 82.144 583.977 84.2976 582.54 85.5108C579.928 87.7163 575.954 85.4553 574.886 82.713C574.321 81.261 574.43 79.6376 574.427 78.1097C574.418 73.9745 573.317 65.2348 578.621 63.6891C581.775 62.7702 582.975 66.0116 585.313 67.14C587.098 68.0016 588.801 66.8409 589.08 64.9632C590.239 57.1603 579.211 56.7937 574.436 58.6583C570.342 60.256 568.566 65.9041 567.252 69.7509H566.056C564.713 65.7865 563.215 60.6035 559.477 58.2529C552.089 53.6084 544.273 60.8739 542.903 67.9598C541.875 73.2748 541.687 82.9464 544.567 87.6512C547.777 92.894 554.998 94.8738 560.067 90.9613C563.162 88.5725 565.316 84.0993 566.654 80.4979Z" fill="white" />
  <path d="M57.853 63.1834C61.8648 59.7497 65.1419 58.4105 70.4086 58.4069C65.8617 56.5017 59.1738 58.1568 57.853 63.1834Z" fill="#F78214" />
  <path d="M176.832 61.3922C181.886 58.3956 185.014 58.4595 190.584 59.601C187.033 56.5172 179.118 57.0397 176.832 61.3922ZM486.537 57.8099L489.527 61.3922C489.979 59.29 488.326 58.5239 486.537 57.8099Z" fill="#F78214" />
  <path d="M588.776 62.5863L589.374 66.1686L591.765 65.5716C592.925 70.4346 592.387 75.5955 591.765 80.4979C589.76 79.5343 587.428 78.6238 585.787 80.4979C591.227 79.5008 590.646 83.2378 589.374 87.0655C590.606 85.8786 590.916 85.1806 591.168 83.4832H592.363V90.6478C593.356 88.2841 592.961 85.4296 592.961 82.8861V67.3627C592.961 65.1918 592.196 59.9849 595.377 59.5539C599.072 59.0529 598.318 65.285 598.342 67.3627C598.414 73.3476 599.49 79.2614 598.689 85.2743C598.229 88.7176 598.067 91.295 594.157 91.8419C600.094 94.2582 597.457 84.9054 602.527 84.6773C601.649 80.9726 600.429 77.8368 600.794 73.9303C601.027 71.4693 602.163 69.2118 602.527 66.7657L599.538 67.3627C599.197 64.6897 599.251 55.8288 594.235 58.435C591.819 59.6894 591.765 62.0991 588.776 62.5863Z" fill="#F78214" />
  <path d="M77.5832 83.4832H80.5726C80.7897 92.7501 90.9836 96.5861 97.6273 90.1248C99.8246 87.9885 99.7038 85.1293 99.705 82.2891C99.7074 77.0708 99.7032 71.9541 99.2088 66.7657C99.0282 64.8748 99.7654 61.6173 98.4925 60.044C97.4402 58.7443 95.2029 59.0171 93.7261 59.004V69.7509V77.5126C93.7261 79.6776 94.2242 82.6527 93.1115 84.6116C91.5624 87.3396 88.0438 86.8159 86.912 84.0241C86.1408 82.1201 86.5515 79.5253 86.5515 77.5126V64.9745C86.5503 62.1916 86.5826 58.0803 82.4542 59.272C80.2157 59.9187 80.5762 62.5355 80.5726 64.3775C80.5625 69.1819 81.256 74.5495 80.4842 79.2925C79.7266 83.9477 76.1148 79.7767 73.4841 81.2132C71.5553 82.2664 71.581 84.7352 70.0666 86.1526C68.5205 87.6005 66.3501 87.176 64.4297 87.0655C63.0438 81.4765 59.9145 75.7651 62.0178 69.7509C63.6985 64.947 70.7147 60.776 72.2022 67.9598C78.312 67.7598 78.3162 60.536 72.7995 58.7968C66.8655 56.9262 58.8018 59.3897 56.5848 65.5716C55.3705 68.9569 56.0593 73.3691 56.0593 76.9156C56.0593 81.0311 55.7 86.0338 58.5639 89.3516C63.1861 94.7066 72.1634 95.4535 76.2894 88.7313C77.2179 87.2183 77.3608 85.2021 77.5832 83.4832Z" fill="white" />
  <path d="M76.9854 81.692C81.0199 83.2229 80.5727 78.3879 80.5727 75.7215C80.5727 71.9403 80.547 68.1586 80.5733 64.3775C80.5828 62.9607 80.4059 61.1265 81.5311 60.0464C82.8787 58.7532 84.9372 59.3162 86.5515 59.601C82.9385 56.8677 79.628 59.1288 79.1353 63.184C78.4831 68.5473 83.0264 78.0148 76.9854 81.692ZM94.9219 58.4069C95.9431 58.9168 97.3368 59.2076 98.1511 60.0423C99.9376 61.8734 99.1071 66.2027 99.1071 68.5568C99.9442 66.5651 100.69 60.6626 98.7472 59.1109C97.723 58.2929 96.1428 58.4368 94.9219 58.4069ZM108.673 58.4069C108.381 61.1128 107.061 63.4371 106.88 66.1686C108.215 63.9339 109.037 61.5982 109.271 59.004C111.336 59.004 113.874 58.6547 115.744 59.7079C118.852 61.4591 118.397 64.4133 119.016 67.3627C119.409 69.2363 120.357 70.8191 120.631 72.7362C121.537 70.4949 120.492 68.9551 119.844 66.7657C119.33 65.0283 119.634 63.132 118.931 61.4483C117.236 57.3901 112.238 58.4069 108.673 58.4069ZM127.806 58.4069C129.534 59.1312 131.318 59.0028 133.187 59.004C131.459 58.2798 129.675 58.4081 127.806 58.4069ZM142.155 58.4069C143.382 58.9288 144.395 58.9759 145.742 59.004C144.515 58.4822 143.502 58.435 142.155 58.4069ZM149.927 93.6331H158.298C156.004 92.6713 152.656 93.5841 151.14 91.1088C149.993 89.2358 150.525 86.1789 150.525 84.0802V66.7657C150.525 64.3978 150 61.0411 152.408 59.6178C158.119 56.2402 164.785 61.4059 169.06 64.3775C166.588 59.1306 161.18 58.4063 155.906 58.4069C153.836 58.4069 150.724 58.0451 149.69 60.3342C148.489 62.9953 149.33 67.4726 149.33 70.348C149.33 77.9813 148.529 86.1114 149.927 93.6331Z" fill="#F78214" />
  <path d="M169.658 82.8861C173.717 83.1954 173.683 85.9717 175.819 88.831C177.652 91.2855 180.331 93.1172 183.409 93.5208C194.646 94.9926 195.965 81.852 195.965 73.9303C195.965 71.5325 196.122 69.1007 195.438 66.7746C194.58 63.855 192.474 62.191 191.181 59.601C185.569 58.4505 179.827 57.4869 175.429 62.3463C173.975 63.9529 174.358 68.85 171.972 69.201C169.145 69.6166 168.921 64.7811 167.674 63.2072C165.343 60.2661 161.919 59.1873 158.298 59.0273C156.222 58.9359 152.484 58.3759 151.14 60.3879C149.955 62.1606 150.525 65.3393 150.525 67.3627V84.0802C150.525 86.2039 149.87 89.7403 151.14 91.5828C152.374 93.3734 155.214 93.054 157.102 93.0336C163.7 92.9638 169.297 89.9063 169.658 82.8861Z" fill="white" />
  <path d="M470.992 87.0655C471.916 84.6803 470.558 82.378 470.42 79.9009C470.008 72.5057 469.93 64.43 475.776 59.004C472.852 58.5878 471.535 62.7093 470.61 64.9745C467.893 71.6281 469.097 80.3277 470.992 87.0655ZM509.257 58.4069C515.981 64.4658 519.787 71.8281 517.449 81.0412C516.744 83.8181 514.675 85.9138 514.04 88.8567C516.459 86.5682 518.302 82.5942 518.823 79.3038C519.886 82.8945 519.421 86.9204 519.421 90.6478C520.479 88.1312 520.019 84.9967 520.019 82.2891C520.019 74.9704 518.326 65.2139 521.215 58.4069C518.553 59.8727 518.826 62.1916 518.823 64.9745H515.834C515.279 61.3856 512.773 59.1156 509.257 58.4069Z" fill="#F78214" />
  <path d="M525.998 78.7067C529.315 80.4406 530.789 82.9888 531.953 86.4684C532.795 88.9868 532.846 92.2324 536.179 92.3924C540.489 92.5996 539.568 88.2566 539.92 85.2743C540.621 79.3456 540.347 73.3309 540.347 67.3627C540.347 65.1823 540.974 61.7946 539.987 59.7909C539.095 57.9806 535.095 57.8343 533.877 59.364C533.18 60.2405 533.215 61.5355 533.08 62.5869C532.798 64.7918 532.498 66.9931 531.977 69.1539H530.781C530.008 66.5107 528.794 61.2781 526.835 59.364C525.193 57.7597 521.337 58.097 520.38 60.2864C519.319 62.7123 520.019 66.5519 520.019 69.1539C520.019 75.5149 519.194 82.5058 520.099 88.8005C520.45 91.2401 524.217 93.3405 525.637 90.458C527.084 87.521 525.998 81.9487 525.998 78.7067Z" fill="white" />
  <path d="M545.13 61.9892L548.718 59.004C546.597 58.7114 545.797 60.1354 545.13 61.9892Z" fill="#F78214" />
  <path d="M109.271 59.004C108.811 61.9648 107.283 64.4831 106.548 67.3627C105.022 73.341 103.833 79.0918 101.833 84.8474C101.073 87.0327 100.65 92.725 103.925 92.8826C108.87 93.1208 107.6 88.0178 109.715 85.4642C111.267 83.59 114.283 84.0802 116.446 84.0802C117.042 88.6919 118.358 92.8641 123.62 93.036C124.661 84.8134 122.096 75.7615 119.363 67.9598C118.409 65.2342 119.33 62.0776 116.755 60.044C114.782 58.4869 111.623 59.004 109.271 59.004ZM142.155 93.036H146.34V66.1686C146.34 63.2424 146.939 57.8982 142.243 59.1968C139.547 59.9419 140.607 63.5004 140.273 65.5453C139.97 67.3938 138.999 67.9592 137.372 68.5568C136.605 64.9852 135.182 59.3509 130.786 59.0416C129.628 58.9604 128.019 58.9592 127.224 59.961C125.984 61.5241 126.61 64.9017 126.61 66.7657C126.61 72.6902 127.038 78.7981 126.265 84.6773C126.01 86.6255 125.293 90.3988 126.627 92.079C127.899 93.6826 131.338 93.1638 132.399 91.5828C133.876 89.3809 133.001 85.9681 133.222 83.4862C133.298 82.6258 133.416 81.0938 134.51 80.8746C135.844 80.6078 136.818 82.5918 137.348 83.4862C139.148 86.5276 140.542 89.926 142.155 93.036ZM594.348 59.6291C592.273 60.902 592.961 64.7333 592.961 66.7657C592.961 73.7201 592.752 80.711 592.973 87.6619C593.039 89.809 593.971 92.8898 596.805 91.3267C598.844 90.2036 598.749 86.0983 598.886 84.0802C599.364 77.1359 598.635 70.1086 598.33 63.1839C598.24 61.1456 597.003 57.9991 594.348 59.6291Z" fill="white" />
  <path d="M86.5514 59.601V78.7067C86.5514 81.3302 85.9314 84.3089 88.3451 85.8714C86.5179 80.1158 87.1493 73.9405 87.1493 67.9598C87.1493 65.2515 87.6091 62.1176 86.5514 59.601ZM93.1281 59.601V78.1097C93.1216 82.0926 92.9243 85.3561 88.3451 85.8714C90.6368 87.527 93.1748 86.352 93.6375 83.4742C94.4309 78.5408 93.726 72.9559 93.726 67.9598C93.726 65.2515 94.1858 62.1176 93.1281 59.601ZM126.012 59.601V84.6773C128.049 79.8304 126.61 72.018 126.61 66.7657C126.61 64.3876 126.94 61.8095 126.012 59.601ZM133.784 59.601L134.382 61.9892C134.713 60.7904 134.563 60.5969 133.784 59.601ZM139.763 59.601C139.763 62.8974 140.004 65.6402 137.372 67.9598C141.482 69.0852 140.737 61.9182 139.763 59.601ZM146.34 59.601V92.439C147.461 89.7708 146.938 86.3544 146.938 83.4832V67.9598C146.938 65.2515 147.398 62.1176 146.34 59.601ZM191.181 59.601C191.584 60.9725 191.758 61.2572 192.975 61.9892C192.402 61.0357 191.943 60.4017 191.181 59.601ZM540.347 59.601V82.2891C542.204 77.8715 540.945 70.9492 540.945 66.1686C540.945 63.9583 541.209 61.6513 540.347 59.601Z" fill="#F78214" />
  <path d="M13.0113 61.3922C10.8661 65.2163 11.2177 69.0697 11.2177 73.3333C11.2177 78.6542 10.4612 84.5913 13.0113 89.4537C13.9349 86.8541 12.2461 84.3292 11.9258 81.692C11.4468 77.7479 11.49 73.0807 12.0721 69.1539C12.4501 66.6033 13.9477 63.8622 13.0113 61.3922Z" fill="#F78214" />
  <path d="M527.792 61.3922C528.316 64.113 529.741 66.5842 530.781 69.1539C531.426 66.3203 529.608 63.4819 527.792 61.3922Z" fill="#F78214" />
  <path d="M193.573 61.9892V63.7804C193.989 62.8526 193.989 62.9171 193.573 61.9892ZM490.723 61.9892C490.601 63.9004 490.097 65.5411 489.527 67.3627C491.169 65.7572 491.621 64.1518 490.723 61.9892ZM544.532 61.9892C543.636 63.6102 543.002 64.9315 542.739 66.7657C544.161 65.3429 545.084 64.0025 544.532 61.9892ZM19.5883 62.5863C18.1053 66.0814 18.3925 69.5999 18.3925 73.3333C18.3925 81.8747 19.4841 88.1987 22.9541 96.0213C24.5265 99.566 25.9832 103.185 29.1545 105.574C27.0039 100.718 23.6134 96.2942 21.8161 91.2449C21.201 89.517 21.3474 87.622 20.7762 85.8714C20.2444 84.2414 19.3132 82.8205 19.0762 81.095C18.5419 77.2046 18.6761 72.4592 19.0942 68.5568C19.3153 66.4934 20.2005 64.5996 19.5883 62.5863Z" fill="#F78214" />
  <path d="M135.578 63.1833C135.987 64.1267 136.059 64.2443 136.774 64.9745C136.365 64.0312 136.293 63.9135 135.578 63.1833Z" fill="#F78214" />
  <path d="M479.961 63.1833C481.354 63.7714 482.625 63.7691 484.146 63.7804C482.751 63.1923 481.481 63.1947 479.961 63.1833ZM577.416 85.8714C574.221 79.5265 572.008 64.6234 582.199 64.3775C579.467 62.5248 576.357 63.5899 575.23 66.7746C573.602 71.3785 572.62 83.1447 577.416 85.8714ZM39.3184 65.5716C40.1892 64.913 40.4523 64.6503 41.112 63.7804C39.8423 64.3172 39.856 64.3034 39.3184 65.5716ZM66.8211 63.7804C68.048 64.3022 69.0614 64.3494 70.4084 64.3775C69.1816 63.8556 68.1682 63.8085 66.8211 63.7804Z" fill="#F78214" />
  <path d="M348.426 63.7804C344.34 66.9633 338.622 72.7446 338.262 78.1097H340.055C340.137 81.9159 341.869 84.2773 343.351 87.6632C344.013 89.1749 344.428 91.3888 345.823 92.4223C346.738 93.0999 347.955 93.0008 349.024 93.036V73.3333C349.024 70.3002 349.61 66.5985 348.426 63.7804Z" fill="white" />
  <path d="M478.167 65.5716C479.038 64.9124 479.301 64.6503 479.961 63.7804C478.691 64.3171 478.704 64.3034 478.167 65.5716ZM503.278 64.9745C505.379 64.5864 506.482 64.7076 508.061 66.1686C508.721 63.4054 504.651 63.4078 503.278 64.9745Z" fill="#F78214" />
  <path d="M554.696 63.7804C555.83 64.7315 556.777 65.5984 557.686 66.7657C558.458 64.4921 556.681 64.0085 554.696 63.7804ZM608.506 82.8861C610.659 77.3723 605.218 65.1226 615.083 64.3774C611.902 63.0598 609.708 64.9667 608.536 67.9604C606.784 72.4413 608.141 78.2524 608.506 82.8861ZM666.501 63.7804C666.639 65.854 667.518 67.6971 667.667 69.7599C668.056 75.3692 667.338 80.8979 667.099 86.4684C668.337 84.4098 668.289 82.261 668.295 79.9009C668.301 75.1173 669.7 67.6833 666.501 63.7804ZM62.0381 82.8861C64.5295 76.9574 60.5386 69.9623 66.2233 64.9745C64.0171 64.4975 63.0127 66.6958 62.2492 68.5574C60.4077 73.0443 62.025 78.2172 62.0381 82.8861ZM71.0064 64.3774L71.6043 66.7657C71.8393 65.6169 71.6916 65.3566 71.0064 64.3774ZM161.287 86.4684C160.093 85.9102 158.489 85.6678 157.716 84.488C156.701 82.9399 157.102 80.4609 157.102 78.7067C157.102 74.0706 157.118 69.5736 157.7 64.9745H160.689C159.36 64.4366 157.65 64.1625 156.865 65.7614C156.224 67.0666 156.505 68.9419 156.504 70.348V80.4979C156.507 82.0168 156.197 84.2283 157.209 85.5114C158.134 86.6834 159.971 86.4529 161.287 86.4684Z" fill="#F78214" />
  <path d="M492.516 67.3627C490.796 67.789 488.48 69.3784 486.734 68.5061C484.455 67.3675 483.806 63.7589 480.567 65.0241C479.242 65.5417 478.142 66.6934 477.759 68.0619C477.402 69.3396 477.57 70.8274 477.569 72.1392C477.567 75.6319 476.232 82.9279 479.691 85.2666C483.925 88.1277 484.768 82.7649 486.383 80.5863C487.832 78.6315 490.57 79.4334 491.902 77.7497C493.585 75.6194 492.516 69.9719 492.516 67.3627Z" fill="#146139" />
  <path d="M484.744 64.3774L485.342 66.7657C485.577 65.6169 485.429 65.3566 484.744 64.3774Z" fill="#F78214" />
  <path d="M590.57 68.5568C588.738 68.5568 586.437 68.8959 584.785 67.946C582.847 66.8307 581.499 63.9052 578.785 64.7942C574.053 66.3429 575.615 74.9889 575.623 78.7067C575.626 80.3092 575.377 82.2694 576.581 83.5309C580.635 87.7766 582.247 82.4276 584.343 80.0907C585.827 78.4363 588.051 79.3324 589.611 78.093C591.601 76.5132 590.57 70.8483 590.57 68.5568Z" fill="#146139" />
  <path d="M611.496 64.3774C610.336 69.5694 608.787 73.8425 609.128 79.3038C609.266 81.5153 610.246 84.5483 612.769 85.0498C615.442 85.58 617.241 82.7464 617.439 80.4889C617.923 74.9596 617.827 69.4315 615.681 64.3774H611.496Z" fill="#146139" />
  <path d="M615.681 64.3774L616.279 66.7657C616.512 65.6169 616.368 65.3572 615.681 64.3774ZM677.263 64.3774V66.7657C677.688 65.7154 677.688 65.4277 677.263 64.3774Z" fill="#F78214" />
  <path d="M64.4297 85.8714C66.2617 85.8499 68.1199 85.8839 69.6236 84.6582C71.2074 83.3673 71.4986 81.2771 73.4333 80.2662C74.9591 79.4686 76.5465 79.7337 78.1811 79.9008C78.9937 75.5304 78.9937 71.1361 78.1811 66.7657C75.9385 68.1741 74.2847 69.0673 71.6044 69.1539C70.8582 65.0891 66.2545 63.1756 64.5182 67.9711C62.6259 73.1989 63.7493 80.4949 64.4297 85.8714Z" fill="#146139" />
  <path d="M173.245 64.9745V68.5568C171.545 68.3055 170.846 67.9962 169.658 66.7657C169.295 68.49 171.021 70.4847 172.885 69.1258C174.23 68.1449 173.76 66.2134 173.245 64.9745ZM181.616 64.9745L181.018 67.3627C181.875 66.5316 182.24 66.0295 182.811 64.9745H181.616ZM186.996 64.9745C187.411 66.8081 188.352 68.4918 188.656 70.348C189.313 74.3614 188.79 78.8232 188.79 82.8861C189.584 80.9959 189.388 78.9569 189.388 76.9156C189.388 72.6646 190.184 68.241 186.996 64.9745Z" fill="#F78214" />
  <path d="M507.463 85.2743C508.926 80.714 509.724 76.3812 509.18 71.5421C508.926 69.2888 508.128 67.2732 508.061 64.9745C506.881 64.9888 505.312 64.7978 504.316 65.5883C502.619 66.9358 502.166 70.7367 502.093 72.7362C501.912 77.7324 500.747 85.0522 507.463 85.2743ZM552.541 65.5907C551.154 66.4582 550.725 68.2392 550.574 69.7509C550.2 73.4831 550.117 78.0625 551.144 81.689C551.746 83.8151 553.794 86.2123 556.183 84.5674C557.468 83.6832 557.59 81.9075 557.662 80.4973C557.853 76.749 558.464 71.5934 557.426 67.9711C556.837 65.9125 554.622 64.2897 552.541 65.5907Z" fill="#146139" />
  <path d="M157.102 85.2743C163.812 85.1955 163.679 80.6269 163.679 75.1244C163.679 72.7816 164.024 70.0405 162.637 67.995C162.275 67.46 161.786 66.8696 161.224 66.5316C157.256 64.1428 157.107 68.8082 157.102 71.5421V76.9156V85.2743ZM186.398 85.2743C187.414 79.8149 188.192 74.7208 188.192 69.1539H186.398L185.801 65.5716C180.786 66.9537 181.018 71.9577 181.018 76.3185C181.018 80.7988 180.89 85.0922 186.398 85.2743Z" fill="#146139" />
  <path d="M38.7207 66.1686V68.5568C39.1453 67.5066 39.1453 67.2188 38.7207 66.1686ZM502.083 66.1686C500.065 69.222 500.289 72.1726 500.289 75.7215C500.289 81.3786 500.62 86.3878 507.464 86.4685C506.246 85.9359 504.723 85.8374 503.69 84.9382C498.421 80.3558 503.326 71.6042 502.083 66.1686Z" fill="#F78214" />
  <path d="M344.439 67.1639C344.407 67.1967 344.373 67.8272 344.639 67.5615C344.672 67.5287 344.706 66.8982 344.439 67.1639ZM509.855 66.7657V79.9009C511.182 76.7442 511.182 69.9223 509.855 66.7657ZM558.284 66.7657C558.284 73.2216 558.748 79.6047 557.088 85.8714C560.217 82.8109 558.883 76.2552 558.882 72.1392C558.881 70.2698 559.009 68.4918 558.284 66.7657Z" fill="#F78214" />
  <path d="M195.965 67.3627V83.4832C197.484 79.868 197.484 70.9779 195.965 67.3627Z" fill="#F78214" />
  <path d="M677.861 67.3627V83.4832C679.38 79.868 679.38 70.9779 677.861 67.3627ZM55.4614 67.9598V83.4832C56.9424 79.9588 56.9424 71.4842 55.4614 67.9598Z" fill="#F78214" />
  <path d="M342.447 70.348C343.318 69.6894 343.581 69.4267 344.24 68.5568C342.971 69.0936 342.984 69.0799 342.447 70.348Z" fill="#F78214" />
  <path d="M99.7051 69.1539C99.7051 74.0861 99.3858 79.1372 99.7373 84.0569C99.9 86.3269 100.833 88.3342 100.901 90.6478C101.996 88.0429 101.187 85.7102 103.292 83.4832C102.392 83.0754 101.908 82.99 100.901 82.8861C100.728 78.8697 101.237 72.8001 99.7051 69.1539Z" fill="#F78214" />
  <path d="M476.971 69.1539C476.098 73.8497 476.6 78.1861 476.971 82.8861C478.337 79.6364 478.337 72.4036 476.971 69.1539ZM542.141 69.1539C542.141 74.6098 541.468 80.5421 542.739 85.8714C543.507 83.9059 542.853 81.9774 542.762 79.9009C542.613 76.4827 543.478 72.3374 542.141 69.1539Z" fill="#F78214" />
  <path d="M618.072 69.7509V79.3038C619.154 76.7251 619.154 72.3296 618.072 69.7509ZM660.522 69.7509C660.522 73.4909 660.821 77.3747 660.421 81.095C660.151 83.5518 659.141 85.8344 658.729 88.2596C661.7 84.7907 661.12 80.6203 661.12 76.3185C661.12 74.1082 661.383 71.8012 660.522 69.7509Z" fill="#F78214" />
  <path d="M254.558 75.7215H258.743C257.021 72.5941 254.724 70.305 250.971 70.3683C249.413 70.3946 247.836 70.6489 247.146 72.2275C246.275 74.2193 246.785 77.1771 246.785 79.3038C246.785 84.3626 246.21 89.8185 246.965 94.8266C247.352 97.3957 250.771 101.45 253.337 98.0495C254.457 96.5646 253.413 93.5579 253.371 91.8419C253.317 89.6549 253.361 87.4619 253.362 85.2743C253.363 81.9995 254.773 78.8172 254.558 75.7215Z" fill="#146139" />
  <path d="M625.247 70.945V78.7067C626.198 76.4433 626.198 73.2085 625.247 70.945ZM112.26 73.3333V78.7067H114.054C114.049 76.8147 113.994 75.1489 113.456 73.3333H112.26Z" fill="#F78214" />
  <path d="M280.267 79.9009C282.002 83.4635 280.725 86.9324 279.976 90.6478C279.205 94.4708 279.82 99.2496 276.393 101.973C273.18 104.525 266.224 103.186 262.33 103.186H240.208C235.855 103.186 231.312 102.771 227.055 103.783C229.206 110.899 239.794 108.559 245.589 108.559H295.812H308.367C310.026 108.559 312.586 108.963 313.986 107.856C316.924 105.53 313.357 98.6299 312.537 95.9676C311.662 93.1256 311.594 89.3498 312.384 86.4774C313.025 84.1489 314.621 82.464 314.207 79.8985C313.791 77.3138 311.333 73.559 308.376 73.636C303.775 73.756 305.194 83.4736 305.479 86.4685C305.857 90.4281 309.656 99.8771 305.241 102.572C302.884 104.012 298.475 103.186 295.812 103.186C293.597 103.186 290.165 103.806 288.206 102.572C286.578 101.547 286.375 99.5505 286.523 97.8125C286.904 93.3716 287.443 89.1576 287.441 84.6773C287.441 83.2473 287.921 80.3988 286.483 79.4728C285.033 78.5396 281.93 79.8161 280.267 79.9009Z" fill="#146139" />
  <path d="M338.262 73.9303C337.217 77.4655 338.522 82.7386 341.849 84.6773C340.928 82.427 340.17 80.5749 340.055 78.1097H338.262C338.454 76.5669 338.843 75.362 339.457 73.9303H338.262Z" fill="#F78214" />
  <path d="M269.505 87.0655C266.838 85.0152 264.53 82.9787 262.175 80.6078C260.731 79.1533 257.066 76.7997 255.262 79.0668C254.454 80.0829 254.577 81.6723 254.56 82.8861C254.519 85.8391 253.228 94.1167 256.602 95.6523C259.237 96.8512 263.676 94.0343 265.744 92.5733C267.764 91.1464 268.882 89.4059 269.505 87.0655Z" fill="white" />
  <path d="M390.278 100.201C391.335 100.666 392.093 100.745 393.267 100.798C394.046 103.199 395.775 103.352 397.797 104.589C401.547 106.885 403.922 108.141 408.214 109.048C417.628 111.037 425.316 109.411 434.498 106.96C437.204 106.237 442.339 105.118 444.08 102.798C445.661 100.69 445.006 97.3133 445.438 94.8809C446.236 90.3917 449.061 83.5948 445.283 79.9008V81.0949C443.669 79.8387 440.047 76.8624 439.393 80.5636C438.458 85.8558 439.41 90.9469 436.723 95.9652C435.437 98.3653 432.582 99.2549 430.336 100.498C424.209 103.89 418.1 103.783 411.204 103.783C408.572 103.783 405.488 104.213 402.935 103.487C398.741 102.296 394.741 98.9218 390.278 100.201Z" fill="#146139" />
  <path d="M525.998 78.7067V90.6478H527.194C527.194 88.8859 526.447 84.6033 528.118 83.436C529.868 82.2138 531.682 88.3169 531.977 89.4537C533.53 85.3585 529.802 80.0095 525.998 78.7067Z" fill="#F78214" />
  <path d="M103.292 79.3038V82.2891C103.788 81.0765 103.788 80.5164 103.292 79.3038Z" fill="#F78214" />
  <path d="M122.425 79.9009C122.495 81.5308 122.723 83.0736 123.022 84.6773C123.714 82.9064 123.393 81.5159 122.425 79.9009ZM132.589 92.439C135.035 88.8638 133.368 83.9119 135.578 79.9009C131.803 81.1523 133.029 88.96 132.589 92.439Z" fill="#F78214" />
  <path d="M566.654 80.4979C563.919 85.6475 560.498 93.3692 553.501 92.9626C550.911 92.8121 548.783 91.2497 546.326 90.6478C552.238 97.21 561.027 92.7214 564.66 86.4684C565.792 84.5197 567.376 82.7733 566.654 80.4979ZM617.474 81.095C616.494 84.3686 614.916 85.6839 611.496 85.8714C614.748 87.2166 618.748 84.8188 617.474 81.095ZM136.176 81.692C136.705 84.6576 138.335 87.1718 139.165 90.0508C140.268 87.1407 138.146 83.811 136.176 81.692Z" fill="#F78214" />
  <path d="M169.658 84.6773C171.207 84.374 172.293 84.374 173.843 84.6773C172.91 82.5768 170.211 82.098 169.658 84.6773ZM188.192 82.8861C187.356 84.1101 186.846 85.063 186.399 86.4684C187.754 85.3502 188.565 84.654 188.192 82.8861ZM477.569 82.8861V85.2743C477.994 84.2241 477.994 83.9363 477.569 82.8861Z" fill="#F78214" />
  <path d="M550.511 82.8861V84.6773C550.927 83.7495 550.927 83.8139 550.511 82.8861Z" fill="#F78214" />
  <path d="M583.395 82.8861C582.553 84.417 581.958 85.0773 580.406 85.8714C582.585 86.5759 583.968 85.0385 583.395 82.8861Z" fill="#F78214" />
  <path d="M63.2339 83.4832V85.2743C63.65 84.3465 63.65 84.411 63.2339 83.4832ZM77.5832 83.4832C77.2836 85.0869 77.0552 86.6297 76.9853 88.2596C77.3936 87.3604 77.4791 86.8774 77.5832 85.8714H80.5726V83.4832H77.5832Z" fill="#F78214" />
  <path d="M491.321 85.8714C492.645 85.177 493.35 84.6259 494.31 83.4832C492.733 84.0438 492.147 84.4265 491.321 85.8714Z" fill="#F78214" />
  <path d="M108.673 87.0655C111.351 84.9997 113.114 84.485 116.446 85.2743C114.151 82.6521 109.775 84.0737 108.673 87.0655Z" fill="#F78214" />
  <path d="M539.749 84.0802V90.6478C540.605 88.6119 540.605 86.1162 539.749 84.0802Z" fill="#F78214" />
  <path d="M194.171 84.6773L192.377 90.6478C194.103 88.9277 194.807 87.0285 195.367 84.6773H194.171ZM341.849 84.6773C341.912 87.2619 342.263 88.905 344.24 90.6478C343.957 88.3778 343.252 86.4893 341.849 84.6773ZM567.85 84.6773C568.442 86.9449 569.363 88.3336 571.437 89.4537C570.556 87.5909 569.327 86.112 567.85 84.6773ZM677.263 84.6773C676.815 87.3294 676.091 89.7152 676.067 92.439C677.084 90.1982 678.172 87.0285 677.263 84.6773ZM551.109 85.2743C552.927 86.6494 554.857 86.4667 557.088 86.4684C555.24 85.6869 553.099 85.6433 551.109 85.2743ZM1.05371 85.8714C1.06112 88.4608 1.35899 90.5965 2.24948 93.036C3.14135 90.7314 2.1146 88.0232 1.05371 85.8714Z" fill="#F78214" />
  <path d="M169.06 85.8714L168.462 88.2596C169.241 87.2637 169.39 87.0703 169.06 85.8714ZM173.843 85.8714C174.345 88.3575 175.405 89.7385 177.43 91.2449C176.535 89.228 175.319 87.5145 173.843 85.8714Z" fill="#F78214" />
  <path d="M494.31 85.8714C496.849 92.7966 502.855 93.6331 509.257 93.6331C506.764 92.5882 504.007 93.211 501.487 91.9375C498.573 90.4651 497.059 87.5169 494.31 85.8714Z" fill="#F78214" />
  <path d="M64.4297 86.4684C66.4314 87.5234 68.2101 87.4273 70.4086 87.0655C68.5174 86.2732 66.4709 86.4684 64.4297 86.4684Z" fill="#F78214" />
  <path d="M124.218 86.4684L123.62 93.036C120.57 92.8044 119.235 91.3709 117.641 88.8567C116.898 92.0306 120.912 95.3478 123.858 93.0193C125.526 91.6998 124.913 88.1217 124.218 86.4684Z" fill="#F78214" />
  <path d="M490.723 86.4684C490.188 87.6876 489.804 88.754 489.527 90.0508C490.589 88.8268 491.105 88.0566 490.723 86.4684Z" fill="#F78214" />
  <path d="M472.188 87.0655C472.742 89.3367 473.571 90.4221 475.776 91.2449C474.658 89.7767 473.49 88.3719 472.188 87.0655ZM622.856 87.0655C621.642 88.2118 620.464 89.4489 619.167 90.4974C613.696 94.9024 609.6 91.187 604.321 88.8567C607.777 93.5447 614.108 95.4684 619.262 92.0604C621.092 90.8478 623.047 89.3707 622.856 87.0655Z" fill="#F78214" />
  <path d="M603.125 87.6626V88.8567H604.321V87.6626H603.125Z" fill="#F78214" />
  <path d="M81.1704 88.2596V90.0508C81.5865 89.1229 81.5865 89.1874 81.1704 88.2596ZM98.5091 88.2596V90.0508C98.9252 89.1229 98.9252 89.1874 98.5091 88.2596Z" fill="#F78214" />
  <path d="M71.0063 92.439C72.8879 92.7142 74.2188 91.6676 75.7894 90.6478C73.9079 90.3726 72.577 91.4192 71.0063 92.439ZM93.1281 93.036C95.2321 93.325 96.8255 91.8372 98.5091 90.6478C96.4052 90.3588 94.8118 91.8467 93.1281 93.036Z" fill="#F78214" />
  <path d="M60.0455 90.8466C59.7794 91.1123 60.4108 91.0789 60.4437 91.0461C60.7097 90.7804 60.0784 90.8138 60.0455 90.8466ZM82.3664 90.6478C83.152 91.6139 83.4886 91.6586 84.7579 91.8419C83.8354 91.0855 83.5334 90.9529 82.3664 90.6478Z" fill="#F78214" />
  <path d="M484.744 93.036C486.306 92.4217 487.206 91.8837 488.331 90.6478C486.454 91.0114 485.165 91.0658 484.744 93.036Z" fill="#F78214" />
  <path d="M140.361 91.2449C141.092 91.9584 141.21 92.0306 142.155 92.439C141.569 91.3744 141.612 91.4873 140.361 91.2449ZM177.43 91.2449C178.89 92.7763 180.116 93.3543 182.213 93.6331C180.71 92.5208 179.216 91.7995 177.43 91.2449ZM475.775 91.2449C478.19 94.1084 481.274 93.6331 484.744 93.6331C483.181 92.9787 481.651 93.2259 480.014 92.8575C478.532 92.5244 477.247 91.6407 475.775 91.2449ZM510.453 91.2449C511.199 91.6539 511.378 91.6921 512.246 91.8419C511.5 91.433 511.321 91.3947 510.453 91.2449ZM84.7578 91.8419C85.6804 92.5984 85.9823 92.7309 87.1494 93.036C86.2776 92.3906 85.8053 92.1787 84.7578 91.8419ZM188.79 93.036C189.735 92.6277 189.852 92.5554 190.584 91.8419C189.639 92.2503 189.521 92.3226 188.79 93.036Z" fill="#F78214" />
  <path d="M43.5037 92.439C44.101 94.6147 45.1822 96.0153 47.091 97.2154C46.2154 95.2565 45.1191 93.8534 43.5037 92.439ZM102.097 93.036C103.802 93.7453 105.122 93.5519 106.88 93.036C105.316 92.6605 103.721 92.9704 102.097 93.036Z" fill="#F78214" />
  <path d="M14.4064 93.4343C14.3732 93.4671 14.34 94.0976 14.6058 93.8319C14.6389 93.7991 14.6722 93.1686 14.4064 93.4343Z" fill="#F78214" />
  <path d="M142.155 93.036C143.549 93.6241 144.82 93.6218 146.34 93.6331C144.946 93.045 143.675 93.0474 142.155 93.036Z" fill="#F78214" />
  <path d="M675.469 93.036V96.0213C675.966 94.8093 675.966 94.2481 675.469 93.036ZM2.84741 93.6331C2.86086 98.311 4.95753 102.363 7.6305 106.171C8.37643 102.744 5.13068 96.2267 2.84741 93.6331Z" fill="#F78214" />
  <path d="M634.215 96.0213C635.399 95.3287 635.854 94.7979 636.607 93.6331C635.262 94.3221 634.903 94.6785 634.215 96.0213ZM663.512 93.6331C663.171 95.0523 662.98 96.3545 662.914 97.8125C663.853 96.5019 664.253 95.1872 664.708 93.6331H663.512Z" fill="#F78214" />
  <path d="M661.718 98.4095C657.359 107.968 650.161 114.796 641.988 121.098C644.469 121.48 647.249 118.674 649.061 117.118C654.89 112.107 659.948 105.517 662.914 98.4095H661.718Z" fill="#F78214" />
  <path d="M378.519 100.002C378.486 100.035 378.453 100.665 378.719 100.399C378.752 100.367 378.785 99.7362 378.519 100.002ZM672.48 99.6036V102.589C672.976 101.377 672.976 100.816 672.48 99.6036Z" fill="#F78214" />
  <path d="M51.874 100.798C57.3369 104.77 63.3857 104.38 69.8106 104.38H95.5197H206.129C202.136 102.707 196.094 103.783 191.779 103.783H160.091H94.3239C83.5638 103.783 72.1286 104.892 61.4402 103.679C58.061 103.295 55.3023 101.244 51.874 100.798Z" fill="#F78214" />
  <path d="M652.152 101.395V103.186C652.762 102.505 652.935 102.224 653.348 101.395H652.152ZM18.3923 101.992C19.1009 105.005 20.8214 107.753 23.1754 109.754C22.0245 106.962 20.6516 104.039 18.3923 101.992Z" fill="#F78214" />
  <path d="M433.923 107.365V108.559C437.936 108.294 441.589 106.242 444.685 103.783C441.476 103.284 437.513 107.043 433.923 107.365Z" fill="#F78214" />
  <path d="M670.089 106.171C666.884 109.428 665.066 113.908 662.113 117.413C658.86 121.273 654.555 124.309 650.711 127.542C646.562 131.03 640.039 131.907 636.607 136.024C647.662 132.886 658.597 124.618 665.126 115.138C666.974 112.447 671.063 109.828 670.089 106.171Z" fill="#F78214" />
  <path d="M8.82617 107.365C9.21564 108.819 9.51978 109.325 10.6198 110.351C10.1407 109.094 9.72503 108.358 8.82617 107.365ZM227.653 107.962C230.865 111.238 238.266 109.754 242.6 109.754H283.854C279.574 107.96 272.939 109.156 268.309 109.156H244.991C239.079 109.156 233.391 109.478 227.653 107.962ZM283.854 107.962V109.156H287.441V107.962H283.854ZM646.173 107.962C642.328 112.433 637.826 115.301 632.422 117.515C637.701 118.795 644.905 112.092 647.369 107.962H646.173Z" fill="#F78214" />
  <path d="M288.039 109.156C290.711 110.276 294.132 109.754 297.007 109.754C303.02 109.754 309.671 110.552 315.542 109.156C313.073 108.398 309.805 109.156 307.171 109.156H288.039Z" fill="#F78214" />
  <path d="M10.6199 110.351C11.0093 111.804 11.3135 112.311 12.4135 113.336C11.9344 112.08 11.5187 111.344 10.6199 110.351ZM34.3361 111.146C34.0703 111.412 34.7014 111.379 34.7346 111.346C35.0003 111.08 34.3692 111.114 34.3361 111.146Z" fill="#F78214" />
  <path d="M13.6094 115.127C14.2871 117.318 15.5959 119.135 17.7946 119.903C16.7213 117.841 15.4962 116.485 13.6094 115.127Z" fill="#F78214" />
  <path d="M378.32 128.262C378.798 130.703 380.447 132.906 380.483 135.427C380.543 139.677 377.812 145.644 376.526 149.756C374.956 147.69 371.999 145.312 371.608 142.645C371.403 141.249 372.225 139.793 372.307 138.389C372.572 133.861 371.883 127.888 370.787 123.486C370.262 121.373 369.633 119.987 367.558 119.306C371.864 118.154 374.401 121.974 377.722 124.083C377.357 121.975 376.389 121.468 374.721 120.208C370.367 116.918 367.511 116.918 362.177 116.918H311.357C309.872 120.709 310.095 123.717 309.408 127.611C308.395 133.359 303.753 143.938 310.759 147.368C308.474 143.248 307.488 140.751 308.367 136.024H309.563L310.161 139.606C317.094 138.092 319.905 129.781 325.371 125.856C329.589 122.828 332.326 126.263 332.251 130.649C332.226 132.065 331.943 133.443 331.685 134.83C327.726 134.219 325.731 136.591 324.51 140.203C326.324 138.744 327.593 137.246 329.891 136.621C329.891 146.13 330.487 155.844 329.293 165.28C328.073 164.745 327.005 164.362 325.706 164.085C327.63 166.22 329.429 166.938 332.283 167.071C332.283 174.185 330.489 180.922 330.489 187.968H346.034C347.918 187.967 350.691 188.404 351.906 186.584C354.281 183.027 350.366 177.968 350.23 174.235C349.781 161.932 350.219 149.53 350.219 137.218C350.219 133.897 349.409 126.748 352.847 124.708C355.213 123.304 357.175 126.367 359.188 127.068C356.728 135.055 357.394 143.186 357.394 151.547C357.394 161.653 356.773 171.965 358.1 181.997C358.63 186.012 360.893 189.227 360.981 193.341C352.112 194.461 343.015 193.938 334.076 193.938C336.288 194.865 338.87 194.535 341.251 194.535H354.405C356.402 194.532 359.625 194.913 360.965 193.034C361.967 191.628 361.49 189.477 361.041 187.968C359.907 184.162 358.652 180.6 358.163 176.624C357.539 171.553 357.992 166.204 357.992 161.1V132.442C364.343 132.924 365.995 140.766 369.471 144.979C371.141 147.003 373.883 148.924 374.545 151.571C375.363 154.841 374.215 158.401 374.98 161.697C375.64 164.536 376.695 168.719 378.112 171.248C379.238 173.259 381.033 174.791 382.404 176.624C389.133 185.615 400.656 195.027 412.4 195.132C408.297 192.906 403.339 192.429 399.257 189.976C396.989 188.612 395.114 186.262 393.267 184.385C395.678 184.561 397.075 185.898 399.299 186.518C406.094 188.412 414.256 189.793 421.368 188.255C436.054 185.08 445.538 173.577 448.419 159.363C449.309 154.973 450.193 150.214 449.311 145.678C448.083 139.355 443.24 134.993 440.5 129.456C441.335 129.062 441.585 128.881 442.294 128.262C444.616 131.939 449.967 134.701 450.664 139.009C457.087 139.732 455.447 147.314 455.447 152.144V165.877C455.447 168.151 455.802 170.79 455.121 172.988C454.271 175.733 452.653 178.683 451.499 181.346C450.927 182.666 449.667 184.028 450.047 185.568C450.529 187.524 452.538 187.885 454.252 187.956C457.782 188.103 462.521 187.227 465.611 185.579C463.836 182.379 460.687 178.328 459.822 174.83C459.214 172.37 459.752 169.586 459.579 167.071C458.936 157.693 459.008 148.833 460.23 139.606C463.167 140.88 466.401 142.923 467.493 146.121C468.268 148.388 466.808 152.032 466.807 154.533C466.804 162.708 466.195 171.543 467.602 179.609C468.515 184.846 473.222 187.901 473.384 193.341C466.833 194.168 460.255 193.938 453.654 193.938C457.788 195.67 464.722 194.738 469.199 194.511C471.021 194.419 473.254 194.144 473.783 192.068C474.809 188.034 470.325 184.303 469.034 180.803C467.264 176.001 468.003 170.305 468.003 165.28C468.003 162.099 467.435 158.873 467.494 155.73C467.511 154.796 467.651 153.405 468.737 153.086C469.937 152.734 471.299 154.082 472.07 154.808C474.598 157.185 476.39 160.148 478.465 162.891C483.265 169.234 488.756 174.992 493.81 181.123C497.218 185.256 500.197 190.219 505.072 192.744C503.781 190.611 502.191 189.277 501.485 186.774C502.952 186.738 504.766 186.853 505.907 185.733C508.143 183.539 506.866 176.553 506.866 173.638C506.866 160.752 505.51 147.032 506.97 134.233C507.431 130.191 510.512 127.257 511.793 123.486C512.227 122.207 512.2 120.152 513.632 119.505C515.597 118.617 517.826 120.844 519.421 121.695C516.165 114.832 507.252 116.918 500.887 116.918C498.308 116.918 494.303 116.165 493.374 119.342C492.068 123.805 497.309 127.335 498.737 131.247C500.658 136.509 499.691 143.027 499.691 148.562L496.104 147.965C495.527 142.842 489.666 139.201 487.135 134.83C485.852 139.062 492.482 143.618 494.825 146.825C495.768 148.115 496.727 150.079 498.169 150.88C499.318 151.519 500.857 151.091 502.083 150.95V155.727C497.258 155.582 495.673 152.038 492.883 148.563C488.144 142.657 483.589 136.599 478.828 130.704C476.092 127.316 472.623 124.291 471.59 119.903C473.083 121.493 474.99 122.534 476.442 124.162C478.76 126.76 480.211 129.887 483.548 131.247C481.948 125.327 474.55 118.647 468.601 117.168C465.099 116.298 460.833 116.918 457.241 116.918C454.403 116.918 448.672 115.807 446.741 118.454C445.522 120.126 446.377 122.276 447.229 123.913C449.358 128.005 451.649 130.587 451.86 135.427C445.979 132.413 441.806 126.266 436.315 122.488C427.835 116.653 418.893 115.482 408.812 115.733C402.128 115.899 395.079 119.425 389.733 123.15C387.709 124.562 383.914 130.736 381.381 130.308C380.316 130.129 379.232 128.82 378.32 128.262Z" fill="#F78214" />
  <path d="M42.3079 116.918C43.4904 117.952 44.3613 118.352 45.8952 118.709C44.7126 117.675 43.8417 117.275 42.3079 116.918ZM176.832 188.565C176.491 189.953 176.954 191.855 175.865 192.981C174.657 194.228 172.422 193.935 170.853 193.938C166.525 193.947 159.229 195.32 155.317 193.324C152.282 191.776 148.175 187.27 152.319 184.982C153.179 189.103 160.908 188.298 164.223 187.891C165.622 187.719 168.102 187.031 168.452 185.401C169.326 181.332 162.723 178.009 161.864 174.235C160.978 170.346 161.287 166.253 161.287 162.294V142.592C162.643 144.383 163.855 144.777 166.07 144.98C166.758 149.562 169.77 153.507 170.243 158.115C170.459 160.219 169.337 162.029 169.124 164.085C168.412 170.98 168.15 182.69 175.039 186.773C173.875 183.232 171.423 180.199 170.528 176.522C169.59 172.669 170.256 168.038 170.256 164.085C173.349 168.156 175.894 173.053 177.746 177.818C179.337 181.91 181.217 187.413 185.203 189.759C184.736 188.002 184.369 187.119 182.811 186.176C184.037 186.213 184.63 186.356 185.801 186.773C191.293 180.968 193.616 173.808 196.444 166.474C198.755 160.482 201.789 154.723 203.737 148.562C204.349 149.478 204.218 149.399 204.933 149.756C206.397 147.629 207.251 145.672 207.922 143.189C210.112 147.545 209.716 152.17 209.716 156.921C209.716 159.04 210.044 161.509 209.125 163.485C208.083 165.727 205.811 166.515 204.514 168.443C202.281 171.762 200.848 177.007 199.552 180.803C202.916 177.868 202.705 172.368 206.727 170.056C206.727 172.567 207.061 175.351 206.548 177.818C205.852 181.161 202.202 186.855 205.531 189.759C204.977 186.63 205.971 184.914 206.727 181.997C207.345 183.949 207.664 185.934 207.922 187.968H222.87C224.708 187.968 227.654 188.465 229.083 187.011C230.221 185.853 229.87 184.006 229.537 182.594C228.573 178.505 227.267 174.951 227.078 170.653C226.756 163.318 227.055 155.905 227.055 148.562C227.055 143.869 226.584 138.895 227.132 134.233C227.779 128.73 232.444 124.39 231.838 118.709H242.002C241.118 119.298 241.283 119.306 240.208 119.306C241.156 122.968 240.794 126.453 241.404 130.053C238.309 130.156 237.182 131.178 236.621 134.233C238.257 132.518 240.423 131.922 241.214 134.857C241.989 137.733 241.404 141.418 241.404 144.383C241.404 153.744 242.416 163.746 241.326 173.041C240.955 176.21 239.613 179.412 239.012 182.594C234.482 179.768 235.425 174.181 235.425 169.459C235.425 157.898 236.023 146.352 236.023 134.83C234.155 138.34 234.827 142.904 234.827 146.771V171.25C234.827 174.846 234.198 179.857 236.211 183.057C240.044 189.152 248.508 187.996 254.557 187.967C256.913 187.956 260.814 188.106 262.305 185.837C264.096 183.109 261.296 177.283 261.158 174.235C260.645 162.94 261.134 151.511 261.134 140.203C261.134 135.033 260.476 128.351 262.443 123.486C263.412 121.09 265.27 118.485 268.22 119.752C270.59 120.77 271.305 125.387 271.261 127.665C271.185 131.635 269.115 135.188 268.464 139.009C267.814 142.829 268.309 147.083 268.309 150.95V167.668C268.309 170.392 267.877 173.961 268.747 176.57C269.3 178.227 270.917 179.194 271.536 180.826C272.204 182.589 271.427 184.855 272.601 186.437C274.626 189.166 281.501 187.968 284.452 187.968C296.138 187.968 307.962 189.159 319.129 185.579C319.129 180.695 320.278 176.605 320.923 171.847C319.517 171.847 319.766 171.458 319.727 170.056C318.476 170.298 318.519 170.186 317.933 171.25C316.98 170.476 316.727 170.334 315.542 170.056C318.442 167.334 319.477 163.817 323.912 163.488V162.294C317.099 162.516 313.084 170.473 308.726 174.832C306.986 176.573 304.254 179.75 301.398 178.902C299.87 178.448 299.538 176.798 299.432 175.421C299.189 172.273 299.399 169.033 299.399 165.877C299.399 154.312 297.291 139.931 301.854 129.203C302.993 126.524 303.064 122.114 299.997 121.098C303.355 126.063 299.523 129.109 298.876 134.233C297.486 145.236 298.203 156.588 298.203 167.668C298.203 172.86 296.421 182.053 303.584 182.594C300.773 183.646 294.963 185.176 292.668 182.404C290.53 179.822 291.029 174.389 291.029 171.25V144.383C291.029 140.053 289.235 130.819 293.42 128.262C293.483 125.238 294.651 122.261 294.018 119.306L298.203 119.903C294.322 114.815 284.31 116.918 278.473 116.918H246.187C242.443 116.918 238.525 117.719 234.827 117.411C229.627 116.979 224.51 116.918 219.282 116.918C216.128 116.918 213.16 116.687 210.487 118.653C207.085 121.154 207.121 124.116 205.557 127.665C202.189 135.312 198.796 143.049 195.965 150.95L192.975 150.353C194.73 154.713 195.833 156.132 193.573 160.503H192.377C191.091 157.407 188.718 155.053 187.243 152.091C184.784 147.15 184.147 141.137 181.802 136.179C179.19 130.654 175.898 125.433 174.441 119.306C177.673 120.954 180.301 124.015 182.213 127.068C182.742 124.348 180.534 122.744 178.778 120.938C173.35 115.356 165.58 116.918 158.298 116.918C155.614 116.918 150.31 115.914 148.772 118.798C147.304 121.55 150.174 124.193 151.634 126.181C153.168 128.268 154.023 130.452 154.104 133.039C154.38 141.976 154.113 150.964 154.113 159.906C154.113 164.717 154.78 170.085 153.978 174.832C153.108 179.987 146.426 184.713 150.031 189.989C154.372 196.339 162.269 194.535 169.06 194.535C171.05 194.535 174.809 195.237 176.472 193.921C178.032 192.687 177.291 190.119 176.832 188.565Z" fill="#F78214" />
  <path d="M627.041 121.098L631.824 119.306C629.719 118.587 628.44 119.513 627.041 121.098ZM45.8953 119.306C46.9529 119.772 47.7104 119.851 48.8847 119.903C47.827 119.438 47.0695 119.359 45.8953 119.306Z" fill="#F78214" />
  <path d="M174.441 119.306C175.405 125.731 179.264 131.002 181.802 136.698C183.968 141.559 184.855 147.185 186.984 152.091C188.274 155.063 190.695 157.723 192.377 160.503H193.573C197.073 155.642 194.059 154.351 191.803 149.855C188.788 143.848 184.031 136.259 184.007 129.456C181.848 128.201 181.837 126.336 180.56 124.345C179.369 122.487 177.551 121.077 176.234 119.306H174.441ZM207.922 187.968L207.324 181.997C203.687 186.354 205.852 190.943 211.083 192.989C212.977 193.731 215.492 193.341 217.488 193.341H231.24C234.651 193.336 237.644 191.422 240.806 191.42C243.475 191.417 245.78 193.287 248.579 193.338C273.87 193.801 299.214 193.341 324.51 193.341C324.882 191.511 325.667 189.1 328.053 189.368C330.578 189.652 332.201 192.582 334.727 193.163C337.324 193.759 340.392 193.341 343.045 193.341H359.785C359.736 187.459 357.245 182.386 356.849 176.624C356.267 168.144 356.796 159.451 356.796 150.95C356.796 145.333 356.093 139.197 356.882 133.636C357.213 131.3 358.727 129.389 359.188 127.068C357.219 125.944 354.972 122.858 352.403 124.697C349.408 126.842 350.219 133.463 350.219 136.621V160.503C350.219 164.321 349.692 168.58 350.374 172.343C351.057 176.111 354.048 182.439 351.905 186.088C350.67 188.191 348.15 187.963 346.034 187.968H330.489C330.49 180.946 332.283 174.182 332.283 167.071C327.659 167.055 324.264 163.645 319.727 164.682C320.223 167.179 321.639 169.191 321.485 171.839C321.353 174.103 319.854 175.684 319.365 177.827C318.801 180.287 319.129 183.069 319.129 185.579C316.486 186.129 314.038 187.465 311.357 187.843C302.907 189.032 293.584 187.968 285.05 187.968C281.803 187.968 275.388 189.11 272.938 186.437C271.377 184.735 272.307 182.238 271.536 180.26C270.733 178.198 268.693 177.036 268.054 174.83C267.351 172.411 267.711 169.562 267.711 167.071V152.741C267.711 148.208 267.54 143.457 268.583 139.009C269.432 135.39 271.091 132.055 271.272 128.262C271.38 125.999 271.067 120.93 268.717 119.749C265.517 118.142 263.16 120.695 262.213 123.486C260.509 128.504 261.134 134.964 261.134 140.203C261.134 151.536 260.86 162.906 261.143 174.235C261.218 177.253 264.014 183.287 261.946 185.837C260.932 187.086 259.06 187.55 257.547 187.786C253.591 188.405 247.768 188.662 243.849 187.801C241.448 187.274 236.157 184.231 235.186 181.934C233.581 178.143 234.229 172.879 234.229 168.862V143.189C234.23 137.906 234.901 129.274 241.404 128.262C241.401 123.614 241.726 119.241 236.024 119.309C234.978 119.322 233.673 119.243 232.794 119.92C231.773 120.706 231.592 122.374 231.087 123.486C229.843 126.228 228.389 128.949 227.505 131.845C226.238 135.992 227.055 141.271 227.055 145.577C227.055 154.275 226.513 163.17 227.108 171.847C227.265 174.137 227.404 176.813 228.062 179.012C228.726 181.237 230.815 184.349 229.062 186.584C227.669 188.36 224.854 187.967 222.869 187.968H207.922Z" fill="#146139" />
  <path d="M17.7947 119.903C18.3746 121.391 18.6765 121.782 20.1862 122.292C19.46 121.097 18.991 120.629 17.7947 119.903Z" fill="#F78214" />
  <path d="M49.4824 119.903C50.405 120.66 50.7068 120.792 51.874 121.098C51.0022 120.452 50.5299 120.24 49.4824 119.903Z" fill="#F78214" />
  <path d="M294.616 119.903C294.032 122.729 293.444 125.362 293.42 128.262C291.12 128.934 291.072 130.821 291.032 133.039C290.952 137.414 291.029 141.798 291.029 146.174V172.444C291.029 175.167 290.547 180.799 292.601 182.906C294.801 185.164 300.851 183.515 303.584 183.191C301.622 182.158 299.608 181.361 298.393 179.353C296.316 175.918 297.605 169.184 297.605 165.28C297.605 157.521 296.661 149.081 297.73 141.397C298.168 138.252 298.306 134.241 299.258 131.247C299.936 129.114 301.53 127.071 300.992 124.706C300.479 122.458 297.853 121.49 296.409 119.903H294.616ZM369.949 119.903C370.505 125.472 371.792 130.988 372.237 136.62C372.412 138.845 370.971 141.096 371.485 143.212C372.092 145.712 374.496 147.702 375.928 149.756C378.017 147.339 378.178 143.791 379.186 140.8C379.766 139.08 380.738 137.321 380.545 135.45C380.319 133.272 378.525 131.517 377.856 129.454C376.221 124.415 376.5 120.374 369.949 119.903ZM471.59 119.903C472.196 124.354 475.652 127.393 478.374 130.704C483.34 136.746 488.002 143.052 492.883 149.159C495.747 152.743 497.201 155.672 502.082 155.727V150.95C500.786 151.011 499.309 151.276 498.169 150.489C496.465 149.313 495.278 146.865 494.031 145.235C491.35 141.731 487.506 139.25 486.537 134.83C482.546 134.208 481.76 130.605 479.618 127.642C477.272 124.396 474.69 122.336 471.59 119.903ZM512.246 119.903C511.91 125.115 507.546 128.583 506.969 133.636C505.488 146.628 506.865 160.557 506.865 173.638C506.865 178.984 508.653 186.381 501.484 186.773L505.072 193.341C507.377 193.341 511.729 194.161 513.183 191.888C515.546 188.192 514.04 180.264 514.04 176.027C514.04 162.907 513.553 149.685 514.694 136.621C515.033 132.748 517.837 130.803 519.43 127.564C520.221 125.956 520.018 124.03 520.019 122.292H517.03V119.903H512.246Z" fill="#146139" />
  <path d="M34.5354 120.501C35.2818 120.91 35.4612 120.948 36.3291 121.098C35.5827 120.689 35.4032 120.65 34.5354 120.501ZM51.8741 121.098C53.2681 121.686 54.5389 121.683 56.0593 121.695C54.665 121.107 53.3948 121.109 51.8741 121.098ZM532.575 190.356C533.503 188.147 533.173 185.569 533.173 183.191V169.459C533.173 153.769 532.536 137.917 533.77 122.292L627.041 121.695C623.633 120.267 619.256 121.253 615.681 121.593C612.524 121.893 609.283 121.695 606.115 121.695H555.294H539.151C537.476 121.695 534.383 121.147 533.189 122.652C532.202 123.897 532.575 126.191 532.575 127.665V140.8V190.356Z" fill="#F78214" />
  <path d="M56.6572 121.695C61.3644 124.48 67.525 123.486 72.8002 123.486C83.097 123.486 93.1857 123.345 103.292 124.68C102.535 127.949 101.527 130.835 101.499 134.233C103.615 131.486 103.862 126.889 103.89 123.486C90.9544 122.467 77.9886 123.453 65.0276 122.865C62.1919 122.736 59.5002 121.818 56.6572 121.695Z" fill="#F78214" />
  <path d="M21.3818 122.292C21.959 124.09 22.8031 124.822 24.3713 125.874C23.6102 124.307 22.7548 123.37 21.3818 122.292Z" fill="#F78214" />
  <path d="M117.642 156.324C118.989 156.25 120.37 156.251 121.438 155.284C124.285 152.703 122.751 148.409 127.806 148C129.709 147.847 131.811 148.007 133.17 149.501C135.615 152.187 134.849 155.232 139.166 155.727C139.166 144.263 135.375 133.099 131.991 122.292C130.129 122.292 127.225 121.801 125.775 123.249C124.102 124.919 124.553 129.031 123.911 131.247C123.384 133.068 122.49 134.753 122.113 136.621C121.717 138.583 121.96 140.619 121.325 142.538C119.763 147.265 117.685 151.183 117.642 156.324Z" fill="#146139" />
  <path d="M133.187 122.292V124.083C133.603 123.155 133.603 123.22 133.187 122.292Z" fill="#F78214" />
  <path d="M520.617 122.292C520.338 128.312 515.387 132.504 514.742 138.412C514.082 144.457 514.638 150.841 514.638 156.921V193.341C516.434 189.067 515.236 182.441 515.236 177.818V152.741C515.236 148.437 514.81 143.882 515.314 139.606C516.006 133.723 523.148 128.318 520.617 122.292ZM637.803 123.486C639.274 123.902 639.997 123.551 641.39 122.889C640.033 122.645 639.13 123.015 637.803 123.486Z" fill="#F78214" />
  <path d="M404.029 124.083C402.238 128.05 398.516 131.189 397.189 135.427C396.596 137.321 396.897 139.443 396.592 141.397C395.412 148.957 395.47 155.985 396.7 163.488C397.243 166.801 396.721 169.843 398.106 173.041C400.03 177.482 403.089 182.444 408.214 183.191C406.281 180.36 405.771 177.381 404.394 174.337C403.723 172.851 402.669 171.7 402.372 170.047C401.657 166.078 402.235 161.546 402.235 157.518C402.235 152.482 402.099 148.003 403.721 143.189C404.787 140.027 406.074 135.368 408.37 132.891C409.862 131.282 412.678 128.979 414.814 128.45C417.369 127.817 419.994 128.424 422.564 127.665C419.382 120.372 410.003 123.323 404.029 124.083Z" fill="#146139" />
  <path d="M40.5142 123.486C42.3573 125.745 44.1561 126.871 47.0909 127.068C44.9473 125.694 43.0301 124.014 40.5142 123.486Z" fill="#F78214" />
  <path d="M133.784 124.083V127.068C134.281 125.855 134.281 125.295 133.784 124.083Z" fill="#F78214" />
  <path d="M308.965 137.218C306.865 142.217 310.512 144.57 312.553 148.562C314.433 148.547 316.635 148.698 318.198 147.453C322.743 143.832 324.695 134.471 331.685 134.83C332.02 133.426 332.253 132.1 332.272 130.649C332.317 127.146 330.798 122.682 326.406 124.846C323.615 126.221 322.361 128.783 320.369 130.962C318.909 132.559 317.139 133.643 315.898 135.459C314.756 137.13 313.685 140.988 311.387 141.362C309.14 141.727 309.045 138.672 308.965 137.218Z" fill="#146139" />
  <path d="M377.722 124.68V127.665C378.218 126.453 378.218 125.892 377.722 124.68Z" fill="#F78214" />
  <path d="M24.3713 125.874C25.7794 128.608 27.5511 130.016 30.3502 131.247C29.2435 128.557 27.1813 126.665 24.3713 125.874Z" fill="#F78214" />
  <path d="M134.382 127.068L136.176 134.233C137.171 131.686 136.117 129.05 134.382 127.068ZM541.543 128.859C543.754 129.786 546.336 129.456 548.717 129.456H561.871H607.908C612.865 129.456 617.935 129.768 622.855 129.112C625.277 128.79 627.07 128.868 628.834 127.068C617.456 129.665 605.78 128.859 594.157 128.859H541.543ZM123.022 127.665C121.992 130.094 121.828 132.215 121.827 134.83C122.825 132.76 123.699 129.888 123.022 127.665Z" fill="#F78214" />
  <path d="M50.6782 128.262C51.5786 128.67 52.0622 128.755 53.0698 128.859C52.1693 128.451 51.6858 128.366 50.6782 128.262Z" fill="#F78214" />
  <path d="M56.6572 129.456C60.1722 131.322 64.743 130.65 68.615 130.65H93.1283C89.5703 129.16 84.4111 130.053 80.5727 130.053C72.5831 130.053 64.6073 129.478 56.6572 129.456Z" fill="#F78214" />
  <path d="M424.955 169.459C428.575 168.402 427.347 162.342 427.347 159.309C427.347 152.325 429.126 142.436 426.195 136.024C425.006 133.423 424.262 130.905 421.288 129.821C414.082 127.195 408.739 132.946 406.628 139.009C403.346 148.438 402.718 160.897 404.945 170.653C405.554 173.32 405.587 176.059 407.143 178.412C411.488 184.984 420.635 181.78 423.942 175.781C425.003 173.856 424.948 171.587 424.955 169.459Z" fill="white" />
  <path d="M539.749 131.247V170.653C539.749 177.523 540.817 185.393 539.547 192.147C538.919 195.48 537.385 199.116 536.162 202.297C540.868 199.002 540.347 190.662 540.347 185.579V147.965C540.347 143.027 541.666 135.808 539.749 131.247ZM32.7417 131.845C34.3839 134.767 36.4738 134.435 39.3184 135.607C44.2907 137.654 47.583 139.606 53.0698 139.606C51.3399 138.881 49.4466 139.161 47.6889 138.458C42.5399 136.398 38.0873 133.554 32.7417 131.845Z" fill="#F78214" />
  <path d="M239.012 182.594C240.649 175.963 241.404 170.344 241.404 163.488V150.353V142.591C241.404 140.016 241.919 136.792 241.214 134.298C240.829 132.938 239.556 131.808 238.098 132.499C235.029 133.956 235.793 140.99 235.527 143.786C234.632 153.178 235.424 163.008 235.425 172.444C235.425 176.322 234.873 180.863 239.012 182.594Z" fill="white" />
  <path d="M442.294 131.845C443.71 136.945 448.281 140.769 449.311 146.228C450.11 150.46 449.271 154.728 448.419 158.813C446.679 167.153 442.658 176.222 435.615 181.608C434.047 182.807 432.063 183.32 430.336 184.247C427.04 186.018 423.347 187.996 419.574 188.455C415.804 188.913 410.187 189.309 406.522 188.269C404.216 187.615 401.522 187.153 399.299 186.342C397.043 185.518 395.778 184.466 393.267 184.385C395.624 187.903 400.181 190.198 403.976 191.811C412.936 195.621 424.568 195.465 433.819 192.091C437.426 190.776 439.833 186.209 444.087 186.506C448.074 186.784 448.621 190.355 451.387 192.384C454.754 194.853 462.775 193.349 466.807 193.341C468.238 193.338 470.565 193.684 471.571 192.384C472.48 191.21 471.996 189.356 471.463 188.138C469.942 184.662 468.017 181.607 467.207 177.818C466.575 174.858 466.959 171.856 466.754 168.862C466.398 163.679 465.998 158.557 466.221 153.338C466.326 150.887 468.335 148.569 467.745 146.174C466.924 142.832 463.344 140.454 460.23 139.606C458.194 148.729 458.94 158.348 459.579 167.668C459.751 170.178 459.208 172.968 459.822 175.421C460.538 178.279 463.46 182.991 465.611 184.982C462.823 186.985 457.74 188.215 454.252 187.932C452.531 187.793 450.472 187.048 450.33 185.024C450.078 181.425 454.05 176.898 455.121 173.537C456.13 170.373 455.447 166.186 455.447 162.891C455.447 156.326 456.647 148.438 455.242 142.021C454.692 139.51 452.943 139.135 450.664 139.009C449.489 135.588 445.858 132.338 442.294 131.845Z" fill="#146139" />
  <path d="M484.146 131.845C484.46 133.363 484.671 133.955 485.939 134.83C485.426 133.658 484.962 132.818 484.146 131.845Z" fill="#F78214" />
  <path d="M184.605 133.039C185.549 135.39 186.702 138.117 188.79 139.606C187.92 137.017 187.05 134.428 184.605 133.039ZM93.1282 134.233C92.8431 139.793 90.6506 145.493 89.5164 150.95C88.7009 154.874 88.943 158.907 88.943 162.891H90.1388C90.0372 160.525 89.3711 158.118 89.6204 155.75C90.0252 151.898 91.2652 147.622 92.064 143.786C92.7067 140.696 94.3892 137.321 93.1282 134.233Z" fill="#F78214" />
  <path d="M136.774 134.83C136.779 136.722 136.834 138.388 137.372 140.203C137.8 138.419 137.502 136.514 136.774 134.83Z" fill="#F78214" />
  <path d="M270.701 136.621C269.73 148.908 270.103 161.298 270.103 173.638H271.298V148.562C271.298 144.888 272.132 140.028 270.701 136.621Z" fill="white" />
  <path d="M127.208 139.009C128.655 138.431 129.303 138.535 130.795 139.009C130.292 136.667 127.711 136.667 127.208 139.009Z" fill="#F78214" />
  <path d="M617.475 139.009C622.066 140.932 628.577 139.524 633.02 137.815C630.813 137.202 628.679 138.5 626.443 138.829C623.513 139.261 620.428 139.009 617.475 139.009ZM100.303 137.815C99.7134 138.698 99.7051 138.533 99.7051 139.606C100.476 138.745 100.543 138.869 100.303 137.815Z" fill="#F78214" />
  <path d="M127.806 137.815L127.208 140.8H130.795C130.237 138.933 129.675 138.373 127.806 137.815Z" fill="white" />
  <path d="M406.421 137.815C402.371 146.903 403.431 157.35 403.431 167.071C404.424 164.707 404.029 161.852 404.029 159.309C404.029 154.946 404.214 150.505 404.737 146.174C405.068 143.429 407.08 140.493 406.421 137.815ZM54.8635 139.606C57.4237 141.832 61.1407 141.978 64.4297 141.994C69.8107 142.02 75.1917 141.994 80.5726 141.994C76.1698 140.15 69.7748 141.591 65.0276 141.374C61.5114 141.213 58.4162 139.646 54.8635 139.606Z" fill="#F78214" />
  <path d="M551.707 140.8C553.769 141.295 556.133 140.804 558.284 140.8H572.035H617.475V139.606H572.035C565.861 139.606 557.347 138.09 551.707 140.8Z" fill="#F78214" />
  <path d="M127.208 140.8C128.435 141.322 129.448 141.369 130.795 141.397C129.568 140.876 128.555 140.828 127.208 140.8ZM188.79 140.8L189.388 143.786C189.777 142.452 189.578 141.95 188.79 140.8ZM550.511 141.397V176.624C550.511 182.322 551.442 188.944 550.306 194.535C549.938 196.34 548.814 197.662 548.103 199.312C547.068 201.715 546.62 204.566 545.728 207.073C551.572 202.053 551.109 193.155 551.109 186.176V157.518C551.109 152.248 550.48 146.546 551.707 141.397H550.511ZM80.5726 141.994C80.147 144.138 78.825 145.857 78.3617 147.965C77.8242 150.413 78.1811 153.232 78.1811 155.727C78.1811 162.225 77.2048 171.346 83.5621 175.429C82.4034 171.766 79.9347 168.416 79.0289 164.683C78.3055 161.7 78.7778 158.181 78.779 155.13C78.7796 153.602 78.6229 151.934 79.0833 150.455C80.0507 147.35 82.0028 145.399 80.5726 141.994ZM322.119 141.994C321.411 143.384 320.79 144.688 320.325 146.174C321.784 144.928 322.54 143.751 323.314 141.994H322.119Z" fill="#F78214" />
  <path d="M161.287 142.592V162.294C161.287 166.438 160.929 170.761 161.864 174.83C162.584 177.966 165.272 179.389 166.902 182.006C167.571 183.082 168.563 184.56 167.875 185.849C167.071 187.358 164.589 187.828 163.072 187.935C158.687 188.244 154.802 186.992 150.525 186.773C153.376 196.611 168.418 193.341 176.235 193.341C176.153 189.973 174.916 185.62 171.451 184.385C171.337 180.51 168.834 177.488 168.518 173.638C168.287 170.823 168.128 167.443 168.78 164.683C169.263 162.643 170.61 160.872 170.497 158.712C170.247 153.921 167.163 149.585 166.07 144.98C164.014 144.651 162.766 144.055 161.287 142.592Z" fill="#146139" />
  <path d="M207.923 143.189C207.25 144.783 206.131 150.236 203.737 148.562C199.052 158.646 195.879 169.418 191.059 179.356C189.664 182.231 187.48 184.188 185.801 186.774C184.691 186.148 184.041 185.87 182.811 185.579C183.887 186.969 185.716 190.381 187.594 189.162C193.46 194.235 197.654 185.451 199.701 180.78C201.312 177.102 202.432 173.068 204.223 169.494C205.369 167.209 208.013 166.41 209.125 164.074C209.984 162.27 209.716 160.054 209.716 158.115C209.716 153.429 210.781 147.195 207.923 143.189Z" fill="#146139" />
  <path d="M118.837 143.786L118.24 150.353C119.335 148.295 119.746 145.967 118.837 143.786ZM138.568 143.786C138.577 146.969 140.362 150.865 139.571 153.9C138.58 157.704 135.401 155.375 134.98 152.741C133.704 155.888 137.175 158.542 140.001 156.307C142.557 154.285 139.806 146.109 138.568 143.786Z" fill="#F78214" />
  <path d="M98.5092 145.577C98.0555 147.774 97.4964 149.904 97.3135 152.144C98.7753 150.289 99.3858 147.819 98.5092 145.577Z" fill="#F78214" />
  <path d="M319.129 146.174C317.045 149.383 314.835 148.999 311.357 148.562C315.208 151.536 318.16 150.328 320.325 146.174H319.129ZM191.182 147.368L191.78 149.756C192.11 148.557 191.961 148.364 191.182 147.368Z" fill="#F78214" />
  <path d="M123.022 155.727C125.601 152.027 125.413 149.289 130.795 149.159C125.395 146.897 123.599 151.202 123.022 155.727Z" fill="#F78214" />
  <path d="M117.044 150.95C115.903 155.748 117.62 157.462 122.425 156.324C120.843 155.837 119.3 156.197 117.641 156.324C117.68 154.486 117.903 152.756 118.239 150.95H117.044Z" fill="#F78214" />
  <path d="M98.5091 165.877C99.1877 168.314 100.494 169.987 102.694 171.25C101.612 169.134 100.3 167.441 98.5091 165.877ZM91.9324 167.668C92.2534 170.069 93.0654 171.49 94.9218 173.041C94.2546 171.015 93.2495 169.346 91.9324 167.668ZM404.029 168.265C404.031 171.689 404.761 174.578 405.823 177.818C406.467 175.095 405.467 170.658 404.029 168.265Z" fill="#F78214" />
  <path d="M106.282 174.235C107.182 174.643 107.666 174.729 108.673 174.832C107.773 174.425 107.289 174.339 106.282 174.235Z" fill="#F78214" />
  <path d="M109.271 174.832C110.784 176.928 112.811 176.622 115.25 176.624C119.045 176.625 122.898 176.338 126.61 177.221C125.214 175.071 123.025 175.431 120.631 175.429C116.798 175.428 113.052 175.533 109.271 174.832ZM83.562 175.429C84.5479 179.267 87.1404 183.195 90.7366 184.982C88.6512 181.635 86.451 178.136 83.562 175.429Z" fill="#F78214" />
  <path d="M99.7051 178.415C101.135 179.917 102.468 180.363 104.488 180.803C103.028 179.272 101.802 178.694 99.7051 178.415Z" fill="#F78214" />
  <path d="M198.954 181.997L197.16 187.371C198.901 185.837 199.831 184.271 198.954 181.997ZM111.663 182.594C113.615 184.071 115.854 183.788 118.239 183.788C116.177 182.555 114.022 182.601 111.663 182.594Z" fill="#F78214" />
  <path d="M118.837 184.385V192.744C119.834 190.373 119.834 186.757 118.837 184.385ZM90.7366 184.982C91.5575 186.503 92.0627 186.886 93.726 187.371L92.5302 184.982H90.7366Z" fill="#F78214" />
  <path d="M93.7261 187.371V189.759H97.3134C96.175 188.634 95.2005 187.996 93.7261 187.371Z" fill="#F78214" />
  <path d="M444.685 187.371C445.903 188.991 447.134 190.499 448.871 191.55C448.062 189.231 447.007 188.178 444.685 187.371Z" fill="#F78214" />
  <path d="M435.119 192.147C437.298 191.577 439.164 190.309 441.098 189.162C438.758 188.772 436.388 190.212 435.119 192.147Z" fill="#F78214" />
  <path d="M97.9114 189.759C100.463 192.626 104.445 191.349 106.869 194.227C109.526 197.38 110.906 202.461 113.08 206.049C114.055 207.659 114.231 209.025 115.848 210.059C114.634 205.627 112.265 201.158 110.434 196.923C109.765 195.377 109.408 193.139 107.894 192.164C106.389 191.195 104.364 191.719 102.694 191.371C101.043 191.028 99.5508 190.165 97.9114 189.759Z" fill="#F78214" />
  <path d="M244.394 193.938C246.761 194.93 249.619 194.535 252.166 194.535H266.515H317.336C319.258 194.535 321.417 194.787 323.291 194.278C326.165 193.5 327.266 191.724 330.489 192.147C327.271 188.972 325.407 192.951 322.11 193.751C318.283 194.68 313.492 193.938 309.563 193.938H244.394Z" fill="#F78214" />
  <path d="M186.398 190.953C188.502 192.672 190.925 192.722 193.573 192.744V191.55C191.121 191.548 188.812 191.4 186.398 190.953Z" fill="#F78214" />
  <path d="M206.727 191.55C207.753 192.649 208.261 192.952 209.716 193.341C208.722 192.444 207.985 192.028 206.727 191.55Z" fill="#F78214" />
  <path d="M119.435 192.744L120.033 195.729C120.422 194.395 120.223 193.894 119.435 192.744ZM512.247 193.341C512.993 193.75 513.172 193.788 514.04 193.938C513.294 193.529 513.114 193.491 512.247 193.341ZM212.706 193.938C215.073 194.93 217.931 194.535 220.478 194.535H236.023C233.656 193.543 230.798 193.938 228.251 193.938H212.706ZM426.749 193.938C428.311 194.594 429.837 194.531 431.532 194.535C429.97 193.88 428.444 193.942 426.749 193.938ZM127.208 194.535C128.098 198.319 130.821 202.379 134.382 204.088C132.506 200.8 129.871 197.242 127.208 194.535ZM415.389 195.729C417.441 196.589 419.754 196.326 421.966 196.326C419.914 195.467 417.601 195.729 415.389 195.729ZM528.389 198.715C527.857 199.756 527.521 200.58 527.194 201.7C528.241 200.751 528.864 199.936 529.585 198.715H528.389Z" fill="#F78214" />
  <path d="M123.62 202.894C124.563 205.111 125.643 206.574 127.806 207.67C126.612 205.768 125.406 204.261 123.62 202.894Z" fill="#F78214" />
  <path d="M140.959 206.476C144.078 207.783 148.362 207.073 151.721 207.073H173.843H250.97H518.823C515.705 205.766 511.421 206.476 508.061 206.476H485.94H408.812H140.959ZM128.404 208.267C129.412 209.256 130.045 209.611 131.393 210.059C130.385 209.07 129.751 208.715 128.404 208.267ZM543.337 208.267C541.869 211.17 539.936 213.729 537.185 215.557C534.474 217.358 530.807 218.21 529.585 221.403C535.878 218.587 541.601 214.633 544.532 208.267H543.337Z" fill="#F78214" />
  <path d="M115.848 210.059C116.251 211.43 116.425 211.715 117.642 212.447C117.068 211.493 116.61 210.859 115.848 210.059ZM520.617 213.641C522.875 213.025 525.056 212.203 527.194 211.253C524.675 210.678 522.317 211.803 520.617 213.641ZM133.187 211.253C135.592 213.776 139.368 214.195 142.753 214.236C148.132 214.3 153.516 214.238 158.896 214.238H230.642H518.823C515.705 212.931 511.421 213.641 508.061 213.641H485.342H406.421H230.642H172.049C162.322 213.641 152.467 214.105 142.753 213.617C139.347 213.446 136.596 211.437 133.187 211.253Z" fill="#F78214" />
  <path d="M118.24 213.044C119.193 215.861 122.368 217.492 124.816 219.014C123.426 216.28 120.809 214.642 118.24 213.044ZM128.404 221.403C129.96 222.335 131.38 222.514 133.187 222.597C131.641 221.541 130.267 221.446 128.404 221.403ZM133.187 222.597C134.293 225.345 136.494 224.984 139.166 224.985H153.515H218.087H451.262H507.464H519.421C522.133 224.98 524.447 225.051 525.998 222.597C515.8 225.984 503.822 224.388 493.114 224.388H432.13H226.457H157.7H141.557C139.042 224.388 136.464 224.883 134.98 222.597H133.187Z" fill="#F78214" />
</svg>
