<svg xmlns="http://www.w3.org/2000/svg" viewBox="0 0 716 280">
  <path d="M545.453 13.9386C537.574 12.9426 531.282 11.2765 524.117 15.6904C521.752 17.1476 519.874 18.0055 519.038 20.8308C515.17 21.4819 511.856 26.8854 511.573 30.5948C514.04 29.1609 514.759 26.6626 516.659 24.6673C519.666 21.5091 523.612 16.5212 527.726 14.8422C530.465 13.7239 533.943 13.9386 536.839 13.9386C538.843 13.9386 541.23 13.6249 543.058 14.6135C551.437 19.1434 548.821 27.0008 548.917 34.6068C548.947 36.9682 550.303 40.6204 553.331 39.9812C562.165 38.1164 565.58 28.0016 568.741 20.8822C569.999 18.0479 572.474 15.7203 574.075 13.1027C574.882 11.787 574.98 10.2687 575.973 9.02423C578.253 6.16148 581.227 6.36067 584.403 5.33832C588.962 3.87062 593.045 3.99709 597.708 3.16457C602.399 2.32705 606.006 0.728456 610.915 0.728456C606.138 -1.27691 601.268 1.41952 596.559 2.11822C590.461 3.0238 584.053 1.84948 578.368 4.9971C575.301 6.69615 574.331 9.8896 572.755 12.6923C570.697 16.3462 568.504 19.2811 566.818 23.1282C564.663 28.0458 561.519 32.1561 557.724 35.8947C556.144 37.4517 553.559 38.9213 551.378 37.471C549.769 36.4017 549.989 33.9889 550.144 32.3178C550.473 28.782 551.406 24.3822 550.372 20.8906C549.587 18.239 546.589 16.5562 545.453 13.9386Z" fill="#FB7F14" />
  <path d="M242.832 87.4556C237.574 87.347 232.524 86.3149 227.328 87.9369C223.567 89.1109 219.74 92.7856 215.843 92.9768C213.923 93.071 212.015 92.2422 210.101 92.1021C205.585 91.7713 200.239 92.171 195.745 92.731C192.744 93.1049 190.11 94.8119 187.132 95.3093C184.383 95.7688 181.151 94.8441 178.527 95.8429C173.903 97.6027 174.921 105.068 170.468 106.227C166.696 107.209 165.455 104.56 162.365 103.717C156.129 102.017 150.654 101.053 144.064 101.249C141.063 101.338 138.398 102.723 135.451 103.198C133.275 103.548 130.731 103.132 128.657 103.861C127.348 104.321 126.372 105.39 125.092 105.919C120.496 107.818 116.395 109.28 111.333 109.281V107.558C107.422 107.557 104.559 107.437 102.719 103.537C106.862 101.472 108.628 96.431 112.481 94.3478C112.586 91.1073 115.049 89.3423 115.318 86.2983C115.623 82.8665 115.952 78.1804 115.173 74.8199C114.641 72.5305 113.236 70.9303 113.055 68.502C109.144 67.3918 105.745 64.0169 101.571 63.4178C98.5911 62.9905 96.3539 64.628 93.5315 64.9795C88.7861 65.5711 83.9016 65.1403 79.1757 65.7365C76.9184 66.0213 75.059 67.3424 72.8591 67.7708C68.4898 68.6209 64.0234 68.0637 59.6518 68.6082C57.2441 68.908 55.1368 70.1969 52.761 70.6104C48.9927 71.2669 45.0711 70.4697 41.2786 70.8993C38.9998 71.1578 37.1459 72.4058 34.9513 72.9245C31.3039 73.786 27.6998 73.2817 24.0493 73.7797C21.971 74.0634 20.3153 75.3293 18.307 75.8049C16.2318 76.2965 12.9209 75.8169 11.1658 77.1328C8.25011 79.3187 10.9404 83.3116 12.449 85.3202C16.5306 90.7535 21.3498 97.0289 16.7833 103.527C15.7046 105.061 14.9156 105.877 13.1389 106.409C11.7803 111.706 7.94726 115.885 5.67829 120.768C3.2628 125.966 2.80271 130.566 2.80271 136.276H1.08001C1.08001 142.074 0.6608 149.121 2.88468 154.603C4.32177 158.146 7.79199 160.715 8.54504 164.419C12.2112 166.069 15.8263 168.642 19.2711 170.73C20.3918 171.41 21.1364 172.465 22.4325 172.861C24.9846 173.638 27.795 173.238 30.3659 173.847C33.0126 174.473 35.011 175.823 37.8309 175.897C41.0766 175.983 46.1625 174.893 49.118 176.399C53.0148 178.384 49.9898 182.606 49.0772 185.193C48.5091 186.803 48.687 188.955 50.5491 189.508C52.2636 190.016 54.4357 189.69 56.2064 189.69C63.5715 189.69 70.5237 187.547 76.7151 183.456C79.8791 181.366 83.4514 176.859 87.2127 176.097C89.6124 175.61 91.1008 177.181 92.6409 178.732C95.6809 181.794 99.24 184.809 100.422 189.116C106.655 189.904 114.798 190.854 120.997 189.532C123.433 189.013 125.435 187.482 127.985 187.071C130.977 186.589 134.126 187.28 137.076 186.661C139.693 186.112 141.899 184.514 144.638 184.119C147.497 183.707 150.387 184.072 153.252 183.607C157.18 182.97 160.71 181.556 164.736 181.173C167.204 180.938 169.753 181.351 172.201 180.946C174.228 180.612 175.928 179.358 177.944 178.973C181.335 178.325 184.917 179.317 188.28 178.458C190.668 177.847 192.687 176.449 195.171 176.079C198.775 175.542 202.492 176.334 206.081 175.637C208.58 175.151 210.444 173.28 212.981 173.067C215.295 172.873 219.583 172.36 221.236 174.365C223.002 176.506 219.803 182 219.152 184.469C218.707 186.152 217.526 187.474 216.987 189.125C216.439 190.806 216.56 192.609 216.017 194.285C214.707 198.324 212.692 202.243 211.566 206.346C210.667 209.627 209.04 215.811 206.047 217.711C202.941 219.684 198.767 220.084 195.171 220.129C192.036 220.168 188.319 220.275 186.906 223.741C184.817 228.867 192.144 235.246 194.696 239.085C195.759 240.682 198.075 243.135 196.866 245.165C192.762 252.057 182.433 247.405 177.716 252.798C175.554 255.269 178.094 258.231 179.78 260.091C183.704 264.423 187.792 268.627 191.88 272.825C193.681 274.674 195.633 277.458 198.14 278.374C200.94 279.398 203.465 277.207 206.081 276.641C209.632 275.875 213.399 276.81 216.983 276.309C219.49 275.958 221.361 274.125 223.883 273.721C227.295 273.175 230.798 273.848 234.219 273.293C236.85 272.866 239.102 271.477 241.684 270.949C244.894 270.293 248.217 270.996 251.446 270.566C253.695 270.266 255.543 268.872 257.762 268.505C261.16 267.944 264.698 268.791 268.098 268.228C271.243 267.707 274.103 266.1 277.286 265.671C280.122 265.289 283.103 265.907 285.9 265.278C288.149 264.774 289.927 263.148 292.216 262.762C295.605 262.19 299.143 262.951 302.552 262.527C305.285 262.186 307.437 260.413 310.068 259.912C313.593 259.242 317.341 259.736 320.928 259.133C322.915 258.799 324.656 257.737 326.67 257.526C329.892 257.188 333.23 257.866 336.432 257.335C338.77 256.948 340.509 255.188 342.8 254.744C346.154 254.092 349.7 254.926 353.085 254.419C355.5 254.058 357.18 252.43 359.453 251.894C362.954 251.07 366.759 252.262 370.287 251.589C372.348 251.196 373.422 249.265 375.505 248.933C379.242 248.338 383.194 249.116 386.965 248.795C389.591 248.571 391.842 247.126 394.43 246.726C397.832 246.199 401.354 246.994 404.743 246.467C407.259 246.075 409.008 244.081 411.657 243.779C415.237 243.371 418.999 244.199 422.545 243.548C424.44 243.201 425.836 241.805 427.744 241.442C431.373 240.752 435.03 241.168 438.646 240.635C441.41 240.227 443.887 238.793 446.685 238.564C449.737 238.314 452.829 238.755 455.873 238.344C458.734 237.957 461.114 236.327 463.912 235.827C466.745 235.322 469.675 235.861 472.525 235.472C475.229 235.103 477.374 233.483 479.99 232.964C483.184 232.331 486.534 233.082 489.752 232.659C492.451 232.303 494.636 230.525 497.268 230.044C501.002 229.362 504.938 230.257 508.702 229.789C511.279 229.468 513.594 228.149 516.167 227.77C519.896 227.221 523.888 227.597 527.652 227.597V225.3C532.335 225.204 538.001 225.417 542.581 224.53C544.904 224.081 546.586 222.246 548.921 221.93C552.309 221.473 555.88 222.381 559.234 221.628C561.484 221.123 563.262 219.497 565.551 219.111C569.315 218.476 573.253 219.376 577.036 218.906C579.585 218.589 581.917 217.306 584.501 216.931C587.366 216.515 590.289 216.916 593.114 216.192C595.118 215.678 596.824 214.413 598.857 214.01C602.417 213.304 606.172 214.189 609.761 213.705C611.622 213.454 613.172 212.421 614.958 211.913C618.8 210.815 622.538 211.32 626.42 210.835C628.849 210.532 630.91 209.13 633.31 208.766C635.55 208.427 638.484 209.11 640.374 207.531C643.917 204.569 645.53 198.385 647.316 194.337C649.441 189.517 653.093 185.026 654.379 179.875C654.839 178.028 654.35 176.061 654.643 174.194C654.902 172.54 655.958 171.82 656.762 170.475C658.117 168.209 657.704 166.355 660.299 164.993C660.414 161.409 662.585 158.91 662.596 155.229C660.73 155.23 658.738 155.077 656.952 155.717C655.309 156.307 653.994 157.482 652.26 157.875C649.464 158.506 646.483 157.879 643.647 158.201C641.689 158.424 640.247 159.419 638.427 160.005C635.992 160.789 631.749 160.918 630.732 157.992C629.607 154.74 631.932 153.213 632.966 150.537C633.523 149.106 633.173 147.505 633.603 146.042C634.068 144.477 635.297 143.357 635.86 141.855C636.48 140.215 636.584 138.498 637.284 136.85C638.036 135.081 639.954 129.823 638.111 128.251C635.59 126.108 628.849 128.196 625.845 128.232C621.923 128.281 619.196 129.921 615.509 130.45C611.53 131.02 607.395 130.604 603.45 131.191C601.55 131.474 600.126 132.796 598.282 133.224C596.405 133.66 594.423 133.164 592.54 133.577C589.933 134.15 587.159 135.185 584.552 135.883C581.096 136.808 577.771 139.627 574.842 141.576C573.582 142.414 571.828 143.5 570.328 142.566C567.951 141.089 570.125 136.652 570.476 134.552C570.947 131.728 572.515 129.753 573.262 127.086C573.736 125.395 573.394 123.595 573.911 121.917C575.049 118.225 578.064 115.341 581.653 114.025C584.788 112.876 588.147 113.525 591.391 113.247C594.062 113.019 596.215 111.344 598.857 111.066C602.819 110.649 606.924 111.502 610.864 110.922C613.465 110.538 615.705 108.757 618.38 108.319C621.751 107.766 625.409 108.761 628.717 107.846C630.6 107.324 632.018 105.819 633.936 105.418C637.646 104.644 641.625 105.68 645.369 105.14C647.77 104.794 649.86 103.429 652.26 103.084C655.648 102.596 659.249 103.528 662.596 102.79C664.664 102.332 666.266 100.79 668.339 100.318C671.112 99.6864 674.133 100.238 676.952 100.04C679.663 99.8501 681.85 98.7399 684.417 98.0782C685.859 97.7066 687.415 97.9869 688.827 97.501C692.778 96.1364 696.051 89.8317 697.309 86.1432C698.193 83.5506 697.762 81.9412 700.496 80.5634C700.576 78.0155 701.024 76.5751 703.367 75.3942C704.619 67.4831 709.471 59.4927 713.146 52.4178C714.03 50.7254 716.35 45.9722 713.933 44.4572C712.227 43.3924 708.087 45.9994 706.238 46.381C702.839 47.0823 699.324 46.2325 695.925 46.7613C694.334 47.0089 693.301 48.1225 691.831 48.6385C688.799 49.7026 679.611 50.9707 677.297 48.2171C674.713 45.1381 678.686 42.6267 679.163 39.7617C679.973 34.88 682.735 29.4509 681.362 24.3744C680.903 22.6666 679.421 21.2866 678.675 19.6821H676.378V16.8103C673.49 16.8103 670.044 16.2983 667.242 17.0509C665.468 17.5277 664.354 19.1255 662.545 19.5225C659.748 20.1349 656.779 19.262 653.983 19.9205C651.772 20.4408 649.912 21.8791 647.666 22.3358C644.652 22.9493 641.511 22.2287 638.479 22.7408C636.256 23.1171 634.367 24.5038 632.139 24.7768C629.544 25.0951 626.787 24.4425 624.22 25.0108C622.32 25.4323 620.855 26.905 618.955 27.4026C616.417 28.0663 613.517 27.722 610.915 27.723C605.351 27.7251 600.889 30.621 595.411 30.5943C593.66 30.5857 590.57 30.6817 590.346 28.2721C590.128 25.9914 593.631 23.0439 594.848 21.2496C599.592 14.2613 608.997 9.23861 611.49 0.728437C609.032 0.728437 606.442 0.508805 604.025 1.00367C601.642 1.49089 599.551 2.73338 597.134 3.16455C592.488 3.99392 588.423 3.91672 583.875 5.3383C580.986 6.24153 578.092 6.02959 575.973 8.55886C574.94 9.79108 574.854 11.2968 574.075 12.6414C572.629 15.1454 570.419 17.2943 568.993 19.846C566.458 24.3832 565.109 29.3789 561.879 33.622C560.196 35.8334 555.494 40.3438 552.323 39.7627C550.346 39.4004 549.159 36.9634 548.981 35.1669C548.553 30.8437 550.061 26.3871 549.388 21.9878C548.067 13.3487 537.645 13.3159 531.097 14.1025C524.489 14.8963 517.997 21.7318 514.536 27.169C513.463 28.8548 511.938 30.3188 511.65 32.3692C510.916 37.5894 514.86 49.5331 506.979 51.4163C505.561 51.7553 504.552 50.7516 503.37 50.1914C502.182 49.6284 500.818 49.6104 499.663 48.9856C498.712 48.471 498.072 47.5362 497.069 47.1003C494.742 46.09 491.092 46.5891 488.604 46.6992C485.029 46.8574 482.239 48.64 478.842 49.3303C476.571 49.7918 474.202 49.2674 471.951 49.8745C470.122 50.3679 468.612 51.5997 466.783 52.0939C465.344 52.4827 463.718 52.1841 462.338 52.7642C461.31 53.1961 460.703 54.1811 459.743 54.7129C457.804 55.7875 454.038 57.0057 451.853 57.429C448.591 58.062 447.546 56.0127 444.856 55.0409C442.336 54.1305 437.82 54.3884 435.2 54.8485C432.022 55.4056 429.352 57.0299 426.012 57.4256C422.711 57.8162 418.984 56.9294 415.774 57.7696C413.829 58.2785 412.555 59.9591 410.508 60.3301C407.489 60.8763 404.294 59.9436 401.32 60.8562C396.654 62.2881 392.037 63.6257 387.539 65.6021C385.384 66.548 383.133 68.7202 380.67 68.7064C378.662 68.6961 377.299 66.6658 375.471 66.034C373.401 65.3178 370.759 65.5492 368.598 65.6411C366.315 65.7388 364.948 67.1264 362.838 67.6812C358.697 68.7696 353.322 68.8316 349.066 68.4681C346.454 68.2452 344.725 66.227 342.166 65.8054C339.04 65.2896 334.343 65.0633 331.286 65.9587C329.577 66.459 328.382 67.8983 326.648 68.3222C324.462 68.8563 322.013 67.9908 319.944 69.0694C314.227 72.0509 315.719 80.371 310.493 83.6827C308.082 85.211 306.707 83.4001 304.685 82.2824C302.165 80.8885 298.54 79.5129 295.662 79.4233C286.77 79.1476 278.464 79.541 269.919 81.8901C268.555 82.2652 267.598 83.3099 266.353 83.9199C264.923 84.6212 263.312 84.6235 261.833 85.1674C259.793 85.9181 258.176 87.0128 256.039 87.6021C251.996 88.7169 244.768 93.9751 242.832 87.4556Z" fill="white" />
  <path d="M611.49 0.728455C609.319 5.2949 604.547 8.62068 602.876 13.3642C605.65 11.0861 607.78 8.29359 609.807 5.3521C610.892 3.78068 612.11 2.64713 611.49 0.728455ZM586.798 9.91809V11.6411C584.713 11.6411 582.072 11.2191 580.154 12.1801C576.519 13.9981 575.393 18.5926 573.458 21.8328C572.319 23.7402 570.781 25.1312 569.828 27.2001C568.732 29.5811 563.035 37.9515 569.007 37.9944C575.904 38.044 578.293 32.5308 582.21 28.2074C584.719 25.4383 587.642 23.2086 589.899 20.1589C591.604 17.8553 595.71 12.0361 591.357 10.2646C589.985 9.70546 588.25 9.91924 586.798 9.91809Z" fill="#FB7F14" />
  <path d="M601.728 13.3642C599.109 16.3237 595.928 17.8756 594.837 21.9795L598.857 19.6821C599.574 17.2043 601.573 15.5736 602.876 13.3642H601.728Z" fill="#FB7F14" />
  <path d="M590.817 29.446C591.569 26.7882 593.654 24.5367 594.837 21.9795C592.046 23.6078 586.941 30.0128 593.114 30.5611C598.271 31.0187 601.561 28.9761 606.327 27.9978C609.474 27.3532 612.891 27.7602 616.083 27.7208C619.724 27.6758 621.946 25.3795 625.294 24.9279C627.901 24.5757 630.617 25.2044 633.213 24.7001C635.441 24.2673 637.318 22.9404 639.627 22.6597C642.475 22.3133 645.421 22.91 648.24 22.3358C650.486 21.8791 652.346 20.4408 654.557 19.9205C657.336 19.2661 660.299 20.1566 663.067 19.5225C664.853 19.1126 665.996 17.5155 667.787 17.051C670.446 16.36 673.644 16.8103 676.378 16.8103C671.405 14.7234 666.225 17.1045 661.448 18.263C659.007 18.8544 656.452 18.2231 654.006 18.7306C651.927 19.1616 650.336 20.6787 648.24 21.1282C644.875 21.8498 641.321 21.3288 637.904 21.9356C635.314 22.3958 633.023 23.8787 630.439 24.2007C627.591 24.5552 624.651 23.9195 621.826 24.4949C619.58 24.9516 617.72 26.3899 615.509 26.9102C612.546 27.6087 609.336 26.9204 606.321 27.2483C603.875 27.5143 601.796 28.7222 599.431 29.2223C596.686 29.8024 593.614 29.446 590.817 29.446Z" fill="#FB7F14" />
  <path d="M676.378 17.3847V19.6821H678.675C679.197 21.5226 680.53 22.641 681.201 24.3744C681.936 26.2657 681.718 29.2379 681.224 31.1691C680.817 32.7671 679.863 34.1579 679.49 35.7639C679.14 37.2516 679.45 38.8631 678.904 40.3073C677.934 42.8854 675.361 44.6006 676.722 47.7402C677.848 50.3303 682.143 49.5956 684.417 49.54C686.812 49.4812 690.102 49.4548 692.359 48.6385C693.84 48.1034 694.868 47.0078 696.482 46.7613C700.473 46.153 704.515 46.8488 708.535 46.1023C706.646 45.3642 704.791 45.9923 702.793 46.0796C699.996 46.2021 696.918 45.6784 694.179 46.3424C691.256 47.0504 689.281 48.3827 686.14 48.3992C684.096 48.41 680.013 49.1445 678.457 47.4787C676.774 45.6745 679.548 42.3298 679.955 40.3587C681.621 32.2041 686.49 22.1343 676.378 17.3847Z" fill="#FB7F14" />
  <path d="M516.741 42.6562C517.866 38.8521 515.116 35.2047 517.475 31.1922C518.073 30.1752 520.035 27.6613 521.466 28.8039C522.624 29.7292 521.832 32.7145 522.136 34.0383C522.731 36.629 525.74 38.9772 528.277 39.6045C532.006 40.5268 534.491 37.4832 537.988 37.487C535.21 42.186 531.625 47.123 525.355 45.945C522.782 45.4617 520.43 43.9257 517.89 43.2305C519.1 44.7343 520.273 46.231 521.909 47.251C519.052 48.4942 516.347 49.6262 514.233 52.0612C510.415 56.4613 509.503 63.7757 507.804 69.0764C505.958 74.836 502.96 79.4865 502.959 85.7326C500.227 86.3805 498.239 88.5021 495.494 89.0564C493.083 89.5434 489.937 90.131 487.506 89.5813C485.426 89.1104 483.933 87.6997 481.712 87.5096C477.284 87.1306 473.316 90.0247 469.088 89.6451C466.559 89.4182 464.604 87.0846 462.189 86.3069C462.966 82.6839 463.99 77.5033 465.737 74.2708C467.781 70.4876 470.763 71.8723 472.525 74.8199C474.161 70.4927 468.557 71.4628 467.789 68.4176C466.802 64.5114 474.058 63.0359 476.363 64.9083C478.235 66.4292 477.484 68.7697 479.99 69.6507V72.5225C481.711 73.1474 482.317 73.6425 482.861 75.3943C487.314 75.3943 490.721 75.1622 494.92 73.6712C492.682 78.8926 485.43 83.5518 479.588 81.2705C476.822 80.1907 475.254 77.2506 473.099 75.3943C474.273 80.6599 478.468 82.2865 483.436 82.2865C490.353 82.2865 496.363 78.5113 498.94 71.9481C498.927 71.9481 497.814 72.3071 497.983 71.7569C498.285 70.769 499.125 70.0815 499.418 69.0764C499.929 67.3246 498.894 65.7945 500.088 64.4816C499.465 62.2634 499.93 57.8156 498.571 56.1586C494.078 50.6824 486.122 54.69 480.564 54.717C477.592 54.7319 474.289 54.3121 471.377 54.9818C468.605 55.6193 466.072 57.1247 463.337 57.9179C460.781 58.6588 457.845 58.9241 455.542 60.3238C449.937 63.7292 445.886 68.5646 441.605 73.3323C437.399 78.0162 435.693 81.823 435.102 88.03C434.8 91.2033 434.346 93.6753 435.774 96.6453C431.004 97.4953 428.051 95.1106 428.999 90.3274C430.319 83.6695 433.671 78.2195 435.797 71.9487C436.339 70.3526 438.73 67.092 437.47 65.474C436.596 64.3506 434.733 64.5011 433.477 64.4839C431.671 64.4586 429.516 64.2042 427.786 64.8176C426.101 65.4155 424.944 66.7784 423.132 67.1557C418.04 68.216 413.08 65.6866 408.213 66.3356C406.291 66.5923 405.214 67.6784 403.85 68.919C402.812 69.8632 401.397 70.5594 400.538 71.6776C398.877 73.8406 399.3 78.0311 399.598 80.5634C402.296 81.0648 404.898 81.1378 407.637 81.1378C407.272 86.466 403.672 91.4847 402.331 96.6453C401.692 99.1058 402.021 101.822 399.012 102.625C395.533 103.555 393.58 100.026 390.41 99.517V94.9222C391.371 95.7326 392.115 96.1714 393.281 96.6453C393.127 93.0648 392.16 90.3033 390.174 87.3247C388.97 85.5201 386.768 84.5879 385.78 82.6857C385.04 81.2624 385.425 79.2568 383.911 78.2844C381.044 76.4442 377.879 80.3624 375.967 81.9677C372.738 84.6787 369.359 88.1058 367.679 92.0505C366.765 94.1968 366.556 96.8365 365.977 99.1064C364.994 102.959 364.311 106.825 369.163 106.984C364.845 109.623 360.416 111.364 355.382 110.43C358.98 104.89 360.208 98.8112 361.991 92.6248C362.77 89.9213 364.322 88.0691 364.612 85.1582C364.897 82.2916 366.293 77.25 362.272 76.331C359.709 75.7458 357.576 79.2332 355.381 80.1993C349.755 82.6759 344.737 83.0125 338.729 83.3266C334.741 83.5351 332.959 79.8104 329.491 78.8237C328.14 78.4395 326.801 79.0293 325.521 79.4147V77.1173C326.702 76.837 327.327 76.5705 328.393 75.9686C324.169 70.9631 319.653 78.6405 317.442 82.043C315.656 84.7901 316.271 87.4275 315.145 90.3274C311.947 98.5636 308.362 106.919 306.572 115.599C309.325 115.509 310.937 114.921 311.74 112.153H314.037L314.611 114.45C320.801 113.096 320.012 108.034 321.717 102.986C323.296 98.3138 325.922 92.4812 328.967 88.6043V92.6248C332.273 92.6248 335.468 92.5938 338.729 93.1992C338.018 95.4426 338.007 97.9215 337.237 100.091C336.788 101.356 335.84 102.33 335.288 103.537C334.537 105.182 334.851 107.009 334.308 108.707C333.012 112.758 330.753 117.473 333.812 121.444C338.225 127.171 344.617 123.095 350.213 123.066C358.316 123.024 365.304 120.237 373.183 118.996C376.322 118.501 379.664 120.359 382.942 120.168C385.106 120.042 385.913 118.918 387.687 117.973C391.833 115.766 396.462 114.283 399.023 109.855C400.743 111.117 403.394 113.14 405.46 113.696C409.454 114.772 413.018 112.821 416.825 112.273C420.633 111.725 424.474 112.041 428.307 111.326C430.187 110.975 431.705 109.86 433.528 109.453C435.209 109.078 436.968 109.463 438.645 109.035C441.077 108.414 443.038 106.625 445.536 106.108C447.444 105.713 449.365 106.303 451.278 106.387C455.283 106.562 459.376 106.344 463.337 105.755C464.964 105.513 466.337 104.614 467.931 104.284C471.456 103.552 475.246 104.127 478.842 103.478C480.648 103.152 482.227 102.213 484.01 101.8C487.934 100.889 492.082 101.188 496.069 100.566C498.623 100.167 500.951 98.9972 503.534 98.6147C506.198 98.2201 508.929 98.6687 511.573 98.219C513.959 97.8129 516.04 96.4219 518.464 96.145C521.315 95.8194 524.219 96.2587 527.077 95.9727C530.152 95.6654 532.797 94.5925 535.691 93.6586C537.506 93.0728 539.507 93.5357 541.269 92.8615C542.992 92.2027 544.13 90.8024 546.027 90.4584C551.449 89.4768 557.745 90.3274 563.254 90.3274C566.573 90.3274 571.224 91.3136 572.442 87.4557C582.479 87.4476 591.024 79.1258 594.854 70.2251C596.267 66.9524 596.41 63.2536 597.708 59.8867L599.431 60.4611C600.051 58.3607 600.005 56.3263 600.005 54.1432C598.925 54.2443 598.167 54.3948 597.134 54.7176C596.76 53.1617 596.594 51.722 596.559 50.1228L608.044 49.5484C607.631 51.2207 606.62 52.5333 606.12 54.1656C605.506 56.1517 605.747 58.4078 605.747 60.4611C602.882 61.4427 603.456 63.6643 602.543 66.107C600.47 71.6357 598.098 77.443 598.856 83.4352C601.004 83.2479 603.031 82.5122 605.173 82.3399C607.481 82.1544 609.83 82.4829 612.064 81.696C614.59 80.8075 616.382 78.8834 618.547 77.424C619.672 76.6613 621.068 76.4045 622.136 75.5533C624.634 73.5603 626.138 69.7472 626.994 66.779C625.059 67.6675 623.899 67.6945 621.826 67.3533C622.704 66.7658 622.63 66.891 622.974 66.2046C622.337 64.9922 622.061 64.5982 622.4 63.3329L621.826 61.6098C622.48 60.9907 622.905 60.5329 622.268 59.5915C621.521 58.4939 620.109 57.9868 619.27 56.9329C617.467 54.6722 616.554 51.1791 615.94 48.3997C615.411 45.9906 618.518 42.4412 617.203 40.6969C616.353 39.5655 614.447 39.7933 613.212 39.7849C609.922 39.7624 606.723 40.3177 603.45 40.3566C599.879 40.3991 596.089 40.6779 592.54 40.2529C587.642 39.6663 582.646 38.4718 577.633 39.2951C575.313 39.6771 574.394 41.9263 572.417 42.9682C570.043 44.22 566.994 43.8049 564.402 43.8049C564.969 42.9557 564.977 43.1139 564.977 42.0818C561.635 42.1809 559.237 43.8559 556.363 45.4278C550.938 48.3959 542.11 51.8895 540.859 58.738C538.366 59.1539 538.042 60.4628 537.413 62.7585C536.468 60.9878 536.287 59.5887 536.265 57.5893H537.988C537.987 52.1824 536.573 48.4712 530.523 48.3997V47.251C533.251 46.8177 534.24 45.0134 536.05 43.0891C539.896 39.0012 543.473 35.3217 543.73 29.4461H542.007C542.091 26.5754 543.89 23.3534 541.566 20.962C539.088 18.4127 535.721 20.7003 532.82 20.7772C529.471 20.8659 526.879 20.8415 523.729 22.3806C516.059 26.1294 513.566 35.1795 516.741 42.6562Z" fill="#FB7F14" />
  <path d="M651.686 32.3178C649.865 31.3164 649.544 30.3449 649.389 28.2974H645.369C645.254 32.078 643.658 34.049 640.442 35.954C639.259 36.6573 637.571 37.1137 636.773 38.3077C635.963 39.5173 636.187 41.2775 636.181 42.6562C639.512 42.4443 643.256 41.7093 646.518 40.9331C646.5 46.1425 643.618 48.8305 642.062 53.5688C641.269 56.0052 641.746 58.6708 640.821 61.0354C639.242 65.0846 636.71 70.4795 639.679 74.6866C641.528 77.3074 647.787 76.1489 650.537 75.5861C656.285 74.4098 662.022 74.4822 667.764 73.5425C671.56 72.9222 674.695 71.4065 678.675 71.3738C675.35 77.5636 668.792 75.6021 663.17 76.8203C660.994 77.2925 659.461 78.8042 657.428 79.5675C653.535 81.0292 648.895 81.1377 644.795 81.1377C645.978 82.0464 646.742 82.1865 648.24 82.2864C645.249 84.075 642.383 84.3645 639.053 85.0922C631.835 86.6693 624.616 87.4556 617.232 87.4556C617.605 88.2023 617.318 88.03 618.38 88.03C611.466 90.0741 603.111 88.03 595.985 88.03C593.648 93.7298 586.642 91.0143 582.204 90.9046C580.24 90.8558 576.783 90.2826 576.461 92.6248C571.387 92.6248 565.994 92.1015 560.957 92.731C558.247 93.0699 556.117 94.832 553.492 95.3386C549.687 96.0732 545.303 95.4965 541.433 95.4965C543.209 97.8296 548.908 98.2218 551.769 98.3683C545.934 101.733 541.534 98.9191 535.69 98.0404C531.645 97.4321 527.611 98.0421 523.632 98.8094C521.658 99.1896 519.853 100.105 517.889 100.47C513.227 101.339 508.249 100.796 503.542 101.302C501.662 101.504 500.15 102.593 498.343 103.051C496.274 103.575 494.12 103.435 492.049 103.93C489.119 104.63 487.376 107.267 484.575 107.952C481.748 108.643 478.295 108.128 475.396 108.132C470.31 108.14 464.974 108.399 459.892 108.758C456.806 108.976 454.716 110.702 451.853 111.401C447.992 112.343 443.735 112.229 439.794 112.727C440.74 113.258 441.617 113.559 442.665 113.876C436.832 115.851 430.852 114.399 424.872 115.087C422.347 115.378 421.41 117.687 419.097 118.289C414.838 119.395 409.695 117.897 405.34 117.896C405.781 118.651 405.734 118.604 406.488 119.045C401.526 120.512 396.002 118.429 391.09 119.801C388.606 120.495 387.328 123.192 384.667 123.894C381.901 124.623 378.879 124.058 376.054 124.266C373.035 124.489 370.406 126.041 367.44 126.405C364.162 126.808 360.958 125.655 357.678 125.999C354.603 126.322 352.11 128.501 349.065 129.078C346.023 129.653 342.429 128.809 339.303 128.809C340.308 129.53 340.944 129.736 342.174 129.958C340.131 132.099 337.747 131.89 335.383 133.401C333.81 134.405 332.696 136.415 330.638 136.392C328.395 136.368 326.631 134.551 324.351 134.658C322.106 134.762 319.738 135.641 319.779 137.999C320.172 137.282 320.209 137.11 320.353 136.276C322.26 136.125 324.622 135.338 326.352 136.458C328.985 138.163 329.681 142.531 333.012 143.083C336.598 143.677 339.394 142.493 342.748 141.68C347.165 140.611 351.988 139.725 356.53 139.722V137.999C361.591 137.781 367.672 138.253 372.609 137.265C376.177 136.551 379.262 133.919 382.967 133.478C390.163 132.621 397.556 133.14 404.766 132.135C407.49 131.755 410.09 130.615 412.805 130.142C416.632 129.476 420.489 129.821 424.289 129.301C428.095 128.78 431.871 127.317 435.774 126.757C438.439 126.376 441.17 126.815 443.813 126.383C447.272 125.818 450.632 124.397 454.15 123.826C459.295 122.992 464.523 123.084 469.654 122.371C477.493 121.282 485.418 119.58 493.197 118.283C500.147 117.125 506.944 114.795 513.87 113.568C516.717 113.064 519.618 113.481 522.483 113.204C530.128 112.464 537.822 111.214 545.453 110.356C554.694 109.317 563.851 107.133 573.016 105.527C582.956 103.785 592.982 102.894 602.876 100.883C617.846 97.8405 633.253 97.4097 648.24 94.7338C651.347 94.1796 654.264 93.1406 657.428 92.6995C661.143 92.182 665.134 92.2457 668.746 91.2211C670.745 90.6548 672.582 89.7054 674.655 89.3653C676.516 89.0604 678.468 89.4285 680.3 89.0069C681.908 88.6382 683.234 87.3528 684.963 87.4275C687.931 87.5567 687.363 90.8828 685.566 92.0504C688.73 93.0825 690.2 88.2856 691.497 86.0634C695.115 79.8569 697.033 72.6689 700.094 66.2046C701.11 64.0611 703.585 60.893 702.442 58.39C701.42 56.1483 697.912 56.4716 695.902 56.0127C693.335 55.4263 690.515 54.6676 687.862 54.8399C685.192 55.0133 682.901 56.3763 680.397 57.1448C677.635 57.9925 674.644 58.3745 671.784 58.738L672.358 59.8867C668.585 59.8867 665.146 59.4554 661.448 58.738C663.561 56.9116 665.037 54.3747 667.764 53.5688C667.776 49.9849 669.28 48.1984 670.314 44.9536C670.842 43.2796 670.406 41.4715 670.968 39.807C671.715 37.6239 672.852 36.4633 672.932 34.0409L671.21 34.6152C671.21 32.594 671.818 29.1918 670.211 27.6414C668.93 26.4104 666.518 26.4659 664.893 26.7236C660.713 27.3876 654.115 28.5098 651.686 32.3178Z" fill="#FB7F14" />
  <path d="M510.999 31.1691C510.951 33.4727 510.383 35.7628 510.484 38.0613C510.569 39.9772 511.18 41.8685 510.868 43.7965C510.455 46.3418 508.48 48.0713 508.128 50.6971H504.108C507.174 53.0048 510.068 50.2875 511.347 47.251C512.696 44.0458 511.85 40.7894 511.624 37.487C511.477 35.3371 511.841 33.1754 510.999 31.1691Z" fill="#FB7F14" />
  <path d="M609.193 34.0409C611.748 36.2448 615.957 36.5904 618.38 34.0409C615.251 33.2953 612.339 33.4569 609.193 34.0409Z" fill="#FB7F14" />
  <path d="M708.535 45.5279C710.016 45.343 711.176 44.9691 712.555 44.3792C710.774 43.708 709.827 44.2058 708.535 45.5279Z" fill="#FB7F14" />
  <path d="M714.852 44.3792C714.817 55.513 704.372 64.2914 703.367 75.3942C705.394 72.8688 705.985 69.6346 707.381 66.7789C710.941 59.491 715.977 52.8164 716 44.3792H714.852ZM447.259 56.4406V57.5893C451.611 57.5893 455.753 56.7025 459.743 54.9507C460.929 54.4304 461.621 53.2455 462.837 52.7642C464.257 52.2013 465.888 52.4908 467.357 52.0939C469.186 51.5998 470.696 50.368 472.525 49.8746C474.776 49.2674 477.146 49.7918 479.416 49.3304C484.972 48.2011 489.516 45.6916 495.484 46.8078C497.27 47.1418 498.096 48.5391 499.663 49.2191C500.997 49.798 502.684 49.8572 504.108 50.1227C499.883 46.1416 494.642 46.1023 489.178 46.1023C487.187 46.1023 484.906 45.8038 482.959 46.276C481.271 46.6852 480.014 47.9585 478.265 48.269C475.999 48.6712 473.646 48.1364 471.377 48.4847C469.365 48.7936 468.066 50.2775 466.209 50.9275C464.569 51.5017 462.771 51.0167 461.138 51.6069C456.045 53.4482 452.935 56.44 447.259 56.4406Z" fill="#FB7F14" />
  <path d="M702.218 53.5688C703.424 54.1679 704.343 54.4895 705.664 54.7175L706.238 52.4201C704.624 52.5017 703.545 52.655 702.218 53.5688ZM434.052 54.1432C438.281 55.9179 442.864 54.3299 447.259 56.4406C445.147 52.6097 437.9 54.1432 434.052 54.1432Z" fill="#FB7F14" />
  <path d="M558.66 73.6712C563.495 74.7176 565.931 76.2753 570.719 74.2455C570.724 67.2114 575.267 61.5477 575.887 54.7175C573.393 54.7382 570.903 55.3562 568.422 55.2523C567.065 55.196 565.292 54.3339 563.988 54.8824C562.509 55.505 561.792 57.9552 561.224 59.3124C559.298 63.9152 558.66 68.7185 558.66 73.6712Z" fill="white" />
  <path d="M388.687 64.4815C390.669 65.0082 391.984 63.7659 393.855 63.1593C396.555 62.284 399.71 61.3484 402.469 60.6994C405.458 59.9964 408.685 61.0222 411.648 60.2123C413.8 59.6242 415.085 57.8265 417.408 57.6232C423.18 57.1177 428.749 58.2096 434.052 55.2919C432.361 54.8812 431.126 55.7152 429.458 56.123C427.456 56.6117 425.195 56.722 423.141 56.9173C420.476 57.1712 417.757 56.7611 415.102 57.0913C412.892 57.3659 410.972 58.6237 408.785 59.0435C401.802 60.3835 395.235 61.4426 388.687 64.4815Z" fill="#FB7F14" />
  <path d="M32.6628 72.5224C35.7629 73.7866 38.2459 71.449 41.2786 70.974C45.0641 70.3807 48.9655 71.1658 52.761 70.6931C54.9797 70.4169 56.9186 69.2934 59.0776 68.8058C63.7053 67.7599 68.7264 68.6869 73.4334 67.7708C75.6333 67.3424 77.4926 66.0213 79.7499 65.7365C84.4759 65.1403 89.3603 65.5711 94.1058 64.9795C97.333 64.5774 99.9205 63.3351 103.294 63.3328V62.1841C100.623 62.1841 97.8854 62.0083 95.2542 62.5459C92.4905 63.1111 90.0419 64.3994 87.215 64.81C83.993 65.2776 80.6302 64.632 77.453 65.3597C75.4777 65.8123 73.7268 66.926 71.7107 67.2309C68.878 67.6594 65.9483 67.1792 63.0972 67.4509C59.1717 67.8248 55.4714 68.9867 51.6125 69.5306C47.6297 70.0918 43.5274 69.7966 39.5621 70.333C37.1303 70.6621 35.1107 72.1388 32.6628 72.5224Z" fill="#FB7F14" />
  <path d="M103.293 63.3328C105.133 65.5441 107.565 65.8221 110.184 66.7789C108.799 64.8147 105.526 64.2058 103.293 63.3328Z" fill="#FB7F14" />
  <path d="M316.334 71.9481C317.884 71.0171 319.282 69.464 320.979 68.8403C322.965 68.1103 325.17 68.8294 327.193 68.3222C328.917 67.8897 330.128 66.4521 331.847 65.9588C335.735 64.8422 340.546 65.7084 344.471 66.2046C342.836 64.3328 339.342 65.0559 337.006 65.0559C332.71 65.0559 329.619 66.1236 325.521 67.0495C321.323 67.9983 318.574 67.5595 316.334 71.9481ZM345.045 66.2046C346.696 69.1998 350.045 68.5032 353.085 68.502C356.355 68.5009 360.227 68.5319 363.398 67.6813C364.878 67.2844 365.998 66.1558 367.492 65.8037C369.98 65.2179 372.933 65.6302 375.48 65.6302C370.511 63.5448 365.342 65.9513 360.55 67.0495C356.053 68.0799 349.276 67.9977 345.045 66.2046ZM381.222 67.9277C383.7 68.7317 385.911 66.6704 388.113 65.6302C385.678 64.9835 383.471 67.0765 381.222 67.9277Z" fill="#FB7F14" />
  <path d="M533.968 65.0559C532.992 68.5181 531.572 71.7247 530.524 75.1507C530.12 76.4723 529.63 78.3711 530.949 79.3905C532.067 80.2549 533.883 79.6404 535.117 79.4147V65.0559H533.968Z" fill="white" />
  <path d="M375.48 65.6302C376.435 66.4935 377.143 66.8932 378.351 67.3533C377.51 66.1345 376.94 65.9323 375.48 65.6302Z" fill="#FB7F14" />
  <path d="M110.184 66.7789C110.7 67.9989 110.687 67.9857 111.907 68.502C111.273 67.6652 111.021 67.4124 110.184 66.7789Z" fill="#FB7F14" />
  <path d="M378.351 67.3533C379.177 68.8506 379.521 69.1234 381.222 69.0763L378.351 67.3533ZM113.055 70.225L113.63 72.5225C113.855 71.4174 113.713 71.167 113.055 70.225Z" fill="#FB7F14" />
  <path d="M75.7302 72.5224C75.7302 73.5546 75.7383 73.396 76.3045 74.2455C71.7812 75.8973 67.2781 78.3274 62.5229 79.1987C60.3609 79.595 58.3539 78.9747 56.2063 78.9023C53.569 78.8133 50.8341 79.1786 48.1755 79.1769C45.0371 79.174 44.0472 81.3652 40.702 79.989C41.7026 79.3509 41.919 79.259 42.4247 78.266C40.3742 78.8708 38.8486 80.7339 36.6801 80.9528C33.4434 81.2796 27.3056 77.5647 24.6057 80.3267C23.2239 81.7402 20.4975 84.7538 20.8117 86.8295C21.4172 90.8311 28.6899 94.5661 26.9532 98.8456C24.9143 103.87 19.5208 107.134 16.6325 111.581C13.5853 116.273 11.1438 121.357 9.29066 126.46C8.68582 128.125 7.3497 129.334 6.98178 131.115C5.75505 137.05 6.56598 143.516 6.82226 149.486C8.73584 144.924 6.83714 138.849 7.47316 133.978C7.73403 131.98 8.94067 130.583 9.75412 128.809C11.4261 125.162 12.3302 121.742 14.8615 118.471C15.2399 121.026 14.1942 122.893 13.7361 125.363C12.9593 129.551 12.2289 134.315 12.6244 138.573C12.8846 141.373 13.1608 145.629 14.1163 148.239C17.6178 157.803 25.926 160.735 34.9512 162.868C37.7926 163.539 39.9767 164.909 42.9989 164.984C46.0938 165.062 49.6115 165.396 52.6634 164.844C55.7028 164.294 58.753 162.836 61.9377 163.403C66.4575 164.209 64.918 169.727 62.5229 171.885C61.7568 167.192 55.872 168.357 52.1867 168.448C47.0057 168.575 41.903 169.328 36.6824 168.962C30.0881 168.5 23.7499 166.445 17.7327 163.844C19.4955 167.044 26.8256 168.682 30.3658 169.054C36.0662 169.655 41.2079 170.971 47.0186 170.714C51.5263 170.514 55.0718 168.497 59.6517 169.588C58.5716 171.82 58.5285 174.096 57.8067 176.428C56.9391 179.234 55.6601 180.852 55.6321 183.947H56.7805C56.9383 181.788 57.929 180.627 58.6623 178.68C59.7022 175.918 58.9402 173.977 61.9486 172.46C61.9486 174.012 61.507 176.554 62.5389 177.857C63.4192 178.968 65.2866 178.803 66.5425 178.755C70.1711 178.613 73.253 176.648 76.8787 176.48V178.203C74.5031 178.588 73.7405 180.358 71.6509 181.223C70.2388 181.808 68.6539 181.493 67.2143 181.965C65.7851 182.432 64.5045 183.387 63.0971 183.947C65.1454 184.545 66.8124 183.347 68.8394 182.94C76.2677 181.452 81.1487 176.161 84.3874 169.342C85.1046 167.833 84.752 166.113 85.402 164.582C87.5141 159.606 90.3043 154.536 92.7999 149.729C94.3761 146.693 92.8917 143.891 95.8284 141.445C96.0144 145.784 97.0004 150.658 100.028 153.996C101.235 155.327 102.847 155.766 104.442 156.441C108.212 158.037 112.881 159.969 117.075 159.716C120.175 159.529 123.18 158.507 126.263 158.199C130.062 157.819 133.982 158.156 137.747 157.355C139.733 156.933 141.46 155.834 143.49 155.484C146.154 155.024 148.856 155.429 151.529 155.129C153.983 154.854 156.023 153.453 158.42 153.06C160.882 152.657 163.416 153.145 165.885 152.745C170.755 151.956 175.283 149.891 180.241 149.486C181.924 146.107 185.882 144.938 188.579 142.429C194.011 137.375 197.627 129.836 204.933 127.086V132.255C205.38 131.239 205.456 130.511 205.507 129.383C209.198 128.53 207.053 123.496 208.15 120.83C208.868 119.086 210.909 118.286 212.398 117.322C212.34 122.565 209.353 127.173 208.984 132.255C208.877 133.721 208.563 136.37 209.873 137.408C211.47 138.673 215.08 137.999 216.992 137.999C224.284 137.999 230.504 135.74 237.664 134.796C241.186 134.332 244.6 133.898 247.902 132.435C249.549 131.705 250.744 130.383 252.596 130.097C255.176 129.699 258.003 130.584 260.633 130.523C266.89 130.38 273.354 129.961 279.583 129.283C291.854 127.95 303.765 124.77 315.76 122.491C310.899 130.919 299.096 129.281 291.068 130.914C284.726 132.204 278.506 133.097 272.118 134.164C269.603 134.584 267.218 135.47 264.653 135.649C259.33 136.023 253.249 134.651 248.052 135.875C244.192 136.784 240.533 139.129 236.515 140.029C231.977 141.047 227.275 140.718 222.734 141.601C217.723 142.577 213.193 144.943 207.812 143.559C201.939 142.049 204.316 136.802 204.933 132.829C204.121 133.909 203.341 135.035 202.786 136.278C201.399 139.39 202.178 142.873 205.671 144.024C209.874 145.408 217.193 144.717 221.585 144.254C224.03 143.997 226.053 142.501 228.476 142.119C231.694 141.611 235.672 142.153 238.715 141.124C242.203 139.943 245.628 137.294 249.157 136.455C251.602 135.874 254.165 136.732 256.614 136.827C260.518 136.979 264.76 136.492 268.673 136.224C272.342 135.973 275.487 134.798 279.009 134.135C282.343 133.508 285.951 133.808 289.345 133.338C291.876 132.988 294.269 131.955 296.81 131.539C304.78 130.234 318.275 129.483 318.631 118.471C315.771 118.556 313.857 120.036 311.166 120.611C307.297 121.437 303.542 121.524 299.69 122.094C297.882 122.361 296.304 123.35 294.491 123.566C285.053 124.69 275.243 123.144 265.801 123.065C265.619 121.798 264.875 119.879 265.43 118.653C266.19 116.974 272.059 116.28 273.841 115.651C277.707 114.283 281.367 114.826 285.325 114.344C287.566 114.072 289.48 112.941 291.642 112.423C293.414 111.998 295.599 112.52 297.071 111.232C302.817 106.206 304.224 97.9203 299.583 92.0361C298.662 90.8695 297.833 89.2602 296.492 88.5204C292.715 86.4384 288.543 88.0638 284.729 88.5308C279.375 89.1867 275.064 87.4699 269.821 87.4556L270.969 91.4761C267.773 91.8798 264.324 91.7489 261.207 92.5432C254.835 94.1669 249.756 98.0041 245.347 102.722C242.807 105.441 240.185 106.353 239.961 110.43C233.522 108.464 238.092 104.012 239.138 100.091C239.712 97.9381 239.387 95.4115 239.387 93.1991C236.434 92.5409 233.883 91.6587 230.773 92.2457C228.299 92.7121 226.547 94.2519 224.428 95.4563C219.619 98.1891 215.524 101.135 211.7 105.192C210.178 106.807 208.2 108.394 206.893 110.159C204.213 113.779 203.212 116.803 198.042 115.599C201.019 112.162 199.518 107.115 199.19 102.963H196.319C196.76 103.718 196.713 103.671 197.468 104.112C195.009 104.839 192.436 104.276 190.003 104.979C187.164 105.799 184.474 108.301 181.963 109.855V105.261C173.663 105.462 173.953 117.028 171.879 123.014C171.422 124.331 170.35 125.286 169.82 126.563C169.293 127.833 169.484 129.178 169.151 130.48C168.541 132.862 166.253 134.615 166.806 137.339C167.25 139.523 169.942 139.142 171.627 139.147C168.768 145.103 160.428 146.484 154.4 145.035C150.378 144.068 147.167 141.944 142.915 142.028C140.731 142.071 138.144 142.241 136.047 142.883C134.594 143.33 133.456 144.411 131.953 144.731C129.716 145.208 127.337 144.597 125.114 144.316C125.188 138.106 129.515 139.562 134.302 138.57C136.67 138.08 138.834 136.911 141.193 136.471C144.02 135.942 146.956 136.498 149.804 136.109C155.797 135.289 162.346 130.309 160.717 123.64L159.568 124.214C159.183 121.792 160.043 119.073 159.076 116.77C155.997 109.442 146.065 113.177 140.044 113.301C139.901 112.002 139.418 111.072 138.896 109.855C136.503 110.86 132.93 109.855 130.282 109.855C130.158 115.128 122.678 113.915 118.798 114.987C112.932 116.607 110.035 121.234 105.867 125.114C104.2 126.666 102.34 126.483 101.571 128.809C98.4205 127.814 97.4041 123.131 96.4026 120.194C90.2991 120.211 85.2389 123.826 79.1756 124.668C73.6756 125.433 68.0028 124.477 62.5229 124.237C59.4122 124.1 56.4218 124.656 53.3351 124.788C54.216 124.201 54.1404 124.326 54.4836 123.64C48.9114 121.996 47.5139 126.23 42.9989 128.235V129.383C46.6734 132.202 48.5328 137.018 52.7609 139.147C50.9887 136.167 47.3979 132.831 46.6318 129.414C46.1565 127.295 48.8336 126.436 50.4126 127.176C53.9017 128.813 55.2291 133.739 59.1291 134.878C64.4333 136.427 69.8954 133.451 75.156 133.404C75.1514 140.044 72.4267 147.209 68.2652 152.357C67.923 149.743 68.9078 148.443 69.6686 146.039C70.3594 143.86 70.6236 141.392 71.1364 139.147C64.98 137.327 59.2187 141.641 53.3351 139.147C54.1694 141.662 56.108 141.515 58.5032 141.201C62.4626 140.681 65.9729 139.159 69.9879 139.147C69.6818 140.794 69.6652 142.7 69.0783 144.265C68.5184 145.759 67.227 146.797 66.7911 148.359C66.2829 150.181 66.7573 152.111 66.1038 153.917C65.363 155.963 64.2088 157.676 63.6713 159.824L65.394 160.398V161.547C60.969 162.601 56.6404 161.899 52.1867 161.547L53.9094 158.675C51.6213 157.637 50.2153 155.944 48.167 154.655L48.7413 153.506L45.2959 151.783C46.1449 151.217 45.9868 151.209 47.0186 151.209C45.4932 150.003 43.674 148.628 41.8505 147.921C40.5185 147.404 39.1642 147.498 38.0777 146.423C36.8114 145.171 36.3302 143.085 35.7798 141.445C34.0895 136.406 33.5301 125.726 36.6824 121.342C36.3948 122.885 36.1756 124.369 36.1081 125.937C38.7331 122.897 40.3506 114.959 39.227 111.026C38.5726 108.736 36.3158 107.135 36.0975 104.686C35.6184 99.3114 43.1333 94.9067 47.5928 94.3478C48.1217 96.0904 48.9722 97.2736 51.0408 96.9456C52.6722 96.6871 54.0322 95.5574 55.6321 95.1617C61.3158 93.7574 67.0093 93.1991 72.8591 93.1991C69.014 90.5715 62.8887 92.6127 58.5032 92.6248C58.7909 91.5243 58.9988 90.6398 59.9807 89.9247C61.1866 89.046 62.8548 88.888 64.2456 88.4406C67.877 87.2718 73.7388 84.4879 77.2703 87.3947C78.5687 88.463 78.4389 90.0235 79.0229 91.4537C79.8716 93.5334 82.3264 96.539 84.3971 97.4585C86.4862 98.3861 89.513 99.5457 91.8087 99.4521C94.9665 99.3234 97.7566 97.8226 100.996 97.7939C95.8657 107.144 77.7774 106.373 75.156 95.4965C73.5746 99.3114 77.4954 103.057 80.9517 104.163C87.8626 106.376 93.8565 105.847 99.8417 101.284C107.539 95.4144 112.655 80.8873 103.026 73.9577C97.9203 70.2825 89.6582 71.3737 83.7695 71.3737C80.8954 71.3737 78.3608 71.256 75.7302 72.5224Z" fill="#FB7F14" />
  <path d="M114.204 72.5225C115.815 76.3252 116.205 82.8022 115.17 86.8589C114.489 89.5307 112.578 90.7857 112.481 93.7735C117.178 90.3636 116.503 84.5419 116.501 79.4147C116.5 76.6486 116.819 74.0508 114.204 72.5225Z" fill="#FB7F14" />
  <path d="M9.11911 81.1377C9.90518 79.8627 10.2742 77.9863 11.5901 77.1328C13.535 75.8709 16.6748 76.3275 18.8811 75.8049C20.6921 75.3764 22.2133 74.2323 24.0492 73.8682C26.8014 73.3231 29.8665 73.6712 32.6627 73.6712C27.7058 71.5909 21.5195 73.7188 16.5841 74.751C14.8621 75.1111 12.5213 74.9996 11.0137 75.9824C9.29218 77.1046 8.96039 79.3079 9.11911 81.1377ZM315.76 73.0968C314.198 75.9588 313.023 82.9401 308.869 83.0831C307.539 83.129 306.115 82.0716 304.849 81.7121C308.501 88.2218 312.953 81.7896 314.516 77.6911C315.154 76.0174 316.173 74.8865 315.76 73.0968Z" fill="#FB7F14" />
  <path d="M700.496 80.5634C697.36 81.5162 697.625 84.0072 697.625 86.8813C700.077 83.7177 702.144 79.2619 703.367 75.3942C700.668 76.2138 700.525 77.9564 700.496 80.5634Z" fill="#FB7F14" />
  <path d="M274.415 81.1377C276.388 80.7873 278.181 79.8351 280.157 79.537C286.891 78.521 295.08 78.8926 301.404 81.1377C300.613 79.9218 299.952 78.9454 298.479 78.5141C296.382 77.9001 293.805 78.2659 291.642 78.2659C287.557 78.2659 283.037 77.7283 279.009 78.4549C277.021 78.8139 275.709 79.6559 274.415 81.1377Z" fill="#FB7F14" />
  <path d="M9.69336 81.1377V82.8608C10.0931 81.9682 10.0931 82.0303 9.69336 81.1377ZM258.911 86.3069C256.566 86.3149 253.927 86.0082 253.168 88.6043C250.671 88.7301 247.652 89.857 245.193 88.9874C244.308 88.6744 243.662 87.8611 242.832 87.4556C243.607 92.2072 248.125 90.7156 251.468 89.6295C256.442 88.0145 261.546 86.1202 266.353 84.1686C269.265 82.986 270.513 81.7236 273.841 81.7121C269.693 79.9712 267.134 82.2238 263.482 83.5925C261.315 84.4046 259.734 83.8257 258.911 86.3069ZM301.404 81.1377C302.42 81.5852 303.147 81.6615 304.275 81.7121C303.259 81.2647 302.532 81.1883 301.404 81.1377Z" fill="#FB7F14" />
  <path d="M10.2676 82.8608C10.6601 83.7683 10.7297 83.8814 11.416 84.5838C11.0235 83.6764 10.9539 83.5632 10.2676 82.8608Z" fill="#FB7F14" />
  <path d="M11.416 84.5838C12.0496 85.4207 12.3023 85.6734 13.1387 86.3069C12.6223 85.087 12.6355 85.1002 11.416 84.5838Z" fill="#FB7F14" />
  <path d="M211.823 92.0504C217.55 95.0956 222.569 89.602 227.902 87.9369C232.74 86.4264 237.363 87.3545 242.258 87.4556V86.3069C240.06 86.2816 238.657 86.1846 237.09 84.5838C233.627 85.2949 229.541 85.6745 226.231 86.8904C220.997 88.8134 217.602 92.0498 211.823 92.0504Z" fill="#FB7F14" />
  <path d="M13.1389 86.3069C13.5038 88.0552 13.9349 88.7858 15.4358 89.753C14.8339 88.4188 14.1287 87.3855 13.1389 86.3069Z" fill="#FB7F14" />
  <path d="M696.476 86.8813C694.828 90.6806 693.025 94.1313 689.585 96.6452C693.72 97.7204 696.413 89.7203 697.624 86.8813H696.476Z" fill="#FB7F14" />
  <path d="M637.904 93.7735H644.221L643.647 92.6248C646.19 92.5139 648.585 91.7133 651.112 91.5278C653.477 91.3543 656.188 91.9281 658.491 91.2963C659.742 90.9534 659.932 90.286 660.299 89.1787C654.919 89.1787 649.498 88.9236 644.221 90.1809C641.608 90.8029 639.328 91.383 637.904 93.7735Z" fill="white" />
  <path d="M15.4358 89.753C15.8711 92.499 17.7485 94.9503 17.5724 97.7939C17.3888 100.756 15.1254 103.546 14.2874 106.409C20.5788 102.714 19.7081 94.5735 15.4358 89.753Z" fill="#FB7F14" />
  <path d="M205.507 91.4761C207.323 92.2382 209.289 92.0504 211.249 92.0504C209.433 91.2883 207.467 91.4761 205.507 91.4761Z" fill="#FB7F14" />
  <path d="M194.596 92.0504C197.453 93.2491 201.279 92.6248 204.358 92.6248C201.502 91.4261 197.675 92.0504 194.596 92.0504Z" fill="#FB7F14" />
  <path d="M190.002 93.7735C191.611 94.2215 192.987 93.6224 194.596 93.1991C192.921 92.6173 191.648 93.1756 190.002 93.7735Z" fill="#FB7F14" />
  <path d="M73.4333 93.1991C73.8261 94.1066 73.8956 94.2198 74.5818 94.9222C74.189 94.0147 74.1196 93.9016 73.4333 93.1991Z" fill="#FB7F14" />
  <path d="M488.029 124.214C491.509 125.284 495.436 122.967 498.94 122.591C501.984 122.264 505.1 122.809 508.128 122.304C511.049 121.817 513.761 120.59 516.741 120.292C519.837 119.982 522.844 120.192 525.929 119.619C525.887 120.916 525.952 122.278 525.011 123.305C524.077 124.325 522.426 124.434 522.154 126.011C521.65 128.939 526.477 132.59 527.652 135.127C528.692 131.843 522.44 128.475 524.626 125.589C528.739 120.162 532.468 130.647 535.288 131.91C537.666 132.977 540.831 131.339 542.971 133.176C543.913 133.984 544.129 135.101 543.906 136.276C543.321 139.372 541.87 144.353 539.71 146.614C539.228 144.588 539.903 140.013 538.216 138.676C535.911 136.85 532.84 138.642 530.523 136.276C530 140.024 535.559 139.147 537.988 139.147C537.852 142.079 535.398 144.536 535.449 147.196C535.479 148.717 536.599 150.021 537.413 151.209C533.824 152.413 530.337 153.992 526.503 154.342C522.753 154.685 518.723 153.403 515.018 152.932C513.071 156.534 507.854 157.36 504.44 159.52C502.162 160.961 500.814 163.058 498.882 164.845C497.121 166.474 494.675 167.523 493.096 169.324C487.487 175.721 485.272 182.586 487.455 190.839C489.439 190.845 491.264 190.953 493.198 191.413C491.497 192.378 489.865 193.757 488.029 194.436C482.502 196.48 476.472 195.481 470.802 195.434C471.841 192.145 476.057 192.138 477.915 188.952C480.559 184.421 480.564 176.993 480.564 171.885C478.733 170.974 477.941 169.528 476.396 168.259C474.008 166.299 471.64 165.659 470.228 162.696C464.968 162.031 459.453 161.591 454.15 161.547C454.591 162.302 454.544 162.255 455.298 162.696C452.224 164.988 449.633 163.553 446.11 163.907C443.611 164.158 440.934 165.547 438.645 166.558C430.95 169.955 422.822 178.02 419.406 185.767C418.625 187.538 418.857 189.507 418.257 191.308C417.132 194.683 415.754 196.81 415.676 200.603C411.896 200.479 410.932 198.52 411.9 194.859C412.915 191.024 415.021 187.509 416.432 183.849C417.844 180.184 418.596 175.211 419.121 171.311C416.368 170.144 413.986 170.373 411.082 170.103C407.168 169.738 404.157 169.273 400.172 169.588L400.746 172.46C397.249 172.902 394.869 172.761 391.461 172.026C389.835 171.675 387.929 171.692 387.003 170.031C386.084 168.382 386.927 165.666 386.964 163.844C383.792 162.237 380.745 158.319 377.128 157.733C375.266 157.432 373.666 159.055 372.026 159.678C366.652 161.719 360.129 166.991 357.018 171.983C355.541 174.355 356.153 177.154 353.625 178.934C348.464 182.567 342.492 178.743 337.016 179.463C334.271 179.823 333.586 182.389 331.21 183.354C327.466 184.875 323.082 184.499 319.205 185.357C315.66 186.142 313.148 188.55 309.443 187.967C308.179 191.372 306.924 193.013 303.126 193.136C301.705 195.936 297.228 200.503 293.939 200.603C293.927 203.849 292.319 205.687 291.773 208.666C290.799 213.976 291.622 220.105 294.582 224.63C298.514 230.639 305.368 231.044 311.74 231.044C324.656 231.044 337.48 229.141 346.479 218.891C350.491 214.321 354.312 208.772 356.071 202.9C357.027 199.707 355.316 194.857 357.53 192.17C359.106 190.26 362.375 190.839 364.569 190.839C361.76 196.264 358.831 202.368 358.827 208.644C361.603 205.003 361.685 199.554 363.761 195.531C364.527 194.047 366.026 191.709 364.223 190.281C360.782 187.555 355.096 192.082 352.51 187.393C355.027 186.796 356.922 185.041 359.401 184.36C363.328 183.282 367.098 184.205 370.886 185.095C370.106 187.4 368.982 189.635 368.364 191.988C367.262 196.19 366.963 201.742 363.421 204.623C364.423 207.643 367.136 206.675 369.737 206.346V210.941C365.776 211.257 362.201 213.058 358.253 213.239V209.218H357.104C357.117 210.631 356.852 212.794 358.105 213.796C360.411 215.642 364.616 213.131 366.866 212.392C367.984 212.025 369.14 211.924 370.096 211.169C373.42 208.546 374.242 204.243 375.764 200.603C376.432 199.003 377.634 197.698 378.105 196.008C378.784 193.567 378.248 190.096 380.779 188.558C382.942 187.242 386.816 187.967 389.261 187.967C388.847 190.201 389.025 192.707 388.366 194.859C386.45 201.111 379.587 210.538 385.563 216.846C388.576 220.026 392.606 218.615 396.203 217.982C398.071 217.654 400.01 217.911 401.894 217.782C404.623 217.595 407.868 217.614 410.508 216.939C412.297 216.482 413.837 215.394 415.676 215.09C417.383 214.808 419.136 215.112 420.844 214.833C422.205 214.611 423.467 213.765 424.841 213.694C427.1 213.578 429.28 215.054 431.746 214.951C433.888 214.861 435.024 213.663 436.945 212.999C438.424 212.489 440.04 212.71 441.517 212.151C444.569 210.999 448.631 207.498 450.13 204.623L451.853 205.198C451.73 202.801 452.673 199.429 455.872 199.909C458.433 200.293 459.932 202.715 462.763 202.875C466.457 203.082 470.066 201.501 473.674 200.869C475.957 200.469 478.281 200.737 480.564 200.336C486.064 199.373 491.276 197.481 496.643 196.246C500.061 195.46 503.476 197.308 506.979 197.134C510.377 196.964 513.331 195.14 516.741 194.859C515.082 200.344 507.071 200.68 502.385 201.446C499.471 201.922 496.773 200.315 493.772 200.778C491.286 201.161 489.294 202.711 486.881 203.248C483.893 203.915 480.718 203.202 477.693 203.648C474.526 204.114 471.586 205.646 468.454 206.198C464.303 206.929 459.52 206.92 455.298 206.921C457.919 211.206 462.654 208.28 466.209 207.236C468.852 206.46 472.068 206.654 474.822 206.272C479.639 205.602 484.419 204.617 489.176 203.693C490.833 203.371 492.713 202.073 494.397 202.31C498.313 202.862 501.593 205.189 505.831 203.705C509.71 202.347 514.365 199.987 517.89 197.792C519.498 196.791 521.046 194.669 523.058 194.56C525.799 194.41 528.64 196.61 531.671 196.572C535.807 196.52 541.47 196.778 545.453 195.762C547.48 195.244 549.12 193.855 551.195 193.413C554.404 192.729 557.747 193.569 560.957 193.005C562.639 192.711 563.946 191.648 565.551 191.16C568.4 190.294 570.345 192.201 573.016 192.12C574.394 192.079 575.686 191.285 577.036 191.034C578.552 190.752 580.154 191.003 581.629 190.501C585.224 189.28 589.158 185.561 590.817 182.224C592.471 183.08 593.614 184.641 595.44 185.174C598.483 186.061 601.532 185.485 604.599 185.193C607.878 184.881 611.093 185.057 614.361 184.421C616.721 183.962 618.863 182.861 621.251 182.476C626.052 181.703 630.382 182.494 635.033 180.667C639.547 178.896 643.945 181.193 646.518 175.906C644.554 176.561 643.388 178.284 641.338 178.856C638.748 179.582 635.958 179.323 633.31 179.787C630.956 180.2 628.791 181.357 626.42 181.589C623.755 181.85 621.028 181.37 618.38 181.865C614.137 182.657 610.106 184.307 605.747 184.499C602.394 184.646 597.817 185.258 595.009 183.095C594.096 182.39 592.838 181.229 593.062 179.934C593.304 178.514 595.158 177.352 596.508 177.272C597.8 177.195 598.856 178.211 600.057 178.532C601.854 179.01 603.904 178.78 605.747 178.778C610.462 178.77 616.095 178.436 620.677 177.311C622.446 176.876 624.048 175.968 625.845 175.606C628.309 175.11 630.864 175.667 633.31 175.16C637.933 174.201 641.665 173.034 646.518 173.034V175.331C649.406 173 649.963 171.545 649.963 167.865C647.322 167.865 644.525 167.609 641.924 168.14C639.931 168.548 638.191 169.705 636.182 170.034C632.472 170.641 628.464 170.394 624.703 170.768C622.877 170.95 620.298 173.575 618.61 172.82C616.933 172.069 618.202 168.617 618.38 167.291H621.826C621.826 165.448 621.573 163.361 622.073 161.569C622.463 160.178 623.514 159.265 624.134 158.003C624.737 156.767 624.674 155.372 625.099 154.08C625.949 151.472 627.178 149.404 627.539 146.614C627.844 144.29 629.21 141.433 627.648 139.308C625.977 137.031 623.531 137.939 621.251 138.358C616.962 139.147 613.028 140.295 608.618 140.296C604.047 140.297 599.913 141.652 595.411 141.967C592.057 142.203 588.308 141.41 585.075 142.48C569.855 147.524 558.91 161.521 556.937 177.055L558.086 176.48C556.221 180.394 552.097 177.768 551.929 174.148C551.828 171.995 553.912 170.613 554.053 168.428C554.146 166.984 554.398 165.24 552.918 164.993C553.713 162.654 555.686 161.281 556.591 159.086C557.235 157.525 556.835 155.701 557.332 154.08C558.511 150.238 560.273 146.66 561.666 142.924C562.698 140.159 563.121 137.357 564.28 134.552C565.87 130.703 562.76 126.637 567.274 124.214C567.26 123.097 567.331 121.931 566.938 120.863C566.201 118.858 563.025 115.334 564.855 113.073C566.28 111.314 571.501 111.698 573.59 111.529C576.662 111.281 579.246 109.893 582.204 109.41C586.189 108.758 590.272 109.683 594.263 108.811C596.336 108.357 598.018 106.989 600.057 106.567C602.847 105.989 605.799 106.692 608.618 106.222C611.162 105.799 613.522 104.653 616.083 104.284C619.672 103.767 623.434 104.076 626.994 103.313C628.975 102.889 630.726 101.781 632.736 101.429C636.664 100.74 640.833 101.138 644.795 100.584C647.04 100.269 648.849 98.7853 651.112 98.4769C655.292 97.9065 659.536 98.4464 663.745 97.7176C665.818 97.3586 667.408 95.8906 669.487 95.581C674.425 94.8464 679.065 95.8027 683.843 93.7735C680.673 92.6495 675.861 94.9165 672.358 94.9222C667.024 94.9314 662.545 96.3908 657.428 97.1518C654.189 97.6332 650.882 97.4855 647.666 97.9668C645.57 98.2799 643.894 99.5147 641.872 99.9346C638.507 100.634 634.976 100.35 631.588 100.772C629.79 100.996 628.182 101.821 626.42 102.171C622.291 102.992 617.938 102.658 613.786 103.398C611.782 103.756 610.014 104.693 608.044 105.112C604.995 105.76 601.917 105.57 598.856 105.941C596.881 106.18 595.066 107.025 593.114 107.373C589.135 108.083 585.058 108.221 581.055 108.804C572.424 110.063 563.796 112.159 555.215 113.691C545.549 115.417 535.613 115.852 525.929 117.451C524.325 117.715 522.927 118.588 521.335 118.888C518.897 119.347 516.335 118.913 513.87 119.209C511.027 119.551 508.592 120.766 505.828 121.257C499.842 122.319 493.89 122.357 488.029 124.214Z" fill="#FB7F14" />
  <path d="M110.184 96.0709L112.481 94.9222C111.156 94.6017 110.898 94.9245 110.184 96.0709ZM178.518 94.9222C181.814 96.3058 186.556 95.562 190.002 94.9222C186.555 93.4754 182.179 94.9119 178.518 94.9222Z" fill="#FB7F14" />
  <path d="M175.647 96.6452C173.67 99.6658 172.235 101.539 172.201 105.261C169.314 105.261 166.857 105.254 164.162 104.112C165.107 106.799 170.337 107.524 172.432 105.489C174.347 103.626 175.532 99.1006 176.795 96.6452H175.647Z" fill="#FB7F14" />
  <path d="M107.887 99.517C108.724 98.8835 108.977 98.6308 109.61 97.7939C108.39 98.3103 108.403 98.2971 107.887 99.517Z" fill="#FB7F14" />
  <path d="M681.546 98.9426C683.447 99.521 685.359 98.7657 687.288 98.3683C685.232 97.5154 683.538 98.0989 681.546 98.9426Z" fill="#FB7F14" />
  <path d="M106.739 99.517C105.54 101.073 104.294 102.365 102.719 103.537C103.95 107.872 107.51 107.558 111.333 107.558V109.281C113.593 109.281 116.018 109.496 118.215 108.866C122.036 107.769 125.459 105.133 129.186 103.861C131.128 103.197 133.426 103.585 135.451 103.292C138.033 102.917 140.373 101.746 142.916 101.362C146.101 100.882 150.675 100.723 153.826 101.414C157.407 102.199 159.743 103.537 163.588 103.537C156.838 100.617 149.829 99.1322 142.341 100.212C139.761 100.584 137.428 101.95 134.876 102.493C132.634 102.969 130.147 102.592 127.985 103.299C124.073 104.579 120.045 107.414 115.929 107.991C113.577 108.321 109.07 106.874 106.775 106.161C105.984 105.915 105.168 105.481 105.083 104.557C104.926 102.841 107.085 100.927 107.887 99.517H106.739ZM664.319 101.814C666.283 102.297 668.075 101.146 670.061 100.84C673.828 100.259 677.739 100.573 681.546 100.091C679.657 99.3533 677.802 99.9816 675.804 100.069C671.658 100.25 668.069 99.7129 664.319 101.814Z" fill="#FB7F14" />
  <path d="M277.86 101.24C276.517 101.245 275.158 101.195 273.84 101.504C272.911 101.723 271.906 102.062 271.1 102.586C265.174 106.445 275.163 111.492 277.514 106.278C278.169 104.825 277.86 102.795 277.86 101.24Z" fill="white" />
  <path d="M649.389 103.537C652.869 104.985 658.737 103.537 662.596 103.537C659.059 102.053 653.075 102.66 649.389 103.537Z" fill="#FB7F14" />
  <path d="M629.291 107.558C631.019 107.985 632.673 107.171 634.459 107.006C639.512 106.538 644.726 106.855 649.389 104.686C647.482 104.156 645.622 105.126 643.647 105.236C638.312 105.533 633.994 104.593 629.291 107.558Z" fill="#FB7F14" />
  <path d="M12.5645 107.558C11.9984 108.407 11.9902 108.249 11.9902 109.281C12.7305 108.452 12.7947 108.572 12.5645 107.558Z" fill="#FB7F14" />
  <path d="M612.638 109.855C616.916 111.172 623.015 108.719 627.568 108.707C623.221 106.883 616.876 108.234 612.638 109.855Z" fill="#FB7F14" />
  <path d="M10.8419 109.281C8.91185 112.515 6.56455 115.558 5.08185 119.045C4.54291 120.313 4.56886 121.729 3.96085 122.968C3.34193 124.228 2.29119 125.143 1.90274 126.534C1.29459 128.712 1.56806 131.163 1.10342 133.404C-0.0350155 138.893 -0.657339 143.991 1.07994 149.486C2.52766 146.002 1.07994 140.133 1.07994 136.276H2.80264C2.80264 133.715 2.38815 130.743 2.98253 128.243C4.59021 121.48 9.56027 115.784 11.9904 109.281H10.8419Z" fill="#FB7F14" />
  <path d="M578.758 116.173C583.691 114.234 588.003 114.983 593.114 114.344C595.825 114.005 597.955 112.243 600.579 111.736C603.852 111.104 607.585 111.578 610.915 111.578C607.568 110.172 600.683 110.408 597.134 111.242C594.71 111.812 592.81 113.149 590.243 113.278C586.309 113.476 581.216 112.38 578.758 116.173Z" fill="#FB7F14" />
  <path d="M95.8284 114.45C97.5488 117.395 100.518 116.77 103.293 115.599C101.005 114.228 98.4279 114.45 95.8284 114.45Z" fill="#FB7F14" />
  <path d="M235.941 115.024C235.449 118.602 233.802 121.692 233.644 125.363H237.09V115.024H235.941ZM547.75 117.322C551.941 117.116 555.078 119.66 558.086 115.024C554.92 115.024 548.954 113.694 547.75 117.322Z" fill="white" />
  <path d="M576.461 116.173C575.629 117.857 574.463 119.548 573.911 121.342C573.394 123.021 573.735 124.821 573.262 126.512C572.364 129.717 570.867 132.34 570.168 135.701C569.785 137.545 567.99 141.063 569.917 142.577C571.404 143.746 573.502 142.711 574.842 141.865C578.006 139.868 581.411 136.844 585.098 135.883C587.733 135.196 590.484 134.154 593.114 133.577C594.998 133.164 596.979 133.66 598.856 133.224C600.7 132.796 602.124 131.474 604.024 131.191C608.165 130.576 612.523 131.245 616.658 130.36C618.288 130.012 619.649 128.99 621.251 128.561C623.479 127.964 625.868 128.339 628.142 128.183C630.795 128.001 633.494 127.305 636.17 127.745C639.874 128.355 638.553 133.248 637.542 135.701C636.767 137.574 636.543 139.486 635.86 141.347C635.314 142.84 634.068 143.929 633.603 145.474C633.104 147.142 633.54 148.94 632.73 150.537C631.479 153.02 628.797 156.419 631.197 159.31C633.695 162.321 639.231 159.57 641.976 158.668C645.312 157.571 648.855 158.514 652.26 157.978C654.241 157.666 655.642 156.358 657.48 155.717C659.116 155.146 660.885 155.234 662.596 155.229C658.502 153.511 654.557 155.96 650.537 156.685C647.494 157.234 644.376 156.65 641.35 157.343C638.909 157.902 634.769 160.633 632.512 158.329C630.514 156.291 633.127 153.3 633.643 151.209C634.361 148.327 635.51 145.97 636.382 143.168C636.853 141.655 636.727 140.05 637.422 138.595C638.8 135.714 641.625 131.002 639.271 127.746C637.175 124.84 629.698 127.086 626.42 127.086C623.916 127.086 620.918 126.641 618.478 127.266C616.784 127.701 615.549 128.977 613.786 129.321C610.726 129.917 607.665 129.71 604.599 130.058C602.308 130.318 600.476 131.579 598.282 132.092C596.037 132.617 593.596 132.446 591.391 133.149C589.99 133.594 588.807 134.515 587.372 134.88C584.455 135.624 581.853 134.348 581.055 137.999C576.645 138.051 574.182 141.349 569.57 141.445C571.717 132.797 574.383 124.479 577.61 116.173H576.461Z" fill="#FB7F14" />
  <path d="M529.374 117.896C532.17 119.809 536.41 119.617 539.71 119.619C539 118.672 538.18 118.854 539.71 118.471C536.712 117.212 532.608 117.896 529.374 117.896Z" fill="white" />
  <path d="M464.486 120.194C466.232 121.516 468.085 121.341 470.228 121.342V120.194H464.486Z" fill="white" />
  <path d="M129.708 125.363C130.463 127.711 133.973 131.643 136.496 128.463C137.47 127.234 137.169 125.1 137.173 123.64L129.708 125.363Z" fill="white" />
  <path d="M357.104 144.316C359.844 145.466 362.84 144.395 365.718 144.325C367.966 144.27 370.395 144.604 372.609 144.145C374.783 143.694 376.684 142.601 378.925 142.265C381.575 141.869 384.364 142.365 386.965 141.699C389.164 141.136 391.02 139.74 393.281 139.336C396.868 138.696 400.588 139.499 404.192 138.893C406.971 138.426 409.461 137.045 412.231 136.543C415.262 135.992 418.371 136.467 421.419 136.03C424.474 135.591 427.077 134.122 430.032 133.561C432.281 133.134 434.648 133.524 436.923 133.306C439.852 133.026 442.233 131.825 445.013 131.264C447.974 130.666 451.144 131.273 454.15 130.862C457.228 130.442 459.774 128.882 462.766 128.409C466.831 127.767 471.305 128.412 475.299 127.489C479.075 126.616 481.665 125.363 485.733 125.363C481.517 123.593 477.219 125.567 473.1 126.501C470.037 127.196 466.973 126.776 463.912 127.273C459.876 127.927 455.917 129.359 451.853 129.852C447.895 130.332 443.703 130.015 439.796 130.721C437.742 131.093 436.095 132.484 434.029 132.753C431.372 133.099 428.676 132.653 426.012 133.082C422.859 133.59 420.003 134.995 416.825 135.455C408.463 136.667 399.868 137.162 391.558 138.621C380.103 140.633 368.711 143.4 357.104 144.316Z" fill="#FB7F14" />
  <path d="M322.65 131.106C324.101 133.48 326.481 133.65 327.818 131.106C326.009 130.753 324.472 130.891 322.65 131.106Z" fill="#FB7F14" />
  <path d="M321.693 139.53C321.662 139.562 321.629 140.168 321.885 139.913C321.917 139.881 321.949 139.275 321.693 139.53Z" fill="#FB7F14" />
  <path d="M322.267 140.679C322.236 140.711 322.204 141.317 322.459 141.062C322.491 141.03 322.523 140.423 322.267 140.679Z" fill="#FB7F14" />
  <path d="M212.972 150.634C208.047 150.594 203.558 150.009 198.616 150.634C199.322 151.708 199.689 151.912 200.913 152.357C194.232 156.419 185.496 156.797 177.944 157.69C173.723 158.19 169.501 159.374 165.31 159.764C162.13 160.06 158.68 159.453 155.548 160.047C153.473 160.44 151.887 162.033 149.806 162.507C147.805 162.962 145 163.589 142.975 163.087C139.506 162.227 137.295 158.184 134.876 163.27H137.173C134.791 166.493 131.193 166.697 127.411 166.716C120.703 166.748 110.684 165.453 107.313 172.46C104.928 171.225 102.903 169.641 101.571 167.291C100.319 168.174 100.093 168.643 99.8479 170.162C97.0818 170.373 95.2035 171.787 97.5509 174.183C97.4659 171.548 99.0945 169.953 101.812 171.086C105.353 172.563 106.543 176.818 110.236 178.267C116.61 180.769 124.581 177.8 130.859 176.735C134.614 176.097 138.538 176.37 142.339 175.874C144.931 175.536 147.201 174.243 149.807 173.855C163.627 171.797 177.48 170.026 191.151 167.185C193.603 166.675 195.643 165.016 198.093 164.568C200.714 164.089 203.444 164.662 206.081 164.311C208.331 164.011 210.179 162.616 212.398 162.25C214.845 161.846 217.395 162.259 219.863 162.024C222.974 161.727 225.972 160.873 229.05 160.504C233.561 159.964 238.238 160.49 242.734 159.675C251.75 158.04 263.044 154.736 272.118 157.208C275.225 158.054 278.77 159.028 280.821 161.785C282.225 163.672 282.784 167.297 283.241 169.588C283.72 171.99 283.745 174.615 283.549 177.055C283.241 180.887 281.321 184.364 280.157 187.967C278.72 184.687 279.769 181.094 280.057 177.629C280.459 172.799 278.701 166.454 274.415 163.844C275.15 166.492 277.742 168.027 278.283 170.788C279.102 174.975 278.868 182.148 277.539 186.192C276.492 189.377 274.737 192.432 273.572 195.597C272.4 198.785 271.87 202.235 268.672 204.049C268.485 209.813 261.829 213.451 260.059 218.982L264.078 219.557C263.164 221.228 261.778 222.296 261.207 224.151C256.266 224.267 254.644 227.833 250.297 229.034C246.845 229.987 242.971 229.664 239.409 230.546C231.5 232.505 223.477 235.064 215.269 235.064C219.122 232.622 223.403 230.071 225.524 225.777C226.743 223.311 225.666 220.824 227.37 218.41C229.214 215.797 231.951 214.004 233.808 211.417C235.9 208.504 237.164 204.958 238.782 201.774C243.766 191.972 247.426 182.48 247.426 171.311C242.934 170.327 239.145 167.853 234.27 169.262C232.869 169.667 231.98 170.696 230.886 171.582C229.662 172.573 227.728 173.016 226.856 174.363C226.119 175.499 226.265 176.94 225.941 178.203C225.363 180.461 224.264 182.907 223.422 185.095C222.813 186.675 221.755 188.049 221.297 189.69C220.882 191.182 221.045 192.761 220.521 194.233C220.002 195.693 218.874 196.835 218.432 198.328C217.891 200.159 218.453 202.149 217.804 203.951C216.481 207.632 214.495 211.199 213.291 214.962C211.549 220.405 211.123 225.695 206.081 229.321C205.434 223.493 199.699 224.294 196.909 228.522C195.442 230.744 197.152 232.743 198.328 234.541C200.479 237.827 201.704 242.032 206.081 242.531C203.75 239.932 201.977 237.575 200.115 234.579C199.496 233.583 198.228 232.387 198.482 231.098C198.972 228.61 201.848 229.512 203.207 230.48C205.984 232.457 207.399 235.335 208.378 238.51C210.631 238.51 213.044 238.75 215.269 238.359C217.047 238.047 218.634 237.132 220.437 236.895C223.984 236.429 227.772 236.787 231.347 236.787C228.845 238.122 226.513 237.461 223.905 238.228C222.619 238.607 221.602 239.522 220.339 239.949C215.962 241.43 210.627 242.13 206.081 243.105C208.77 244.201 210.894 242.573 213.546 242.107C216.217 241.639 218.906 242.069 221.585 241.446C223.787 240.933 225.719 239.483 227.924 239.167C230.341 238.82 232.873 239.438 235.269 238.927C237.126 238.531 238.688 237.254 240.536 236.746C242.39 236.236 244.378 236.444 246.203 235.887C249.358 234.922 252.493 232.671 255.517 231.281C264.323 227.232 272.74 222.775 279.993 216.042C284.668 211.701 287.916 206.35 291.615 201.326C292.961 199.5 295.073 198.451 296.365 196.484C303.332 185.879 308.554 172.524 303.591 160.235C302.149 156.662 301.936 153.99 297.958 152.357C297.123 153.785 296.361 154.754 295.087 155.803C294.476 152.711 293.223 149.71 292.79 146.614C291.394 145.847 290.302 144.54 288.74 144.071C285.948 143.231 282.469 143.742 279.583 143.742C272.473 143.742 265.45 144.316 258.336 144.316L258.91 142.019C256.328 142.019 253.402 141.638 250.871 142.192C249.039 142.595 247.577 143.895 245.703 144.177C243.786 144.466 241.887 143.765 239.961 143.931C234.939 144.364 230.039 146.007 225.031 146.516C221.228 146.902 214.439 146.231 212.972 150.634ZM323.224 142.019C323.665 144.227 324.462 145.883 326.67 146.614C325.825 144.799 324.705 143.361 323.224 142.019Z" fill="#FB7F14" />
  <path d="M327.244 147.763C328.192 150.618 330.97 150.156 333.561 149.816C335.413 149.573 337.491 149.721 339.281 149.193C340.937 148.705 342.16 147.502 343.919 147.265C347.798 146.741 353.916 148.53 356.53 144.891C350.582 145.146 343.997 146.051 338.155 147.15C334.264 147.883 331.104 149.367 327.244 147.763Z" fill="#FB7F14" />
  <path d="M326.861 146.997C326.83 147.029 326.798 147.635 327.053 147.379C327.085 147.348 327.117 146.741 326.861 146.997Z" fill="#FB7F14" />
  <path d="M1.65412 150.06C1.6557 152.436 1.27831 154.895 3.37682 156.378C2.89877 154.286 2.5283 152.004 1.65412 150.06Z" fill="#FB7F14" />
  <path d="M7.39648 151.783C8.56562 156.13 12.4772 161.382 16.5842 163.27C13.9396 159.497 10.9251 154.756 7.39648 151.783Z" fill="#FB7F14" />
  <path d="M52.761 152.357C53.6853 155.143 56.0339 154.667 58.5033 154.08C56.7994 152.34 55.1232 152.366 52.761 152.357Z" fill="#FB7F14" />
  <path d="M590.817 173.608C594.877 172.779 594.067 170.525 595.256 167.313C595.802 165.836 597.036 164.751 597.461 163.218C597.869 161.756 597.513 160.198 597.886 158.735C598.466 156.485 599.925 155.445 600.005 152.932C597.708 152.987 595.899 153.812 593.688 154.218C592.632 154.412 591.449 154.227 590.587 155.024C589.651 155.893 589.663 157.386 589.232 158.512C587.9 162.004 586.453 165.63 587.556 169.512C588.038 171.224 589.95 172.086 590.817 173.608Z" fill="white" />
  <path d="M662.596 155.229V159.25C663.205 157.794 663.205 156.685 662.596 155.229ZM3.37695 156.378C4.0106 157.215 4.26318 157.467 5.09965 158.101C4.58326 156.881 4.59639 156.894 3.37695 156.378Z" fill="#FB7F14" />
  <path d="M5.29103 159.633C5.25916 159.664 5.22722 160.271 5.48245 160.015C5.51436 159.984 5.54626 159.377 5.29103 159.633Z" fill="#FB7F14" />
  <path d="M5.67383 160.398C6.27476 161.899 7.02333 163.108 7.97076 164.419C8.70354 162.286 7.72034 161.044 5.67383 160.398Z" fill="#FB7F14" />
  <path d="M199.19 170.737C204.516 172.972 210.01 169.706 215.269 169.109C218.436 168.75 221.934 168.881 225.022 168.134C226.666 167.735 228.024 166.636 229.676 166.299C232.453 165.733 235.424 166.345 238.238 166.042C240.867 165.759 243.143 164.445 245.703 163.995C247.784 163.63 249.927 164.005 252.02 163.77C255.125 163.422 258.109 162.098 261.207 161.667C264.424 161.22 267.321 161.882 270.395 162.696C266.161 157.896 257.394 161.245 252.02 162.113C248.582 162.668 245.094 162.626 241.683 163.339C238.782 163.945 236.031 165.016 233.07 165.401C230.973 165.674 228.835 165.394 226.753 165.783C224.037 166.291 221.434 167.35 218.714 167.842C215.064 168.502 211.439 168.069 207.804 168.547C205.03 168.912 201.876 169.933 199.19 170.737Z" fill="#FB7F14" />
  <path d="M660.299 160.973V164.419C660.845 163.106 660.845 162.285 660.299 160.973Z" fill="#FB7F14" />
  <path d="M270.969 162.696C271.975 163.417 272.61 163.623 273.841 163.844C272.835 163.124 272.2 162.917 270.969 162.696Z" fill="#FB7F14" />
  <path d="M113.63 164.419C116.595 165.698 120.198 165.567 123.392 165.567C121.442 162.863 116.528 163.562 113.63 164.419Z" fill="#FB7F14" />
  <path d="M641.924 163.844V164.993C644.646 165.016 648.286 166.421 649.963 163.844H641.924ZM8.54492 164.419C11.4383 168.428 17.1337 172.205 21.8037 173.847C23.7353 174.526 26.0417 174.229 28.0604 174.624C29.8854 174.982 31.4452 176.041 33.2596 176.352C38.5323 177.253 44.5413 176.48 49.8897 176.48C46.3755 175.005 41.6075 176.073 37.8308 175.883C35.2639 175.754 33.3618 174.42 30.94 173.847C28.35 173.234 25.5331 173.613 22.9544 172.861C21.6124 172.469 20.8723 171.446 19.7349 170.73C16.4521 168.666 12.2602 165.451 8.54492 164.419Z" fill="#FB7F14" />
  <path d="M524.781 186.244C524.816 182.024 526.26 177.543 527.734 173.608C529.025 170.165 530.491 168.2 529.374 164.419C526.284 165.125 519.229 164.967 517.167 167.473C515.983 168.913 516.423 170.735 515.988 172.4C515.525 174.168 514.042 175.154 513.906 177.079C513.459 183.444 519.495 186.24 524.781 186.244Z" fill="white" />
  <path d="M658.002 166.716L660.299 165.567C658.973 165.247 658.714 165.569 658.002 166.716Z" fill="#FB7F14" />
  <path d="M627.568 166.716C629.578 168.768 633.155 169.182 635.033 166.716H627.568ZM657.428 166.716C657.279 169.452 655.832 170.29 654.896 172.608C653.977 174.889 655.034 177.551 654.224 179.875C652.869 183.746 650.176 187.34 649.389 191.413C652.197 188.535 654.322 184.376 655.413 180.501C655.941 178.637 655.631 176.644 656.113 174.757C656.831 171.933 658.646 169.651 657.428 166.716Z" fill="#FB7F14" />
  <path d="M126.837 181.649C132.131 183.871 137.154 180.21 142.341 179.949C146.562 179.737 150.792 179.964 154.974 179.157C157.167 178.734 159.059 177.457 161.291 177.162C164.924 176.683 168.58 177.375 172.201 176.584C174.275 176.13 175.959 174.762 177.995 174.341C180.75 173.77 183.759 174.324 186.557 174.131C189.659 173.917 192.287 172.909 195.171 171.885C191.345 170.392 185.534 173.403 181.389 173.586C170.838 174.052 160.181 176.69 149.806 178.511C146.766 179.045 143.654 178.459 140.619 178.965C135.922 179.747 131.687 181.609 126.837 181.649Z" fill="#FB7F14" />
  <path d="M100.422 189.116C99.8665 185.505 96.9402 182.66 94.68 179.926C94.1994 182.149 95.9485 184.388 97.1325 186.242C99.4593 189.886 102.43 193.55 107.313 192.316C109.135 191.855 110.587 190.616 112.481 190.347C115.885 189.865 119.413 190.661 122.817 190.142C125.041 189.803 126.91 188.428 129.134 188.09C132.165 187.627 135.286 188.266 138.322 187.793C140.946 187.383 143.185 185.863 145.787 185.364C148.815 184.784 151.929 185.368 154.966 184.841C158.16 184.287 160.846 182.642 164.162 182.321C167.026 182.044 169.93 182.47 172.776 181.957C175.261 181.509 177.313 179.999 179.718 179.509C182.7 178.902 185.853 179.714 188.854 179.223C191.232 178.834 193.319 177.549 195.745 177.221C198.933 176.79 202.249 177.484 205.409 176.906C207.848 176.459 209.995 174.975 212.398 174.421C215.117 173.793 218.233 174.183 221.011 174.183V178.203H222.16C222.143 176.81 222.322 175.033 221.239 173.955C219.491 172.213 213.027 172.595 210.839 173.355C208.539 174.155 206.9 175.528 204.358 175.806C200.744 176.2 197.017 175.454 193.448 176.299C191.249 176.819 189.351 178.158 187.132 178.582C184.117 179.158 180.977 178.482 177.944 178.886C175.694 179.185 173.846 180.58 171.627 180.946C169.179 181.351 166.63 180.938 164.162 181.173C160.136 181.556 156.606 182.97 152.678 183.607C149.813 184.072 146.923 183.707 144.064 184.119C141.336 184.512 139.155 186.13 136.547 186.661C132.977 187.389 129.291 186.504 125.691 187.418C123.667 187.932 122 189.341 119.924 189.614C113.589 190.447 106.738 189.614 100.422 189.116Z" fill="#FB7F14" />
  <path d="M98.1252 174.757C98.928 178.454 102.515 183.908 106.216 185.325C108.366 186.149 110.865 185.402 113.055 185.193C117.39 184.78 121.104 184.813 125.114 182.798C119.537 180.458 113.389 185.891 107.344 184.341C103.694 183.405 100.99 177.241 98.1252 174.757Z" fill="#FB7F14" />
  <path d="M81.4727 180.501C84.7263 179.387 87.1449 177.167 90.6604 177.055V175.906C86.6867 175.909 83.3992 176.665 81.4727 180.501Z" fill="#FB7F14" />
  <path d="M451.853 196.582V193.711C454.418 192.96 453.793 190.741 454.476 188.544C455.744 184.47 457.895 180.764 458.744 176.48C456.211 176.48 451.295 175.541 449.305 177.401C447.858 178.755 448.085 181.049 447.549 182.798C447.061 184.391 446.023 185.741 445.696 187.393C444.857 191.629 447.702 195.723 451.853 196.582Z" fill="white" />
  <path d="M49.8897 177.055C49.8782 181.049 45.988 186.445 48.3495 190.082C49.3216 191.579 51.2047 191.423 52.7609 191.249C56.3978 190.844 60.0054 190.275 63.6713 190.265C60.6416 188.993 56.5929 189.749 53.3351 189.687C51.7398 189.658 49.7811 189.641 49.0988 187.883C48.3038 185.833 50.0747 184.447 50.7028 182.7C51.3228 180.977 51.0382 178.859 51.0382 177.055H49.8897Z" fill="#FB7F14" />
  <path d="M91.2344 177.055C91.6214 178.374 91.7885 178.648 92.9571 179.352C92.4087 178.337 92.0578 177.855 91.2344 177.055Z" fill="#FB7F14" />
  <path d="M219.863 178.203C218.754 180.804 218.261 183.424 218.14 186.244H219.288C219.349 183.343 220.135 180.938 221.011 178.203H219.863Z" fill="#FB7F14" />
  <path d="M63.6714 189.116C65.9195 189.968 67.3 188.409 69.4361 187.806C74.1609 186.471 78.8926 185.248 81.4726 180.501C78.0117 181.33 75.2399 184.217 72.1212 185.927C69.6325 187.291 66.3485 188.014 63.6714 189.116Z" fill="#FB7F14" />
  <path d="M639.627 182.798C640.494 183.19 640.953 183.272 641.924 183.372C637.06 184.824 631.858 183.642 627.045 184.926C624.53 185.596 622.515 187.543 620.051 188.204C618.214 188.698 616.25 187.953 614.361 188.242C611.369 188.698 609.043 190.364 606.224 191.141C603.668 191.847 600.895 191.292 598.282 191.93C595.509 192.607 593.08 194.374 590.243 194.751C579.706 196.155 568.707 195.434 558.086 195.434C558.188 196.925 558.372 197.666 559.234 198.88C556.672 199.733 554.504 200.544 551.769 200.603L552.918 200.029C549.603 198.638 542.073 198.324 540.859 202.326C536.651 202.291 532.446 201.277 528.226 201.872C525.213 202.297 522.629 204.31 519.612 204.553C517.125 204.753 514.677 203.902 512.17 204.081C510.108 204.228 508.453 205.492 506.403 205.71C501.666 206.213 496.77 205.713 492.049 206.495C489.248 206.96 486.786 208.636 484.01 209.09C480.258 209.703 476.312 209.325 472.525 209.914C465.099 211.071 457.636 213.234 450.13 214.221C446.727 214.669 443.194 213.938 439.816 214.516C436.564 215.072 433.368 216.407 430.032 216.993C427.554 217.428 425.011 217.252 422.567 217.956C417.836 219.318 414.447 220.705 409.36 220.705C411.581 222.285 414.343 222.201 416.25 224.151C410.656 224.155 405.251 225.3 399.598 225.3V227.023C393.519 227.023 387.293 227.417 381.231 226.992C379.042 226.839 377.138 225.868 374.903 225.885C371.496 225.912 368.381 226.871 365.092 227.449C363.214 227.778 361.28 227.418 359.401 227.749C355.664 228.406 352.634 231.498 349.056 232.053C345.735 232.569 342.669 231.198 339.303 232.192C339.646 232.879 339.571 232.753 340.452 233.341C336.347 235.628 331.736 235.039 327.295 235.721C325.118 236.056 323.663 237.905 321.501 238.35C316.576 239.365 311.016 239.085 305.998 239.085L306.572 240.233C300.924 240.679 294.922 240.178 289.345 241.06C286.661 241.484 284.433 242.724 281.871 243.502C278.454 244.54 274.978 245.166 271.544 246.179C269.682 246.728 267.697 246.467 265.801 246.846C259.784 248.05 254.007 249.456 248 250.572L247.426 257.464C248.78 257.842 249.288 258.192 250.297 259.187C247.556 259.187 244.359 258.734 241.683 259.367C239.595 259.862 238.072 261.5 235.941 261.936C231.194 262.908 226.86 261.994 222.16 262.133C219.807 262.203 217.65 263.172 215.269 262.939C212.982 262.715 210.162 262.407 208.194 261.14C204.993 259.077 201.178 254.427 196.893 254.708C195.523 254.798 194.49 255.643 193.351 256.308C192.008 257.093 190.379 257.671 189.784 259.249C188.325 263.113 194.393 268.67 197.468 270.1C196.154 267.476 191.098 263.538 191.67 260.421C192.084 258.159 195.206 258.592 196.641 259.384C199.625 261.032 202.331 264.574 203.21 267.802C206.42 267.802 209.262 266.899 212.398 266.684C216.762 266.386 221.23 266.653 225.605 266.653V267.802C222.549 267.802 218.856 267.239 215.895 268.049C214.419 268.452 213.271 269.534 211.801 269.977C207.23 271.355 202.592 271.74 198.042 270.674C201.184 274.667 203.604 271.896 207.804 271.825C213.188 271.734 217.551 270.372 222.734 269.248C225.558 268.635 228.532 268.765 231.347 268.153C233.525 267.68 235.423 266.466 237.664 266.185C240.704 265.806 243.816 266.381 246.852 265.959C249.604 265.576 252.172 264.178 254.913 263.856C258.711 263.409 262.574 264.08 266.376 263.536C269.587 263.075 272.433 261.435 275.566 261.018C278.791 260.588 282.129 261.331 285.325 260.606C287.735 260.06 289.786 258.414 292.238 258.113C295.266 257.741 298.366 258.245 301.404 257.94C304.394 257.64 307.071 256.214 310.017 255.847C312.868 255.492 315.785 256.022 318.631 255.621C321.021 255.284 323.171 254.07 325.521 253.57C331.087 252.387 336.61 252.164 342.174 250.842C345.083 250.15 348.373 250.338 351.362 249.923C356.439 249.217 361.215 248.135 366.292 247.536C369.354 247.174 373.676 247.692 375.48 244.828C366.377 245.985 357.498 247.669 348.491 249.234C345.836 249.695 343.1 249.128 340.452 249.639C338.281 250.058 336.314 251.199 334.135 251.571C330.743 252.149 327.21 252.045 323.799 252.54C314.413 253.903 305.069 256.171 295.661 257.3C293.372 257.575 291.054 257.286 288.771 257.57C286.363 257.87 284.255 259.159 281.88 259.572C278.348 260.187 274.554 260.03 270.969 260.431C267.64 260.804 264.524 262.177 261.207 262.533C256.695 263.018 251.963 262.633 247.426 262.633V264.93H237.09C243.348 260.41 251.745 261.43 258.91 259.598C264.725 258.11 270.802 256.256 276.712 255.341C281.828 254.549 287.087 254.685 292.216 253.9C294.46 253.556 296.381 252.269 298.584 251.87C301.389 251.361 304.32 251.965 307.146 251.646C310.054 251.319 312.893 250.047 315.76 249.431C318.249 248.896 320.736 249.065 323.225 248.662C326.124 248.192 328.926 246.953 331.838 246.625C334.226 246.357 336.811 246.959 339.139 246.267C341.593 245.537 343.632 243.749 346.194 243.262C348.255 242.871 350.424 243.145 352.51 242.861C357.919 242.124 363.134 240.85 368.589 240.331C371.067 240.095 373.591 240.449 376.054 240.047C380.76 239.278 385.755 238.598 390.41 237.661C392.585 237.223 394.517 236.047 396.726 235.746C400.724 235.201 404.812 235.479 408.785 234.956C411.532 234.595 414.036 233.282 416.825 232.931C425.441 231.845 434.079 231.125 442.665 229.708C445.384 229.26 447.967 228.166 450.704 227.77C454.704 227.192 458.773 227.147 462.763 226.426C484.474 222.501 506.384 219.099 528.226 216.611C530.762 216.322 533.18 215.152 535.691 214.645C538.774 214.024 541.774 214.012 544.879 213.715C552.81 212.957 560.621 210.797 568.424 209.473C572.537 208.774 576.898 208.984 581.055 208.584C585.04 208.201 589.628 207.021 593.591 206.198C596.99 205.491 600.039 203.275 603.45 202.55C606.867 201.823 610.324 202.184 613.786 201.37C619.282 200.077 625.105 200.282 630.439 198.334C632.168 197.703 634.717 196.023 635.9 198.4C636.733 200.083 635.912 202.331 634.327 203.225C632.811 204.084 630.945 203.903 629.291 204.271C627.137 204.751 625.179 205.739 622.974 206.094C619.931 206.584 616.841 206.459 613.786 207.018C611.461 207.444 609.262 208.308 606.896 208.546C604.22 208.814 601.532 208.519 598.856 208.888C595.313 209.376 592.029 210.759 588.52 211.329C583.645 212.12 579.051 211.945 574.164 213.166C565.182 215.411 555.711 215.925 546.601 217.446C538.599 218.783 530.546 220.781 522.483 221.782C518.323 222.299 513.951 221.885 509.85 222.557C507.843 222.886 506.101 224.04 504.108 224.451C500.915 225.108 497.521 224.808 494.346 225.472C492.756 225.804 491.354 226.664 489.752 226.992C486.124 227.737 482.475 227.317 478.842 227.843C467.111 229.542 455.579 232.034 443.813 233.447C441.046 233.779 438.516 235.103 435.774 235.521C421.573 237.686 407.485 239.67 393.281 241.548C390.978 241.852 389.12 243.065 386.913 243.523C383.606 244.208 379.996 244.253 376.628 244.254C380.276 245.785 386.671 245.165 390.401 243.999C392.185 243.442 393.727 242.277 395.6 242.033C399.011 241.588 402.493 242.206 405.914 241.71C413.599 240.597 421.177 238.198 428.883 236.936C433.007 236.261 437.392 236.822 441.508 236.082C443.414 235.74 444.787 234.282 446.707 233.998C450.468 233.442 454.385 233.85 458.169 233.213C461.1 232.72 463.763 231.565 466.783 231.207C469.436 230.893 472.177 231.329 474.8 230.768C476.634 230.376 478.145 229.186 479.999 228.875C483.934 228.214 488.104 228.715 492.049 227.977C494.035 227.605 495.807 226.549 497.791 226.149C500.607 225.583 503.553 225.753 506.405 225.252C509.495 224.709 512.488 223.618 515.593 223.175C518.634 222.74 521.732 223.231 524.78 222.903C527.393 222.622 529.703 221.427 532.245 220.923C534.703 220.435 537.241 220.94 539.71 220.585C542.509 220.182 544.989 218.6 547.75 218.051C551.657 217.274 555.829 217.848 559.809 217.207C562.375 216.795 564.683 215.509 567.274 215.134C570.685 214.641 574.187 214.736 577.61 214.215C580.716 213.742 583.645 212.632 586.798 212.254C588.853 212.008 590.984 212.313 593.016 211.941C601.09 210.467 609.141 208.644 617.232 207.188C622.503 206.238 627.562 207.139 632.736 205.1C636.894 203.459 638.209 199.193 641.924 197.157C642.268 191.957 645.886 187.608 645.944 182.224C643.796 182.241 641.752 182.53 639.627 182.798Z" fill="#FB7F14" />
  <path d="M56.7805 184.521C58.5968 185.283 60.5624 185.095 62.5228 185.095C60.7065 184.333 58.7409 184.521 56.7805 184.521Z" fill="#FB7F14" />
  <path d="M208.378 212.664C211.002 210.664 210.854 208.651 211.943 205.772C213.312 202.157 214.827 198.528 216.016 194.859C216.896 192.15 216.951 189.493 218.14 186.819C215.312 188.378 216.483 190.469 215.499 193.085C215.001 194.411 213.835 195.321 213.307 196.634C211.234 201.792 210.434 207.442 208.378 212.664Z" fill="#FB7F14" />
  <path d="M648.815 191.413C646.173 195.263 644.749 199.975 642.291 204.048C641.585 205.217 641.085 206.686 639.96 207.531C637.927 209.057 635.073 208.412 632.736 208.766C630.531 209.1 628.619 210.367 626.42 210.752C623.962 211.183 621.43 210.792 618.955 211.039C615.636 211.371 612.925 213.012 609.761 213.618C606.189 214.301 602.451 213.432 598.856 213.922C596.582 214.232 594.739 215.629 592.54 216.192C588.83 217.143 584.311 217.095 580.481 217.259C582.577 218.132 584.592 217.462 586.798 217.311C589.588 217.12 592.563 217.647 595.313 217.108C597.162 216.746 598.719 215.559 600.579 215.18C603.944 214.493 607.476 215.304 610.864 214.888C613.408 214.575 615.314 212.639 617.812 212.219C621.206 211.648 624.743 212.497 628.142 211.967C630.21 211.645 631.909 210.4 633.885 209.786C635.952 209.144 638.771 209.789 640.603 208.628C641.901 207.803 642.452 206.02 643.279 204.787C645.392 201.641 650.067 195.348 648.815 191.413Z" fill="#FB7F14" />
  <path d="M308.294 222.428C309.718 222.779 310.851 222.383 312.247 222.574C315.976 223.084 319.983 225.245 323.799 224.53C329.142 223.528 334.046 219.346 338.155 216.11C335.553 213.378 331.95 212.976 328.393 213.813C329.014 210.61 329.145 207.186 329.948 204.049C330.681 201.182 331.81 199.047 331.838 196.008C328.613 196.008 323.296 194.993 320.415 196.599C317.793 198.059 317.066 201.524 316.015 204.051C315.337 205.681 314.085 206.975 313.481 208.644C312.624 211.011 312.924 213.584 311.947 215.944C310.981 218.275 309.228 220.078 308.294 222.428Z" fill="white" />
  <path d="M453.001 205.772V206.921H454.724V205.772H453.001Z" fill="#FB7F14" />
  <path d="M207.804 212.664C207.533 216.214 205.61 216.482 202.636 217.667C198.31 219.389 194.617 219.557 190.002 219.557C193.82 221.159 200.561 220.283 204.358 218.794C207.228 217.668 209.098 215.786 207.804 212.664Z" fill="#FB7F14" />
  <path d="M527.652 225.3V227.023C529.82 226.885 531.809 226.053 533.968 225.905C537.623 225.656 541.256 226.152 544.879 225.41C547.114 224.952 549 223.641 551.195 223.174C554.376 222.499 557.789 223.559 560.957 222.823C563.008 222.346 564.613 220.86 566.699 220.408C570.679 219.547 574.831 220.718 578.758 219.557C575.307 218.107 567.412 218.222 563.828 219.384C562.026 219.968 560.532 221.208 558.66 221.628C555.314 222.379 551.753 221.462 548.375 221.93C546.051 222.253 544.331 224.082 542.007 224.53C537.555 225.39 532.204 225.105 527.652 225.3Z" fill="#FB7F14" />
  <path d="M194.022 239.085C194.308 240.845 194.617 241.4 196.319 241.956V245.977C194.6 246.014 193.823 245.946 193.448 247.7C194.688 247.1 196.501 246.518 197.118 245.164C198.051 243.12 196.362 241.18 195.326 239.584C192.769 235.644 187.667 231.128 186.845 226.451C186.363 223.702 188.542 222.15 190.002 220.131C182.69 222.674 186.196 228.951 189.251 233.752C190.678 235.994 191.335 238.255 194.022 239.085Z" fill="#FB7F14" />
  <path d="M515.019 227.597C518.58 229.093 523.803 228.172 527.652 228.172C524.09 226.677 518.867 227.597 515.019 227.597Z" fill="#FB7F14" />
  <path d="M459.318 237.361C462.01 238.248 465.61 236.362 468.506 236.235C471.33 236.112 474.338 236.577 477.119 235.989C479.484 235.489 481.564 234.281 484.01 234.015C487.231 233.665 490.585 234.338 493.772 233.698C496.224 233.205 498.222 231.441 500.685 231.12C505.259 230.524 512.027 232.734 515.018 228.172C512.444 228.43 510.131 229.63 507.553 229.841C504.005 230.132 500.247 229.385 496.741 230.044C494.298 230.503 492.215 232.112 489.752 232.571C486.546 233.17 483.212 232.436 479.99 232.875C477.716 233.185 475.871 234.582 473.674 235.146C468.754 236.407 464.003 234.906 459.318 237.361Z" fill="#FB7F14" />
  <path d="M341.026 254.592V255.741C344.994 255.741 349.145 256.087 353.085 255.575C356.817 255.089 360.306 253.585 363.995 253.042C366.644 252.652 369.423 253.245 372.034 252.631C373.832 252.208 375.379 251.135 377.203 250.765C381.007 249.993 384.914 250.489 388.687 249.848C390.881 249.475 392.81 248.223 395.004 247.849C398.961 247.176 403.056 247.784 407.063 247.117C409.303 246.743 411.187 245.525 413.379 245.052C416.561 244.366 419.926 245.134 423.141 244.655C425.372 244.323 427.28 243.144 429.458 242.679C432.294 242.075 435.231 242.194 438.071 241.69C440.432 241.271 442.622 240.252 444.962 239.8C449.721 238.881 454.632 239.626 459.318 238.51C456.936 237.58 453.846 238.506 451.279 238.51C446.454 238.518 442.72 239.95 438.071 240.635C434.286 241.192 430.398 240.563 426.638 241.547C424.964 241.986 423.717 243.237 421.984 243.548C418.23 244.224 414.284 243.24 410.51 243.855C408.294 244.215 406.844 245.861 404.743 246.371C401.461 247.169 397.78 246.276 394.43 246.651C391.81 246.945 389.556 248.399 386.965 248.741C383.017 249.26 378.887 248.283 374.965 248.933C373.088 249.244 372.088 250.963 370.287 251.472C366.843 252.445 362.966 251.269 359.452 251.803C357.176 252.149 355.398 253.875 353.085 254.323C349.224 255.071 344.946 254.592 341.026 254.592Z" fill="#FB7F14" />
  <path d="M177.944 252.295C179.476 251.664 180.925 250.655 182.537 250.244C186.221 249.303 189.808 249.82 193.448 248.274C191.621 247.64 190.148 248.469 188.28 248.728C184.144 249.302 179.887 247.611 177.944 252.295Z" fill="#FB7F14" />
  <path d="M179.666 260.336C178.384 257.806 175.956 255.553 177.944 252.869C176.146 252.465 175.48 254.004 175.84 255.744C176.273 257.831 177.919 259.33 179.666 260.336ZM337.581 256.889C338.994 257.29 339.685 256.953 341.026 256.315C339.665 255.977 338.897 256.341 337.581 256.889Z" fill="#FB7F14" />
  <path d="M276.137 265.505C282.287 268.086 289.077 264.767 295.087 263.902C297.575 263.544 300.059 263.797 302.552 263.319C305.465 262.762 308.255 261.449 311.166 261.031C314.158 260.6 317.288 261.34 320.256 260.759C322.517 260.316 324.399 258.746 326.67 258.262C330.112 257.529 334.071 258.038 337.58 258.038C331.937 255.67 325.343 258.419 319.779 259.207C316.417 259.683 312.833 259.267 309.541 259.912C306.901 260.429 304.72 262.185 301.978 262.527C298.569 262.951 295.03 262.19 291.642 262.762C289.352 263.148 287.574 264.774 285.325 265.278C282.428 265.929 279.095 265.505 276.137 265.505Z" fill="#FB7F14" />
  <path d="M179.667 260.336C180.3 261.172 180.553 261.425 181.389 262.059C180.873 260.839 180.886 260.852 179.667 260.336Z" fill="#FB7F14" />
  <path d="M183.112 263.782C183.867 266.327 185.931 267.835 188.28 268.951C186.93 266.555 185.555 265.06 183.112 263.782Z" fill="#FB7F14" />
  <path d="M272.692 266.653C273.887 266.945 274.896 266.79 276.138 266.653C274.804 266.124 274.082 266.259 272.692 266.653Z" fill="#FB7F14" />
  <path d="M188.854 268.951C188.455 271.379 190.494 272.889 192.039 274.553C193.27 275.878 194.092 277.792 195.455 278.943C197.121 280.351 200.604 280.083 202.613 279.667C204.48 279.279 205.935 277.995 207.813 277.597C211.82 276.747 215.82 277.219 219.863 276.94C223.082 276.718 225.899 275.288 229.051 274.861C231.902 274.475 234.815 274.974 237.655 274.52C239.925 274.157 241.764 272.746 243.983 272.215C247.305 271.421 250.862 271.796 254.219 271.099C256.046 270.72 257.647 269.649 259.485 269.249C263.882 268.292 268.254 268.977 272.692 267.802C270.677 267.039 269.015 268.071 266.95 268.302C263.727 268.664 260.392 267.976 257.188 268.505C255.161 268.839 253.461 270.093 251.446 270.479C248.243 271.09 244.904 270.346 241.684 270.848C238.494 271.346 235.767 273.119 232.496 273.447C229.11 273.788 225.493 273.025 222.182 273.959C220.128 274.538 218.583 276.01 216.415 276.309C212.829 276.804 209.059 275.875 205.507 276.641C203.285 277.122 201.032 279.08 198.668 278.352C195.052 277.238 191.114 271.863 188.854 268.951Z" fill="#FB7F14" />
</svg>
